<?xml version="1.0" encoding="utf-8"?>
<!-- Generator: Adobe Illustrator 18.1.1, SVG Export Plug-In . SVG Version: 6.00 Build 0)  -->
<svg version="1.1" id="Layer_1" xmlns="http://www.w3.org/2000/svg" xmlns:xlink="http://www.w3.org/1999/xlink" x="0px" y="0px"
	 viewBox="0 0 197.6 150.4" style="enable-background:new 0 0 197.6 150.4;" xml:space="preserve">
<style type="text/css">
	.st0{fill:#5EA75C;}
	.st1{fill:#616AAC;}
</style>
<g>
	<g>
		<path class="st0" d="M58.3,30.8C46.8,24,28.8,26.5,7.7,33.7c0,0,20.3,39.5,61.5,27.8C68.1,52.3,64.7,42.2,58.3,30.8z"/>
		<g>
			<path d="M58.3,30.8l-1.5-0.7c-0.5-0.2-1-0.5-1.5-0.6L53.8,29c-0.5-0.2-1-0.3-1.6-0.4c-1-0.3-2.1-0.5-3.2-0.7
				c-1.1-0.2-2.1-0.2-3.2-0.4c-1.1-0.1-2.1-0.1-3.2-0.1c-1.1,0-2.1,0.1-3.2,0.1c-1.1,0.1-2.1,0.2-3.2,0.3c-1.1,0.1-2.1,0.3-3.2,0.4
				l-3.2,0.6l-3.2,0.7l-3.1,0.7c-1,0.3-2.1,0.6-3.1,0.8c-1,0.3-2.1,0.6-3.1,0.9c-1,0.3-2.1,0.6-3.1,1c-1,0.3-2.1,0.6-3.1,1l-3.1,1
				l0.8-1.9c0.7,1.2,1.5,2.5,2.3,3.7c0.8,1.2,1.7,2.4,2.6,3.6c0.9,1.2,1.9,2.3,2.9,3.4c1,1.1,2,2.2,3.1,3.2c1.1,1,2.2,2.1,3.3,3
				c0.6,0.5,1.1,1,1.7,1.4c0.6,0.5,1.2,0.9,1.8,1.3c1.2,0.9,2.4,1.7,3.7,2.5l1.9,1.1l2,1c0.6,0.4,1.3,0.6,2,0.9l1,0.5l1,0.4
				c1.4,0.6,2.8,1,4.2,1.4c1.4,0.3,2.9,0.8,4.3,1c1.5,0.3,2.9,0.4,4.4,0.6c0.7,0.1,1.5,0.1,2.2,0.1c0.7,0,1.5,0.1,2.2,0l2.2-0.1
				c0.7,0,1.5-0.1,2.2-0.2c1.5-0.1,3-0.4,4.4-0.6c1.5-0.3,2.9-0.7,4.4-1l-0.8,1.1c-0.2-1.3-0.3-2.7-0.5-4c-0.2-1.3-0.5-2.6-0.8-4
				c-0.3-1.3-0.6-2.6-1-3.9c-0.4-1.3-0.8-2.6-1.2-3.9c-0.4-1.3-0.9-2.6-1.4-3.8c-0.5-1.3-1-2.5-1.5-3.8c-0.5-1.3-1.1-2.5-1.7-3.7
				C59.5,33.3,58.9,32.1,58.3,30.8z M58.3,30.8c0.7,1.2,1.4,2.3,2.1,3.5c0.7,1.2,1.3,2.4,1.9,3.6c0.6,1.2,1.2,2.4,1.8,3.7
				c0.6,1.2,1.1,2.5,1.6,3.8c0.5,1.3,1,2.6,1.5,3.9c0.4,1.3,0.9,2.6,1.2,3.9c0.7,2.7,1.3,5.4,1.7,8.1l0.1,0.9l-0.9,0.2
				c-1.5,0.4-3,0.9-4.5,1.2c-1.5,0.3-3,0.7-4.6,0.8c-0.8,0.1-1.5,0.2-2.3,0.3l-2.3,0.1c-0.8,0.1-1.6,0.1-2.3,0c-0.8,0-1.6,0-2.3-0.1
				c-1.6-0.1-3.1-0.2-4.7-0.5c-1.6-0.2-3.1-0.6-4.6-0.9c-1.5-0.4-3-0.9-4.5-1.4l-1.1-0.4L35,61.1c-0.7-0.3-1.5-0.6-2.1-1L30.8,59
				l-2-1.2c-1.3-0.8-2.7-1.7-3.9-2.6c-0.6-0.4-1.3-0.9-1.9-1.4c-0.6-0.5-1.2-1-1.8-1.5c-1.2-1-2.3-2.1-3.4-3.2
				c-1.1-1.1-2.2-2.2-3.2-3.4c-1-1.2-2-2.4-3-3.6c-0.9-1.2-1.8-2.5-2.7-3.8C8,37,7.2,35.7,6.5,34.3l-0.7-1.4l1.5-0.5l3.1-1
				c1-0.3,2.1-0.6,3.1-0.9c1-0.3,2.1-0.6,3.2-0.9c1.1-0.3,2.1-0.6,3.2-0.8c1.1-0.2,2.1-0.5,3.2-0.7l3.2-0.6l3.3-0.5l3.3-0.4
				c1.1-0.1,2.2-0.2,3.3-0.3c1.1-0.1,2.2-0.1,3.3-0.1c1.1,0,2.2,0.1,3.3,0.1c1.1,0.1,2.2,0.2,3.3,0.3c1.1,0.2,2.2,0.3,3.2,0.6
				c1.1,0.3,2.1,0.5,3.2,0.9c0.5,0.2,1,0.3,1.6,0.5l1.5,0.7c0.5,0.2,1,0.5,1.4,0.8L58.3,30.8z"/>
		</g>
	</g>
	<g>
		<path d="M20.3,35.2c0,0,0.8-0.1,2.1-0.3c1.3-0.1,3.3-0.3,5.6-0.4c1.2,0,2.4-0.1,3.7,0c1.3,0,2.7,0,4.2,0.2c2.9,0.2,6,0.6,9,1.2
			c1.5,0.3,3,0.7,4.5,1.1c0.7,0.2,1.5,0.5,2.2,0.7c0.7,0.3,1.4,0.5,2.1,0.8c1.4,0.6,2.6,1.2,3.8,1.8c1.2,0.7,2.2,1.3,3.2,2
			c0.5,0.4,0.9,0.7,1.3,1c0.4,0.3,0.8,0.7,1.1,1c0.7,0.6,1.2,1.3,1.7,1.7c0.4,0.5,0.8,0.9,1,1.2c0.2,0.3,0.3,0.4,0.3,0.4
			s-0.5-0.6-1.5-1.5c-0.5-0.4-1.1-1-1.8-1.6c-0.4-0.3-0.7-0.6-1.2-0.9c-0.4-0.3-0.9-0.6-1.3-0.9c-1-0.6-2-1.2-3.2-1.8
			c-1.2-0.6-2.4-1.1-3.8-1.7c-0.7-0.2-1.4-0.5-2-0.7c-0.7-0.2-1.4-0.5-2.1-0.7c-1.4-0.4-2.9-0.8-4.4-1.1c-3-0.6-6-1.1-8.9-1.3
			C33,35.2,30.3,35,28,35C23.4,35,20.3,35.2,20.3,35.2z"/>
	</g>
</g>
<g>
	<g>
		<path class="st0" d="M94.5,46C95.4,32.6,85,17.7,69,2.1c0,0-26,36,3.1,67.4C79.8,64.4,87.3,56.7,94.5,46z"/>
		<g>
			<path d="M94.5,46l-0.1-1.6c0-0.5,0-1.1-0.1-1.6l-0.2-1.6c-0.1-0.5-0.2-1.1-0.3-1.6c-0.2-1.1-0.5-2.1-0.8-3.1c-0.3-1-0.8-2-1.1-3
				c-0.4-1-0.9-1.9-1.4-2.9c-0.5-0.9-1-1.9-1.6-2.8c-0.6-0.9-1.1-1.8-1.7-2.7c-0.6-0.9-1.2-1.8-1.8-2.7l-1.9-2.6l-2-2.5l-2.1-2.5
				c-0.7-0.8-1.4-1.6-2.2-2.4c-0.7-0.8-1.5-1.6-2.2-2.4c-0.7-0.8-1.5-1.6-2.3-2.3c-0.8-0.8-1.5-1.6-2.3-2.3L68.1,3l2-0.2
				c-0.8,1.2-1.6,2.5-2.3,3.8c-0.7,1.3-1.4,2.6-2,4c-0.6,1.4-1.2,2.7-1.8,4.1c-0.6,1.4-1,2.8-1.5,4.2c-0.4,1.4-0.9,2.9-1.2,4.3
				c-0.2,0.7-0.3,1.4-0.5,2.2c-0.1,0.7-0.3,1.5-0.4,2.2c-0.3,1.5-0.4,2.9-0.5,4.4l-0.1,2.2l0,2.2c0,0.7,0.1,1.5,0.1,2.2l0.1,1.1
				l0.1,1.1c0.1,1.5,0.4,2.9,0.7,4.4c0.3,1.4,0.6,2.9,1.1,4.3c0.4,1.4,1,2.8,1.5,4.2c0.3,0.7,0.6,1.3,0.9,2c0.3,0.7,0.6,1.3,1,2
				l1.1,2c0.4,0.6,0.8,1.3,1.2,1.9c0.8,1.3,1.7,2.5,2.6,3.7c0.9,1.2,1.9,2.3,2.9,3.5l-1.4-0.2c1.1-0.7,2.2-1.5,3.3-2.3
				c1.1-0.8,2.1-1.6,3.2-2.5c1-0.9,2-1.7,3-2.7c1-0.9,2-1.8,2.9-2.8c1-1,1.9-1.9,2.8-2.9c0.9-1,1.8-2,2.7-3.1c0.9-1,1.7-2.1,2.6-3.2
				C92.9,48.1,93.7,47,94.5,46z M94.5,46c-0.7,1.2-1.4,2.3-2.2,3.5c-0.7,1.1-1.5,2.3-2.3,3.4c-0.8,1.1-1.6,2.2-2.5,3.3
				c-0.8,1.1-1.7,2.1-2.6,3.2c-0.9,1-1.8,2.1-2.8,3c-1,1-1.9,1.9-3,2.9c-2,1.9-4.2,3.6-6.4,5.2L72,70.9l-0.6-0.7
				c-1-1.2-2.1-2.3-3.1-3.5c-1-1.2-2-2.4-2.8-3.7c-0.4-0.6-0.9-1.3-1.3-1.9L63,59c-0.4-0.7-0.8-1.4-1.1-2.1c-0.3-0.7-0.7-1.4-1-2.1
				c-0.6-1.5-1.2-2.9-1.7-4.4c-0.5-1.5-0.9-3-1.3-4.5c-0.3-1.5-0.6-3.1-0.7-4.7l-0.1-1.2L57,38.9c0-0.8-0.1-1.6-0.1-2.4l0-2.4
				l0.1-2.3c0.1-1.6,0.3-3.1,0.5-4.7c0.1-0.8,0.3-1.5,0.4-2.3c0.1-0.8,0.3-1.5,0.5-2.3c0.4-1.5,0.8-3,1.3-4.5c0.5-1.5,1-3,1.6-4.4
				c0.6-1.5,1.2-2.9,1.9-4.3c0.7-1.4,1.4-2.8,2.2-4.1c0.8-1.4,1.6-2.7,2.5-4L68.9,0L70,1.1l2.3,2.3C73,4.2,73.8,5,74.5,5.8
				c0.8,0.8,1.5,1.6,2.2,2.4c0.7,0.8,1.5,1.6,2.2,2.5c0.7,0.8,1.4,1.7,2.1,2.5l2,2.6l1.9,2.7l1.8,2.7c0.6,0.9,1.2,1.9,1.7,2.8
				c0.6,0.9,1.1,1.9,1.6,2.9c0.5,1,0.9,2,1.4,3c0.4,1,0.8,2,1.2,3.1c0.3,1.1,0.7,2.1,0.9,3.2c0.3,1.1,0.5,2.1,0.7,3.2
				c0.1,0.5,0.2,1.1,0.2,1.6l0.1,1.6c0,0.5,0,1.1,0,1.6L94.5,46z"/>
		</g>
	</g>
	<g>
		<path d="M73.4,14.1c0,0,0.5,0.6,1.2,1.7c0.7,1.1,1.8,2.8,2.9,4.8c0.6,1,1.1,2.1,1.7,3.3c0.6,1.2,1.2,2.5,1.8,3.8
			c1.1,2.7,2.2,5.6,3,8.6c0.4,1.5,0.7,3,1,4.5c0.1,0.8,0.2,1.5,0.4,2.2c0.1,0.7,0.2,1.5,0.2,2.2c0.1,1.5,0.1,2.9,0.1,4.2
			c-0.1,1.3-0.2,2.6-0.4,3.8c-0.1,0.6-0.2,1.1-0.3,1.6c-0.1,0.5-0.3,1-0.4,1.5c-0.2,0.9-0.6,1.7-0.8,2.3c-0.3,0.6-0.5,1.1-0.6,1.4
			c-0.2,0.3-0.2,0.5-0.2,0.5s0.3-0.7,0.7-2c0.2-0.7,0.4-1.4,0.6-2.3c0.1-0.5,0.2-0.9,0.3-1.5c0.1-0.5,0.1-1.1,0.2-1.6
			c0.1-1.1,0.2-2.4,0.2-3.7c0-1.3-0.1-2.7-0.2-4.1c-0.1-0.7-0.2-1.4-0.3-2.2c-0.1-0.7-0.2-1.5-0.4-2.2c-0.3-1.5-0.6-3-1.1-4.4
			c-0.8-3-1.8-5.9-2.9-8.5c-1.1-2.7-2.2-5.1-3.2-7.2C75,16.7,73.4,14.1,73.4,14.1z"/>
	</g>
</g>
<g>
	<g>
		<path class="st0" d="M148.4,74.2c13.1-2.8,29.3,5.4,47.1,18.9c0,0-31.9,30.9-67.2,6.6C132.3,91.4,138.7,82.9,148.4,74.2z"/>
		<g>
			<path d="M148.4,74.2l1.6-0.3c0.5-0.1,1.1-0.2,1.6-0.3l1.6-0.2c0.5,0,1.1,0,1.6,0c1.1,0,2.2,0.1,3.3,0.2c1.1,0.1,2.2,0.3,3.3,0.5
				c1.1,0.2,2.1,0.5,3.2,0.7c1,0.3,2.1,0.6,3.2,1c1,0.4,2.1,0.7,3.1,1.2c1,0.4,2,0.8,3,1.3l3,1.4l2.9,1.5l2.9,1.6
				c0.9,0.6,1.9,1.1,2.8,1.7c0.9,0.6,1.8,1.2,2.8,1.8c0.9,0.6,1.8,1.2,2.7,1.8c0.9,0.6,1.8,1.2,2.7,1.9l2.6,1.9l1.3,0.9l-1.1,1.1
				c-1.2,1.1-2.4,2.1-3.6,3.1c-1.2,1-2.5,1.9-3.8,2.8c-1.3,0.9-2.6,1.7-4,2.5c-1.3,0.8-2.7,1.5-4.1,2.2c-1.4,0.7-2.8,1.3-4.3,1.9
				c-0.7,0.3-1.4,0.6-2.2,0.8c-0.7,0.3-1.5,0.5-2.2,0.7c-1.5,0.5-3,0.8-4.5,1.2l-2.3,0.5l-2.3,0.3c-0.8,0.1-1.6,0.2-2.3,0.2
				l-1.2,0.1l-1.2,0c-1.6,0.1-3.1,0-4.7-0.1c-1.6-0.2-3.1-0.3-4.7-0.6c-1.6-0.2-3.1-0.6-4.6-1c-0.8-0.2-1.5-0.5-2.2-0.7
				c-0.7-0.2-1.5-0.5-2.2-0.8l-2.2-0.9c-0.7-0.3-1.4-0.7-2.1-1c-1.4-0.6-2.7-1.5-4.1-2.2c-1.3-0.8-2.6-1.7-3.9-2.6l-0.8-0.5l0.4-0.8
				c1.2-2.5,2.7-4.8,4.2-7.1c0.8-1.1,1.6-2.3,2.4-3.3c0.8-1.1,1.7-2.1,2.6-3.2c0.9-1,1.8-2.1,2.8-3c0.9-1,1.9-2,2.9-2.9
				c1-1,2-1.9,3-2.8C146.3,76,147.3,75.1,148.4,74.2z M148.4,74.2c-1,1-1.9,1.9-2.9,2.9c-0.9,1-1.9,2-2.8,3c-0.9,1-1.8,2-2.7,3.1
				c-0.9,1-1.7,2.1-2.5,3.2c-0.8,1.1-1.6,2.2-2.4,3.3c-0.8,1.1-1.5,2.2-2.2,3.4c-0.7,1.1-1.4,2.3-2,3.5c-0.6,1.2-1.2,2.4-1.8,3.6
				l-0.4-1.3c1.3,0.8,2.5,1.6,3.8,2.3c1.3,0.7,2.6,1.4,4,2c0.7,0.3,1.4,0.6,2,0.9l2.1,0.8c0.7,0.3,1.4,0.5,2.1,0.7
				c0.7,0.2,1.4,0.4,2.1,0.6c1.4,0.3,2.9,0.7,4.4,0.9c1.5,0.3,2.9,0.3,4.4,0.5c1.5,0,3,0.1,4.4,0l1.1,0l1.1-0.1
				c0.7-0.1,1.5-0.1,2.2-0.2l2.2-0.3l2.2-0.4c1.4-0.3,2.9-0.7,4.3-1.2c0.7-0.2,1.4-0.5,2.1-0.7c0.7-0.2,1.4-0.5,2.1-0.8
				c1.4-0.5,2.7-1.1,4.1-1.8c1.3-0.6,2.7-1.3,4-2.1c1.3-0.7,2.6-1.5,3.8-2.3c1.2-0.8,2.5-1.7,3.7-2.6c1.2-0.9,2.4-1.8,3.4-2.8l0.1,2
				l-2.6-2c-0.9-0.7-1.7-1.3-2.6-1.9c-0.9-0.6-1.7-1.3-2.6-1.9c-0.9-0.6-1.8-1.3-2.7-1.8c-0.9-0.6-1.8-1.2-2.7-1.8l-2.7-1.7
				l-2.8-1.6l-2.8-1.5c-1-0.5-1.9-0.9-2.9-1.4c-1-0.5-2-0.8-3-1.3c-1-0.4-2-0.8-3-1.2c-1-0.3-2-0.6-3.1-0.9c-1-0.2-2.1-0.5-3.1-0.7
				c-1.1-0.2-2.1-0.4-3.2-0.4c-0.5,0-1.1-0.1-1.6-0.1l-1.6,0c-0.5,0-1.1,0-1.6,0.1L148.4,74.2z"/>
		</g>
	</g>
	<g>
		<path d="M183,90.5c0,0-2.9-1.2-7.2-2.6c-2.2-0.7-4.8-1.4-7.6-2.1c-2.8-0.7-5.8-1.3-8.8-1.6c-1.5-0.2-3-0.3-4.5-0.4
			c-0.8,0-1.5,0-2.2-0.1c-0.7,0-1.5,0-2.2,0c-1.4,0.1-2.8,0.2-4.1,0.4c-1.3,0.2-2.5,0.4-3.6,0.7c-0.6,0.2-1.1,0.3-1.6,0.5
			c-0.5,0.2-1,0.3-1.4,0.5c-0.9,0.3-1.6,0.7-2.2,0.9c-1.2,0.6-1.9,1-1.9,1s0.2-0.1,0.5-0.3c0.3-0.2,0.7-0.5,1.3-0.8
			c0.6-0.3,1.3-0.7,2.2-1.1c0.4-0.2,0.9-0.4,1.4-0.6c0.5-0.2,1-0.4,1.6-0.5c1.1-0.3,2.3-0.6,3.7-0.9c1.3-0.2,2.7-0.4,4.2-0.5
			c0.7,0,1.5-0.1,2.2-0.1c0.7,0,1.5,0,2.3,0c1.5,0.1,3.1,0.2,4.6,0.4c3.1,0.4,6.1,1,8.9,1.8c1.4,0.4,2.7,0.8,4,1.2
			c1.3,0.4,2.4,0.8,3.5,1.2c2.2,0.8,3.9,1.6,5.2,2.2C182.3,90.2,183,90.5,183,90.5z"/>
	</g>
</g>
<g>
	<circle class="st1" cx="109.6" cy="59.3" r="41.4"/>
	<g>
		<path d="M145.9,79.2c0,0-0.5,0.9-1.5,2.5c-0.3,0.4-0.5,0.9-0.9,1.3c-0.4,0.5-0.7,1-1.2,1.5c-0.4,0.5-0.8,1.2-1.4,1.8
			c-0.5,0.6-1.1,1.2-1.7,1.8c-2.5,2.5-5.8,5.4-10.1,7.8c-4.3,2.4-9.7,4.3-15.8,4.9c-6.1,0.6-12.9-0.1-19.5-2.6
			c-0.8-0.3-1.6-0.7-2.4-1.1l-1.2-0.6l-0.6-0.3c-0.3-0.1-0.4-0.2-0.6-0.4c-1.5-0.9-3.1-1.7-4.6-2.9c-3.1-2.2-5.8-4.9-8.3-7.9
			c-0.6-0.8-1.2-1.6-1.8-2.4c-0.6-0.8-1-1.7-1.6-2.5l-0.8-1.3c-0.2-0.4-0.4-0.9-0.7-1.3c-0.4-0.9-0.9-1.8-1.3-2.7
			c-1.5-3.7-2.4-7.8-2.9-11.9c-0.4-4.1-0.1-8.3,0.7-12.4c0.9-4.1,2.4-8.1,4.3-11.8l1.6-2.7c0.5-0.9,1.2-1.7,1.8-2.6l1-1.3l0.5-0.6
			l0.5-0.6l2.2-2.3c3-2.9,6.4-5.4,10.1-7.3c3.7-1.8,7.6-3.2,11.6-4c1-0.2,2-0.3,3-0.4c0.5-0.1,1-0.1,1.5-0.2l1.5,0c1,0,2-0.1,3,0
			c1,0.1,2,0.1,2.9,0.2c3.9,0.5,7.7,1.2,11.1,2.7c1.8,0.6,3.4,1.5,5,2.3c0.2,0.1,0.4,0.2,0.6,0.3l0.6,0.4l1.1,0.7
			c0.7,0.5,1.5,0.9,2.2,1.5c5.8,4.3,10,9.6,12.8,15.1c2.7,5.5,4,11.1,4.4,16c0.4,5-0.3,9.3-1.1,12.7c-0.2,0.9-0.4,1.7-0.6,2.4
			c-0.2,0.8-0.5,1.4-0.7,2.1c-0.2,0.6-0.5,1.2-0.7,1.8c-0.2,0.5-0.5,1-0.7,1.4C146.3,78.3,145.9,79.2,145.9,79.2z M145.9,79.2
			c0,0,0.4-0.9,1.3-2.6c0.2-0.4,0.5-0.9,0.7-1.4c0.2-0.5,0.4-1.2,0.6-1.8c0.2-0.7,0.5-1.3,0.7-2.1c0.2-0.8,0.4-1.6,0.6-2.4
			c0.8-3.4,1.4-7.8,0.9-12.7c-0.5-4.9-1.8-10.4-4.7-15.7C143,35.1,138.6,30,133,26.1c-0.7-0.5-1.5-0.9-2.2-1.4l-1.1-0.7l-0.6-0.3
			l-0.6-0.3c-1.6-0.7-3.2-1.6-4.9-2.1c-3.4-1.3-7-1.9-10.7-2.2c-0.9,0-1.9-0.1-2.8-0.1c-0.9,0-1.9,0.1-2.8,0.1l-1.4,0.1l-1.4,0.2
			c-0.9,0.2-1.9,0.3-2.8,0.5C98,20.8,94.4,22.2,91,24c-3.4,1.9-6.5,4.2-9.3,6.9l-2,2.1l-0.5,0.5l-0.4,0.6l-0.9,1.1L77,36.4
			c-0.3,0.4-0.5,0.8-0.8,1.3l-1.5,2.5c-1.8,3.5-3.3,7.1-4.1,11c-0.2,1-0.3,1.9-0.5,2.9c-0.1,0.5-0.2,1-0.2,1.4L69.8,57l-0.1,1.5
			c0,0.5-0.1,1,0,1.5c0,1,0.1,1.9,0.1,2.9c0.4,3.8,1.2,7.6,2.5,11.2c0.3,0.9,0.7,1.7,1.1,2.6l0.6,1.3l0.7,1.2
			c0.5,0.8,0.9,1.7,1.4,2.4c0.5,0.8,1.1,1.5,1.6,2.3c2.2,2.9,4.8,5.7,7.6,7.8c1.3,1.2,2.9,2.1,4.4,3c0.2,0.1,0.4,0.3,0.5,0.3
			l0.6,0.3l1.2,0.6c0.8,0.4,1.5,0.8,2.3,1.1c6.3,2.7,13,3.6,19,3.2c6-0.4,11.4-2.3,15.8-4.5c4.4-2.2,7.7-5.1,10.2-7.6
			c0.6-0.6,1.2-1.3,1.7-1.8c0.5-0.6,0.9-1.2,1.4-1.7c0.4-0.5,0.8-1.1,1.2-1.5c0.4-0.5,0.6-0.9,0.9-1.3
			C145.3,80,145.9,79.2,145.9,79.2z"/>
	</g>
</g>
<g>
	<path class="st1" d="M117.6,31.1c0,0,10.5,6.5,12.1,9.2c0,0-5.6,2-8,7.1s-5.2,9.5-5.2,13.3c0,0-7.8-3.3-16.1-3.9
		c-8.2-0.6-14.3,2.1-14.3,2.1s1.2-9.7,1.3-15.7c0.1-6-0.9-10.8-0.9-10.8s5.3-0.3,12.9-2.8c7.6-2.5,11.7-8,11.7-8
		S112.1,27.4,117.6,31.1z"/>
	<g>
		<path d="M117.6,31.1c2.2,1.3,4.3,2.7,6.4,4.2c1,0.7,2.1,1.5,3.1,2.3c0.5,0.4,1,0.8,1.5,1.2c0.2,0.2,0.5,0.4,0.7,0.7
			c0.2,0.2,0.4,0.5,0.6,0.8l0.1,0.1l-0.1,0.1c-1.9,0.8-3.7,2-5.2,3.5c-0.4,0.4-0.7,0.8-1,1.2c-0.3,0.4-0.6,0.8-0.9,1.3
			c-0.3,0.4-0.5,0.9-0.7,1.4l-0.7,1.4c-0.9,1.9-1.9,3.8-2.7,5.7c-0.8,1.9-1.5,3.9-1.5,5.9l0,0.9l-0.9-0.3c-2.4-0.9-4.9-1.6-7.4-2.2
			c-1.2-0.3-2.5-0.5-3.8-0.8c-1.3-0.2-2.5-0.4-3.8-0.5c-0.6-0.1-1.2-0.1-1.9-0.1c-0.7,0-1.3,0-1.9,0c-0.6,0-1.3,0-1.9,0.1
			c-0.6,0-1.3,0.1-1.9,0.2c-1.2,0.2-2.5,0.4-3.7,0.7c-0.6,0.2-1.2,0.3-1.8,0.5c-0.6,0.2-1.2,0.4-1.7,0.6l-1.6,0.7l0.2-1.7
			c0.3-2.2,0.5-4.4,0.7-6.6c0.2-2.2,0.4-4.4,0.6-6.6l0.1-1.6l0.1-1.6c0-1.1,0-2.2,0-3.3c0-1.1-0.1-2.2-0.2-3.3
			c-0.1-1.1-0.2-2.2-0.4-3.2l-0.1-0.7l0.7,0c1.1-0.1,2.3-0.2,3.4-0.3c1.1-0.2,2.3-0.4,3.4-0.6c1.1-0.2,2.2-0.5,3.3-0.8l1.7-0.5
			c0.6-0.2,1.1-0.3,1.6-0.5c1.1-0.3,2.1-0.8,3.2-1.3c1-0.5,2-1.1,3-1.7c0.5-0.3,0.9-0.7,1.4-1c0.5-0.4,0.9-0.7,1.3-1.1
			c0.9-0.8,1.7-1.6,2.4-2.5l0.1-0.1l0,0.2c0.2,1,0.4,1.9,0.8,2.8c0.4,0.9,0.8,1.8,1.4,2.6c0.5,0.8,1.2,1.6,1.9,2.3
			c0.3,0.4,0.7,0.7,1.1,1C116.8,30.5,117.2,30.8,117.6,31.1z M117.6,31.1c-0.4-0.3-0.8-0.6-1.2-0.9c-0.4-0.3-0.8-0.6-1.1-1
			c-0.7-0.7-1.3-1.5-1.9-2.3c-0.6-0.8-1-1.7-1.4-2.6c-0.4-0.9-0.7-1.8-0.9-2.8l0.1,0c-1.4,1.8-3.2,3.4-5,4.7
			c-0.9,0.7-1.9,1.3-2.9,1.9c-1,0.5-2.1,1.1-3.2,1.5c-0.5,0.2-1.1,0.4-1.6,0.6l-1.7,0.5c-1.1,0.3-2.2,0.6-3.4,0.9
			c-1.1,0.3-2.3,0.5-3.4,0.7c-1.2,0.2-2.3,0.4-3.5,0.5l0.6-0.7c0.2,1.1,0.4,2.2,0.6,3.3c0.2,1.1,0.3,2.2,0.4,3.4
			c0.1,1.1,0.1,2.3,0.2,3.4c0,0.5,0,1.1,0,1.7l0,1.7c-0.2,4.5-0.6,8.9-1.1,13.3l-1.4-1c0.7-0.3,1.3-0.5,1.9-0.7
			c0.6-0.2,1.3-0.4,1.9-0.5c1.3-0.3,2.6-0.5,3.9-0.7c0.7-0.1,1.3-0.1,2-0.2c0.7-0.1,1.3-0.1,2-0.1c0.7,0,1.4,0,2,0.1
			c0.6,0,1.3,0.1,2,0.2c2.6,0.3,5.2,0.8,7.7,1.5c2.5,0.7,5,1.6,7.4,2.6l-0.9,0.6c0.1-2.3,0.9-4.4,1.8-6.3c0.9-1.9,2-3.8,2.9-5.6
			l0.7-1.4c0.3-0.5,0.5-1,0.8-1.4c0.3-0.5,0.6-0.9,1-1.3c0.4-0.4,0.7-0.8,1.1-1.2c0.4-0.4,0.8-0.7,1.2-1c0.4-0.3,0.9-0.6,1.3-0.9
			c0.9-0.6,1.8-1.1,2.9-1.4l-0.1,0.2c-0.2-0.2-0.3-0.5-0.6-0.7c-0.2-0.2-0.4-0.5-0.7-0.7c-0.4-0.4-0.9-0.9-1.4-1.3
			c-1-0.8-2-1.6-3-2.3C121.9,33.8,119.8,32.4,117.6,31.1z"/>
	</g>
</g>
<g>
	<g>
		<path d="M123.1,38.7c0,0,0.1,0.4,0.2,1.1c0.1,0.7,0.1,1.8-0.1,3.2c-0.2,1.4-0.8,3-1.7,4.7c-1,1.7-2.4,3.4-4.3,5
			c-1.9,1.5-4.2,2.9-6.9,3.8c-0.7,0.2-1.3,0.4-2.1,0.6c-0.7,0.1-1.3,0.3-2.1,0.4c-0.8,0.1-1.5,0.2-2.3,0.2c-0.8,0.1-1.5,0.1-2.3,0
			c-1.6-0.1-3.2-0.3-4.7-0.8c-1.6-0.4-3.1-1.1-4.6-2.1c-0.7-0.4-1.4-1-2.1-1.5l-0.9-0.9c-0.3-0.3-0.6-0.7-0.8-1
			c-0.3-0.3-0.5-0.7-0.7-1.1c-0.2-0.4-0.5-0.8-0.6-1.2c-0.2-0.4-0.4-0.8-0.5-1.2l-0.2-0.6l-0.1-0.3l0-0.2l0-0.1l0,0
			c0-0.1,0,0.1,0-0.1L86,45.5c-0.1-0.4,0-0.9-0.1-1.4c0-0.5,0-0.9,0.1-1.4c0-0.4,0.1-0.9,0.2-1.3c0.1-0.4,0.2-0.9,0.3-1.3l0.4-1.2
			c0.4-0.8,0.8-1.6,1.2-2.3c1.8-2.9,4.5-5,7.3-6.4c2.8-1.4,5.8-2.2,8.5-2.4c2.9-0.2,5.5,0,7.9,0.7c2.3,0.6,4.4,1.6,6,2.7
			c1.6,1.2,2.7,2.4,3.5,3.6c0.7,1.2,1.2,2.2,1.4,2.9C123,38.3,123.1,38.7,123.1,38.7z M123.1,38.7c0,0-0.1-0.4-0.3-1.1
			c-0.2-0.7-0.7-1.7-1.4-2.9c-0.8-1.1-2-2.4-3.6-3.4c-1.6-1-3.6-1.9-6-2.3c-2.3-0.4-4.9-0.5-7.5,0c-2.7,0.5-5.3,1.5-7.7,3
			c-1.2,0.8-2.4,1.6-3.4,2.7c-1,1-1.9,2.1-2.6,3.4c-0.7,1.2-1.3,2.6-1.5,3.9C89,42.3,89,42.7,89,43c0,0.3-0.1,0.7,0,1l0,0.5
			c0,0.2,0,0.3,0,0.5l0.2,1.2c0-0.2,0,0,0-0.1l0,0l0,0.1l0,0.1l0.1,0.2l0.1,0.5c0.1,0.3,0.3,0.6,0.4,1c0.1,0.3,0.3,0.6,0.5,0.9
			c0.2,0.3,0.3,0.6,0.6,0.9c0.8,1.1,1.8,2.1,3,3c1.2,0.8,2.5,1.5,3.8,2c1.3,0.5,2.8,0.8,4.2,1c0.7,0.1,1.4,0.2,2.1,0.2
			c0.7,0,1.4,0,2.1,0c0.7,0,1.4-0.2,2.1-0.2c0.6-0.1,1.3-0.3,2-0.4c2.6-0.6,4.9-1.7,6.8-3.1c1.9-1.3,3.4-3,4.5-4.6
			c1.1-1.6,1.6-3.2,1.9-4.6c0.2-1.4,0.2-2.5,0.1-3.2C123.2,39.1,123.1,38.7,123.1,38.7z"/>
	</g>
</g>
<g>
	<path d="M91.9,45.5c0,0,0-0.1-0.1-0.4c-0.1-0.3-0.2-0.7-0.3-1.2c-0.1-0.5-0.1-1.2,0-2c0.1-0.8,0.3-1.6,0.6-2.5
		c0.3-0.9,0.9-1.8,1.5-2.7c0.7-0.9,1.5-1.7,2.4-2.5c0.9-0.7,2-1.4,3.1-1.9c1.2-0.6,2.3-0.9,3.6-1.2c0.6-0.1,1.2-0.2,1.8-0.3
		c0.7-0.1,1.3-0.1,1.9-0.1c1.3,0,2.5,0.2,3.7,0.5c1.2,0.3,2.3,0.7,3.2,1.2c1,0.5,1.8,1.1,2.5,1.8c0.7,0.6,1.2,1.4,1.6,2
		c0.4,0.7,0.7,1.3,0.8,1.8c0.2,0.5,0.2,0.9,0.3,1.2c0,0.3,0.1,0.4,0.1,0.4s-0.1-0.1-0.2-0.4c-0.1-0.3-0.3-0.6-0.5-1.1
		c-0.2-0.5-0.6-1-1.1-1.5c-0.5-0.5-1-1.1-1.7-1.6c-0.7-0.5-1.5-0.9-2.4-1.3c-0.9-0.3-1.9-0.7-3-0.9c-0.5-0.1-1.1-0.1-1.6-0.2
		c-0.6,0-1.1-0.1-1.7,0c-0.6,0-1.1,0-1.7,0.1c-0.5,0-1.2,0.2-1.8,0.3c-1,0.3-2.2,0.6-3.2,1c-0.5,0.2-1,0.5-1.5,0.7
		c-0.5,0.3-1,0.5-1.4,0.9c-0.9,0.6-1.7,1.3-2.3,2c-0.6,0.7-1.2,1.5-1.6,2.2c-0.4,0.7-0.7,1.5-0.9,2.2c-0.2,0.7-0.3,1.3-0.3,1.8
		c-0.1,0.5,0,0.9,0,1.2C91.9,45.3,91.9,45.5,91.9,45.5z"/>
</g>
<g>
	<path d="M116.2,40.2c0,0,0,0.1,0.1,0.3c0,0.2,0.2,0.6,0.2,1c0.1,0.4,0,1,0,1.6c-0.1,0.6-0.2,1.3-0.5,2c-0.3,0.7-0.7,1.4-1.2,2.2
		c-0.5,0.7-1.1,1.4-1.9,2c-0.7,0.6-1.6,1.2-2.5,1.6c-0.9,0.5-1.9,0.7-2.9,1c-0.9,0.2-2,0.3-3,0.3c-1,0-2-0.1-2.9-0.4
		c-0.9-0.2-1.8-0.6-2.6-1c-0.8-0.5-1.4-0.9-2-1.5c-0.6-0.5-1-1.1-1.3-1.6c-0.3-0.5-0.5-1-0.7-1.4c-0.2-0.4-0.2-0.8-0.3-1
		c0-0.2-0.1-0.3-0.1-0.3s0,0.1,0.1,0.3c0.1,0.2,0.2,0.5,0.4,0.9c0.4,0.8,1.1,1.8,2.2,2.7c0.5,0.5,1.2,0.9,1.9,1.2
		c0.8,0.3,1.6,0.6,2.4,0.8c0.4,0.1,0.9,0.1,1.3,0.2c0.5,0,0.9,0.1,1.4,0.1c0.9,0,1.8-0.1,2.8-0.3c0.9-0.2,1.8-0.5,2.7-0.9
		c0.4-0.2,0.8-0.4,1.2-0.6c0.4-0.3,0.8-0.5,1.1-0.8c0.7-0.5,1.3-1.1,1.9-1.7c0.5-0.6,1-1.3,1.3-1.9c0.6-1.3,0.9-2.5,0.9-3.4
		c0-0.4,0-0.8,0-1C116.2,40.3,116.2,40.2,116.2,40.2z"/>
</g>
<g>
	<circle class="st1" cx="42.8" cy="90.2" r="41.4"/>
	<g>
		<path d="M84.2,90.2c0,0,0,1-0.1,2.9c0,0.5,0,1-0.1,1.6c-0.1,0.6-0.2,1.2-0.3,1.9c-0.1,0.7-0.2,1.4-0.4,2.2
			c-0.2,0.8-0.4,1.6-0.6,2.4c-1,3.4-2.5,7.5-5.2,11.7c-2.7,4.2-6.5,8.4-11.5,11.9c-5,3.5-11.4,6.1-18.4,7.1
			c-0.9,0.2-1.8,0.1-2.7,0.2l-1.4,0.1l-0.7,0c-0.3,0-0.5,0-0.7,0c-1.8-0.1-3.6,0-5.5-0.4c-3.8-0.4-7.4-1.5-11.1-3
			c-0.9-0.4-1.8-0.8-2.7-1.2c-0.9-0.4-1.7-1-2.6-1.5l-1.3-0.8c-0.4-0.3-0.8-0.6-1.2-0.9c-0.8-0.6-1.6-1.1-2.4-1.8
			c-3.1-2.6-5.9-5.6-8.2-9c-2.3-3.4-4.1-7.2-5.4-11.2l-0.8-3l-0.2-0.8L0.8,98l-0.2-1.6c-0.2-1-0.3-2.1-0.4-3.1L0,90.1
			c0.1-4,0.7-8.4,1.9-12.3c1.3-4,3.1-7.8,5.4-11.2c2.4-3.4,5.1-6.4,8.2-9c0.8-0.6,1.6-1.2,2.4-1.8c0.4-0.3,0.8-0.6,1.2-0.9l1.3-0.8
			c0.9-0.5,1.7-1,2.6-1.5c0.9-0.4,1.8-0.8,2.7-1.2c3.6-1.5,7.3-2.6,11-3c1.8-0.3,3.7-0.3,5.5-0.4c0.2,0,0.4,0,0.7,0l0.7,0l1.3,0.1
			c0.9,0.1,1.8,0.1,2.6,0.2c7.1,1,13.4,3.6,18.4,7.1c5,3.5,8.8,7.8,11.5,11.9c2.7,4.2,4.2,8.3,5.2,11.7c0.2,0.9,0.4,1.7,0.6,2.4
			c0.2,0.8,0.2,1.5,0.4,2.2c0.1,0.7,0.2,1.3,0.3,1.9c0.1,0.6,0.1,1.1,0.1,1.6C84.2,89.1,84.2,90.2,84.2,90.2z M84.2,90.2
			c0,0-0.1-1-0.2-2.9c0-0.5,0-1-0.1-1.6c-0.1-0.6-0.2-1.2-0.3-1.9c-0.1-0.7-0.2-1.4-0.4-2.2c-0.2-0.8-0.4-1.6-0.6-2.4
			c-1-3.4-2.5-7.5-5.3-11.6c-2.8-4.1-6.6-8.3-11.7-11.5c-5.1-3.2-11.4-5.6-18.1-6.3c-0.8-0.1-1.7-0.1-2.6-0.1l-1.3,0l-0.7,0l-0.6,0
			c-1.8,0.1-3.5,0.2-5.3,0.5c-3.6,0.5-7.1,1.7-10.4,3.2c-0.8,0.4-1.7,0.8-2.5,1.3c-0.8,0.4-1.6,1-2.4,1.5l-1.2,0.8l-1.1,0.9
			c-0.7,0.6-1.5,1.1-2.2,1.8c-2.9,2.5-5.4,5.4-7.5,8.6c-2.1,3.3-3.7,6.8-4.9,10.5C3.6,82.4,3.1,86.1,3,90.2l0.1,2.9
			c0,1,0.2,1.9,0.3,2.9l0.2,1.4l0.1,0.7L4,98.9l0.7,2.8c0.3,0.9,0.6,1.8,1,2.8c0.2,0.5,0.3,0.9,0.5,1.4l0.6,1.3l0.6,1.3
			c0.2,0.4,0.4,0.9,0.7,1.3l1.5,2.5c2.2,3.2,4.7,6.1,7.5,8.6c0.7,0.6,1.5,1.2,2.2,1.8l1.1,0.9l1.2,0.8c0.8,0.5,1.6,1,2.4,1.5
			c0.8,0.4,1.7,0.8,2.5,1.3c3.4,1.5,6.9,2.7,10.4,3.2c1.7,0.4,3.6,0.4,5.3,0.5c0.2,0,0.5,0,0.6,0l0.7,0l1.3,0c0.9,0,1.7,0,2.6-0.1
			c6.8-0.7,13.1-3.1,18.2-6.3c5.1-3.3,8.9-7.5,11.7-11.5c2.8-4.1,4.3-8.2,5.3-11.6c0.2-0.9,0.4-1.7,0.6-2.4c0.2-0.8,0.2-1.5,0.4-2.2
			c0.1-0.7,0.2-1.3,0.3-1.9c0.1-0.6,0.1-1.1,0.1-1.6C84.1,91.2,84.2,90.2,84.2,90.2z"/>
	</g>
</g>
<g>
	<path class="st1" d="M36.3,61.5c0,0,12.3,0.7,15,2.3c0,0-3.9,4.4-3.6,10.1c0.3,5.7,0,10.8,1.8,14.2c0,0-8.4,0.9-16,4.3
		S22,100.9,22,100.9s-3.6-9.1-6.4-14.4s-5.9-9-5.9-9s4.6-2.8,10-8.6s6.5-12.7,6.5-12.7S29.7,60.9,36.3,61.5z"/>
	<g>
		<path d="M36.3,61.5c2.5,0.1,5.1,0.3,7.6,0.6c1.3,0.2,2.5,0.3,3.8,0.5c0.6,0.1,1.3,0.2,1.9,0.4c0.3,0.1,0.6,0.2,0.9,0.3
			c0.3,0.1,0.6,0.2,0.9,0.4l0.1,0.1l-0.1,0.1c-1.3,1.6-2.3,3.5-2.9,5.5c-0.2,0.5-0.3,1-0.4,1.5c-0.1,0.5-0.1,1-0.2,1.5
			c0,0.5,0,1,0,1.5l0.1,1.6c0.1,2.1,0.2,4.2,0.4,6.3c0.2,2.1,0.6,4.2,1.5,5.9l0.5,0.8l-0.9,0.1c-2.5,0.4-5,0.9-7.5,1.6
			c-1.2,0.4-2.5,0.7-3.7,1.1c-1.2,0.4-2.4,0.9-3.6,1.4c-0.6,0.3-1.1,0.5-1.7,0.8c-0.6,0.3-1.1,0.6-1.7,0.9c-0.5,0.3-1.1,0.6-1.6,1
			c-0.5,0.3-1,0.7-1.6,1.1c-1,0.7-2,1.5-2.9,2.4c-0.5,0.4-0.9,0.9-1.3,1.3c-0.4,0.4-0.9,0.9-1.2,1.4l-1.1,1.4l-0.6-1.6
			c-0.8-2.1-1.6-4.1-2.5-6.1c-0.9-2-1.7-4.1-2.6-6.1l-0.7-1.5l-0.7-1.5c-0.5-1-1-1.9-1.6-2.9c-0.6-0.9-1.2-1.9-1.8-2.8
			c-0.6-0.9-1.3-1.8-1.9-2.6l-0.4-0.6l0.6-0.4c0.9-0.6,1.9-1.2,2.8-1.9c0.9-0.7,1.8-1.4,2.7-2.1c0.9-0.7,1.7-1.5,2.6-2.3l1.2-1.2
			c0.4-0.4,0.8-0.8,1.2-1.2c0.8-0.8,1.5-1.7,2.2-2.6c0.7-0.9,1.3-1.9,1.8-2.9c0.3-0.5,0.5-1,0.7-1.6c0.2-0.5,0.4-1.1,0.6-1.6
			c0.4-1.1,0.7-2.2,0.9-3.3l0-0.2l0.1,0.1c0.6,0.8,1.3,1.5,2.1,2.1c0.8,0.6,1.6,1.2,2.4,1.6c0.9,0.5,1.8,0.8,2.7,1.1
			c0.5,0.2,0.9,0.2,1.4,0.3C35.4,61.4,35.8,61.4,36.3,61.5z M36.3,61.5c-0.5-0.1-1-0.1-1.5-0.2c-0.5-0.1-1-0.2-1.4-0.3
			c-0.9-0.3-1.9-0.6-2.7-1.1c-0.9-0.4-1.7-1-2.5-1.6c-0.8-0.6-1.5-1.3-2.1-2.1l0.1,0c-0.4,2.3-1.2,4.5-2.2,6.6
			c-0.5,1.1-1.1,2.1-1.7,3c-0.6,1-1.3,1.9-2.1,2.8c-0.4,0.4-0.8,0.9-1.2,1.3l-1.2,1.3c-0.8,0.8-1.6,1.6-2.5,2.4
			c-0.9,0.8-1.7,1.5-2.6,2.3C11.9,76.6,11,77.3,10,78l0.1-0.9c0.8,0.9,1.4,1.7,2.1,2.6c0.7,0.9,1.3,1.8,1.9,2.8
			c0.6,0.9,1.2,1.9,1.8,2.9c0.3,0.5,0.5,1,0.8,1.5l0.8,1.5c2,4,3.7,8.1,5.4,12.2l-1.7-0.2c0.5-0.6,0.9-1.1,1.4-1.5
			c0.5-0.5,0.9-1,1.4-1.4c1-0.9,2-1.7,3.1-2.5c0.5-0.4,1.1-0.8,1.7-1.1c0.6-0.4,1.1-0.7,1.7-1c0.6-0.3,1.2-0.6,1.8-0.9
			c0.6-0.3,1.2-0.6,1.8-0.8c2.5-1,5-1.8,7.5-2.4c2.6-0.6,5.1-1,7.8-1.3l-0.5,0.9c-1-2.1-1.3-4.3-1.4-6.4c-0.1-2.1-0.1-4.3-0.1-6.4
			l0-1.6c0-0.5,0-1.1,0.1-1.6c0-0.5,0.1-1.1,0.2-1.6c0.1-0.5,0.3-1,0.4-1.6c0.2-0.5,0.4-1,0.6-1.5c0.2-0.5,0.5-1,0.7-1.4
			c0.5-0.9,1.1-1.8,1.8-2.6l0,0.2c-0.3-0.1-0.5-0.3-0.8-0.4c-0.3-0.1-0.6-0.2-0.9-0.3c-0.6-0.2-1.2-0.3-1.8-0.4
			c-1.2-0.2-2.5-0.4-3.8-0.6C41.4,61.9,38.9,61.6,36.3,61.5z"/>
	</g>
</g>
<g>
	<g>
		<path d="M44.8,65.6c0,0,0.2,0.3,0.7,0.9c0.4,0.6,1,1.6,1.5,2.9c0.5,1.3,0.8,3,0.7,5c0,2-0.5,4.2-1.4,6.4c-0.9,2.3-2.3,4.6-4.2,6.7
			c-0.5,0.5-1,1-1.5,1.5c-0.5,0.5-1,1-1.6,1.4c-0.6,0.5-1.2,0.9-1.9,1.3c-0.6,0.4-1.3,0.8-2,1.1c-1.4,0.7-2.9,1.3-4.5,1.6
			c-1.6,0.4-3.3,0.5-5,0.4c-0.9,0-1.7-0.2-2.6-0.4L21.8,94c-0.4-0.1-0.8-0.3-1.2-0.5c-0.4-0.2-0.8-0.4-1.2-0.6
			c-0.4-0.2-0.8-0.5-1.1-0.7c-0.3-0.3-0.7-0.5-1-0.9l-0.5-0.5l-0.2-0.2l-0.1-0.1l-0.1-0.1l0,0c0,0,0,0.1-0.1-0.1l-0.7-1
			c-0.2-0.3-0.5-0.8-0.7-1.2c-0.3-0.4-0.4-0.8-0.6-1.2c-0.2-0.4-0.3-0.8-0.4-1.3c-0.1-0.4-0.3-0.9-0.3-1.3L13.2,83
			c0-0.9-0.1-1.7,0-2.6c0.2-3.4,1.6-6.6,3.3-9.1c1.8-2.6,4-4.7,6.3-6.2c2.4-1.6,4.8-2.6,7.2-3.2c2.4-0.6,4.6-0.7,6.6-0.4
			c1.9,0.3,3.6,0.8,4.8,1.4c1.2,0.7,2.1,1.4,2.6,1.9C44.6,65.3,44.8,65.6,44.8,65.6z M44.8,65.6c0,0-0.3-0.3-0.8-0.8
			c-0.5-0.5-1.4-1.2-2.6-1.8c-1.2-0.6-2.9-1.1-4.8-1.3c-1.9-0.1-4.1,0.1-6.3,0.8c-2.2,0.7-4.5,2-6.6,3.6c-2.1,1.7-3.9,3.8-5.3,6.3
			c-0.7,1.2-1.3,2.6-1.7,3.9c-0.4,1.4-0.7,2.8-0.7,4.2c0,1.4,0.1,2.9,0.6,4.2c0.1,0.3,0.2,0.7,0.4,1c0.1,0.3,0.3,0.6,0.4,0.9
			l0.2,0.4c0.1,0.1,0.2,0.3,0.3,0.4l0.7,0.9c-0.1-0.1,0,0,0-0.1l0,0l0,0l0.1,0.1l0.2,0.2l0.4,0.4c0.2,0.3,0.5,0.4,0.8,0.7
			c0.3,0.2,0.6,0.4,0.9,0.6c0.3,0.2,0.6,0.4,0.9,0.5c1.3,0.6,2.6,1,4.1,1.2c1.4,0.2,2.9,0.1,4.3-0.1c1.4-0.2,2.8-0.6,4.1-1.1
			c0.7-0.3,1.3-0.5,1.9-0.9c0.6-0.3,1.2-0.7,1.8-1c0.6-0.3,1.2-0.8,1.7-1.2c0.5-0.4,1-0.9,1.5-1.3c2-1.8,3.5-3.9,4.5-6
			c1.1-2.1,1.6-4.3,1.7-6.2c0.2-1.9-0.1-3.6-0.6-4.9c-0.5-1.3-1-2.3-1.4-2.9C45.1,65.9,44.8,65.6,44.8,65.6z"/>
	</g>
</g>
<g>
	<path d="M20.7,86.5c0,0-0.1-0.1-0.3-0.3c-0.2-0.2-0.5-0.5-0.8-0.9c-0.3-0.4-0.7-1-1-1.7c-0.3-0.7-0.6-1.6-0.6-2.5
		c-0.1-1-0.1-2,0-3.1c0.2-1.1,0.5-2.2,1-3.3c0.5-1.1,1.1-2.2,1.8-3.2c0.7-1,1.6-1.9,2.6-2.8c0.5-0.4,0.9-0.8,1.5-1.1
		c0.5-0.4,1.1-0.7,1.6-1c1.1-0.6,2.3-1,3.4-1.4c1.2-0.3,2.3-0.4,3.4-0.5c1.1,0,2.1,0.1,3.1,0.4c0.9,0.2,1.7,0.6,2.4,1
		c0.7,0.4,1.2,0.8,1.6,1.2c0.4,0.4,0.7,0.7,0.8,0.9c0.2,0.2,0.3,0.3,0.3,0.3s-0.1-0.1-0.3-0.3c-0.2-0.2-0.5-0.4-1-0.7
		c-0.4-0.3-1-0.6-1.7-0.8c-0.7-0.2-1.4-0.5-2.3-0.6c-0.9-0.1-1.8-0.1-2.8,0c-1,0.1-2,0.3-3,0.7c-0.5,0.1-1,0.4-1.5,0.6
		c-0.5,0.3-1,0.5-1.5,0.8c-0.5,0.3-1,0.6-1.4,0.9c-0.5,0.3-0.9,0.7-1.4,1.1c-0.8,0.7-1.7,1.5-2.3,2.4c-0.4,0.4-0.6,0.9-1,1.4
		c-0.3,0.5-0.6,0.9-0.8,1.4c-0.5,1-0.8,1.9-1.1,2.9c-0.2,1-0.4,1.9-0.4,2.7c0,0.9,0.1,1.7,0.2,2.3c0.2,0.7,0.3,1.3,0.6,1.8
		c0.2,0.5,0.4,0.8,0.6,1.1C20.6,86.4,20.7,86.5,20.7,86.5z"/>
</g>
<g>
	<path d="M39.5,70.2c0,0,0.1,0.1,0.2,0.3c0.2,0.2,0.4,0.4,0.6,0.8c0.3,0.4,0.5,0.8,0.7,1.4c0.2,0.6,0.4,1.2,0.5,2
		c0.1,0.8,0.1,1.6,0,2.5c-0.1,0.9-0.3,1.8-0.7,2.7c-0.4,0.9-0.8,1.8-1.4,2.6c-0.6,0.8-1.3,1.5-2.1,2.3c-0.7,0.6-1.6,1.3-2.5,1.7
		c-0.9,0.5-1.8,0.8-2.8,1.1c-0.9,0.3-1.9,0.3-2.7,0.3c-0.9,0-1.7-0.1-2.4-0.3c-0.7-0.2-1.4-0.5-1.9-0.8c-0.5-0.3-1-0.6-1.3-0.9
		c-0.3-0.3-0.5-0.6-0.7-0.7c-0.1-0.2-0.2-0.3-0.2-0.3s0.1,0.1,0.3,0.2c0.2,0.2,0.4,0.4,0.8,0.6c0.7,0.5,1.8,1.1,3.2,1.3
		c0.7,0.2,1.5,0.2,2.3,0.1c0.8-0.1,1.7-0.2,2.5-0.5c0.4-0.1,0.8-0.3,1.3-0.4c0.4-0.2,0.8-0.4,1.2-0.6c0.8-0.4,1.6-1,2.3-1.6
		c0.7-0.6,1.4-1.3,1.9-2.1c0.3-0.4,0.5-0.8,0.8-1.1c0.2-0.4,0.5-0.8,0.6-1.2c0.4-0.8,0.6-1.6,0.8-2.4c0.1-0.8,0.2-1.6,0.2-2.3
		c-0.1-1.4-0.5-2.6-0.9-3.4c-0.2-0.4-0.4-0.7-0.5-0.9C39.6,70.3,39.5,70.2,39.5,70.2z"/>
</g>
<g>
	<circle class="st1" cx="107.2" cy="109.1" r="41.4"/>
	<g>
		<path d="M104.7,150.3c0,0-1-0.1-2.9-0.3c-0.5-0.1-1-0.1-1.6-0.2c-0.6-0.1-1.2-0.3-1.9-0.4c-0.7-0.2-1.4-0.3-2.2-0.5
			c-0.8-0.2-1.6-0.5-2.4-0.8c-3.3-1.2-7.4-2.9-11.3-5.9c-4-2.9-8-7-11.2-12.2c-3.2-5.3-5.4-11.7-5.9-18.8c-0.1-0.9,0-1.8-0.1-2.7
			l0-1.4l0-0.7c0-0.3,0-0.5,0.1-0.7c0.2-1.8,0.3-3.6,0.7-5.4c0.6-3.7,2-7.3,3.6-10.9c0.5-0.9,0.9-1.7,1.4-2.6
			c0.5-0.9,1.1-1.7,1.6-2.5l0.8-1.2c0.3-0.4,0.6-0.8,0.9-1.2c0.6-0.8,1.2-1.6,1.9-2.3c2.7-3,6-5.5,9.5-7.7c3.6-2.1,7.5-3.6,11.5-4.7
			l3.1-0.6l0.8-0.1l0.8-0.1l1.6-0.1c1-0.1,2.1-0.2,3.1-0.2l3.2,0c3.9,0.3,8.3,1.2,12.2,2.6c3.9,1.5,7.6,3.5,10.9,6.1
			c3.2,2.6,6.1,5.5,8.5,8.8c0.6,0.8,1.1,1.7,1.6,2.5c0.3,0.4,0.5,0.8,0.8,1.3l0.7,1.3c0.4,0.9,0.9,1.8,1.3,2.7
			c0.4,0.9,0.7,1.8,1.1,2.7c1.2,3.7,2.1,7.5,2.3,11.2c0.2,1.9,0.1,3.7,0,5.5c0,0.2,0,0.4,0,0.7l-0.1,0.7l-0.2,1.3
			c-0.1,0.9-0.2,1.7-0.4,2.6c-1.4,7-4.4,13.1-8.2,18c-3.8,4.8-8.3,8.3-12.6,10.8c-4.3,2.5-8.5,3.7-12,4.5c-0.9,0.2-1.7,0.3-2.5,0.5
			c-0.8,0.1-1.5,0.1-2.2,0.2c-0.7,0.1-1.3,0.1-1.9,0.2c-0.6,0-1.1,0-1.6,0C105.7,150.3,104.7,150.3,104.7,150.3z M104.7,150.3
			c0,0,1,0,2.9,0c0.5,0,1,0,1.6,0c0.6-0.1,1.2-0.1,1.9-0.2c0.7-0.1,1.4-0.1,2.2-0.2c0.8-0.2,1.6-0.3,2.5-0.5c3.4-0.8,7.6-2,11.9-4.6
			c4.2-2.5,8.6-6.1,12.2-11c3.6-4.9,6.3-11,7.4-17.7c0.2-0.8,0.2-1.7,0.3-2.6l0.1-1.3l0.1-0.7l0-0.6c0-1.8,0.1-3.5-0.2-5.3
			c-0.3-3.6-1.3-7.1-2.5-10.6c-0.4-0.9-0.7-1.7-1.1-2.6c-0.4-0.9-0.9-1.6-1.3-2.5l-0.7-1.2l-0.8-1.2c-0.5-0.8-1-1.6-1.6-2.3
			c-2.3-3-5.1-5.7-8.1-8.1c-3.1-2.3-6.6-4.1-10.2-5.5c-3.7-1.3-7.4-2-11.5-2.4l-2.9,0c-1-0.1-2,0-2.9,0.1l-1.5,0.1l-0.7,0.1
			l-0.7,0.1L98,70.2c-0.9,0.2-1.9,0.5-2.8,0.8c-0.5,0.1-0.9,0.3-1.4,0.4L92.5,72l-1.4,0.5c-0.5,0.2-0.9,0.4-1.3,0.6l-2.6,1.3
			c-3.3,2-6.4,4.3-9.1,7c-0.7,0.7-1.3,1.4-1.9,2.1l-0.9,1.1l-0.8,1.1c-0.5,0.8-1.1,1.5-1.6,2.3c-0.5,0.8-0.9,1.6-1.4,2.4
			c-1.7,3.3-3.1,6.7-3.8,10.2c-0.5,1.7-0.6,3.5-0.9,5.3c0,0.2-0.1,0.5-0.1,0.6l0,0.7l0,1.3c0,0.9-0.1,1.7,0,2.6
			c0.3,6.9,2.2,13.3,5.2,18.5c3,5.3,6.9,9.4,10.8,12.4c3.9,3.1,7.9,4.8,11.2,6c0.8,0.3,1.6,0.5,2.4,0.8c0.8,0.2,1.5,0.3,2.2,0.5
			c0.7,0.1,1.3,0.3,1.9,0.4c0.6,0.1,1.1,0.1,1.6,0.2C103.7,150.2,104.7,150.3,104.7,150.3z"/>
	</g>
</g>
<g>
	<path class="st1" d="M136.2,104.3c0,0-1.4,12.3-3.2,14.8c0,0-4.2-4.2-9.9-4.2c-5.7,0-10.8-0.7-14.3,0.9c0,0-0.4-8.5-3.3-16.2
		c-2.9-7.7-7.9-12-7.9-12s9.3-3,14.8-5.5c5.5-2.5,9.4-5.4,9.4-5.4s2.5,4.7,8,10.5c5.5,5.8,12.2,7.2,12.2,7.2S137.2,97.7,136.2,104.3
		z"/>
	<g>
		<path d="M136.2,104.3c-0.3,2.5-0.6,5-1.1,7.5c-0.2,1.2-0.5,2.5-0.7,3.7c-0.2,0.6-0.3,1.2-0.5,1.8c-0.1,0.3-0.2,0.6-0.3,0.9
			c-0.1,0.3-0.3,0.6-0.4,0.9l-0.1,0.1l-0.1-0.1c-1.5-1.4-3.4-2.5-5.3-3.2c-0.5-0.2-1-0.3-1.5-0.5c-0.5-0.1-1-0.2-1.5-0.3
			c-0.5-0.1-1-0.1-1.5-0.1l-1.6,0c-2.1,0-4.2-0.1-6.3,0c-2.1,0.1-4.2,0.3-5.9,1.2l-0.8,0.4l-0.1-0.9c-0.2-2.5-0.6-5.1-1.1-7.6
			c-0.3-1.3-0.6-2.5-0.9-3.7c-0.3-1.2-0.7-2.4-1.2-3.6c-0.2-0.6-0.4-1.2-0.7-1.8c-0.2-0.6-0.5-1.1-0.8-1.7c-0.3-0.6-0.6-1.1-0.9-1.7
			c-0.3-0.6-0.6-1.1-1-1.6c-0.7-1.1-1.4-2.1-2.2-3.1c-0.4-0.5-0.8-1-1.2-1.4c-0.4-0.5-0.9-0.9-1.3-1.3l-1.3-1.2l1.6-0.5
			c2.1-0.7,4.2-1.4,6.3-2.1c2.1-0.7,4.2-1.5,6.2-2.3l1.5-0.6L113,81c1-0.4,2-0.9,3-1.4c1-0.5,1.9-1,2.9-1.6c0.9-0.6,1.9-1.1,2.8-1.8
			l0.6-0.4l0.3,0.6c0.5,1,1.1,2,1.7,2.9c0.6,1,1.3,1.9,2,2.8c0.7,0.9,1.4,1.8,2.1,2.7l1.1,1.3c0.4,0.4,0.7,0.9,1.1,1.3
			c0.8,0.9,1.6,1.6,2.5,2.3c0.9,0.7,1.8,1.4,2.8,2c0.5,0.3,1,0.6,1.5,0.8c0.5,0.3,1,0.5,1.6,0.7c1.1,0.5,2.1,0.9,3.2,1.1l0.2,0
			l-0.1,0.1c-0.8,0.5-1.5,1.2-2.2,1.9c-0.7,0.7-1.3,1.5-1.8,2.3c-0.5,0.8-1,1.7-1.3,2.6c-0.2,0.5-0.3,0.9-0.4,1.4
			C136.4,103.3,136.3,103.8,136.2,104.3z M136.2,104.3c0.1-0.5,0.2-1,0.3-1.4c0.1-0.5,0.2-1,0.4-1.4c0.3-0.9,0.8-1.8,1.3-2.7
			c0.5-0.8,1.1-1.6,1.7-2.4c0.7-0.7,1.4-1.4,2.2-2l0,0.1c-2.3-0.5-4.4-1.4-6.4-2.6c-1-0.5-2-1.2-2.9-1.9c-0.9-0.7-1.9-1.4-2.7-2.3
			c-0.4-0.4-0.8-0.8-1.2-1.2l-1.2-1.3c-0.8-0.9-1.5-1.7-2.3-2.6c-0.7-0.9-1.4-1.8-2.1-2.8c-0.7-1-1.3-1.9-1.9-2.9l0.9,0.2
			c-0.9,0.7-1.8,1.3-2.8,1.9c-0.9,0.6-1.9,1.2-2.9,1.8c-1,0.6-2,1.1-3,1.6c-0.5,0.2-1,0.5-1.5,0.7l-1.5,0.7
			c-4.1,1.7-8.3,3.2-12.6,4.6l0.3-1.7c0.5,0.5,1,1,1.5,1.4c0.5,0.5,0.9,1,1.3,1.5c0.8,1,1.6,2.1,2.3,3.3c0.4,0.6,0.7,1.1,1,1.7
			c0.3,0.6,0.6,1.2,0.9,1.8c0.3,0.6,0.6,1.2,0.8,1.8c0.2,0.6,0.5,1.3,0.7,1.9c0.8,2.5,1.5,5.1,1.9,7.7c0.4,2.6,0.7,5.2,0.8,7.8
			l-0.9-0.5c2.1-0.9,4.3-1,6.5-1c2.1,0,4.3,0.2,6.4,0.3l1.6,0.1c0.5,0,1.1,0,1.6,0.2c0.5,0.1,1.1,0.2,1.6,0.3c0.5,0.2,1,0.3,1.5,0.5
			c0.5,0.2,1,0.4,1.5,0.7c0.5,0.2,0.9,0.5,1.4,0.8c0.9,0.6,1.7,1.2,2.5,2l-0.2,0c0.1-0.3,0.3-0.5,0.4-0.8c0.1-0.3,0.2-0.6,0.3-0.9
			c0.2-0.6,0.4-1.2,0.5-1.8c0.3-1.2,0.6-2.5,0.8-3.7C135.5,109.3,135.9,106.8,136.2,104.3z"/>
	</g>
</g>
<g>
	<g>
		<path d="M131.6,112.5c0,0-0.3,0.2-0.9,0.6c-0.6,0.4-1.6,0.9-2.9,1.3c-1.3,0.4-3.1,0.6-5,0.4c-2-0.1-4.1-0.7-6.3-1.8
			c-2.2-1-4.4-2.6-6.4-4.6c-0.5-0.5-1-1-1.4-1.6c-0.4-0.6-0.9-1.1-1.3-1.7c-0.4-0.6-0.8-1.3-1.2-2c-0.4-0.7-0.7-1.4-1-2.1
			c-0.6-1.5-1.1-3-1.3-4.6c-0.3-1.6-0.3-3.3-0.1-5c0.3-3.4,2.2-6.8,5-9.1c1.3-1,3.2-1.9,4.9-2.2c0.4-0.1,0.9-0.2,1.3-0.2l1.3-0.1
			c0.9,0,1.7,0,2.6,0.2c3.4,0.4,6.5,2,8.9,3.9c2.5,1.9,4.4,4.3,5.8,6.7c1.4,2.5,2.3,5,2.8,7.4c0.4,2.4,0.4,4.6,0,6.6
			c-0.4,1.9-1,3.5-1.7,4.7c-0.8,1.2-1.5,2-2,2.5C132,112.3,131.6,112.5,131.6,112.5z M131.6,112.5c0,0,0.3-0.3,0.9-0.8
			c0.5-0.5,1.3-1.3,2-2.5c0.7-1.2,1.3-2.8,1.6-4.7c0.3-1.9,0.2-4.1-0.4-6.4c-0.6-2.3-1.7-4.6-3.2-6.8c-1.6-2.2-3.6-4.1-6-5.7
			c-1.2-0.8-2.5-1.4-3.8-1.9c-1.3-0.5-2.8-0.9-4.2-1c-1.4-0.1-2.9-0.1-4.2,0.3c-1.4,0.4-2.5,0.9-3.7,1.8c-2.2,1.7-3.6,4.3-4.1,7.1
			c-0.3,1.4-0.3,2.9-0.2,4.3c0.1,1.4,0.4,2.8,0.8,4.2c0.2,0.7,0.4,1.3,0.7,2c0.3,0.7,0.6,1.3,0.9,1.9c0.3,0.6,0.7,1.2,1.1,1.8
			c0.4,0.5,0.8,1.1,1.2,1.6c1.7,2.1,3.7,3.7,5.7,4.9c2,1.2,4.1,1.8,6.1,2.1c1.9,0.3,3.6,0.1,5-0.3c1.3-0.4,2.3-0.9,3-1.3
			C131.3,112.8,131.6,112.5,131.6,112.5z"/>
	</g>
</g>
<g>
	<path d="M112.2,87.2c0,0,0.1-0.1,0.3-0.3c0.2-0.2,0.5-0.5,1-0.8c0.5-0.3,1.1-0.6,1.8-0.9c0.7-0.2,1.6-0.5,2.6-0.5
		c1-0.1,2,0,3.1,0.2c1.1,0.3,2.2,0.6,3.3,1.2c1.1,0.5,2.1,1.2,3.1,2c1,0.8,1.8,1.7,2.7,2.8c0.3,0.5,0.7,1,1,1.5
		c0.3,0.6,0.7,1.1,0.9,1.7c0.6,1.1,0.9,2.3,1.1,3.5c0.3,1.2,0.3,2.4,0.3,3.4c-0.1,1.1-0.2,2.1-0.6,3c-0.3,0.9-0.7,1.7-1.1,2.3
		c-0.4,0.6-0.9,1.1-1.3,1.5c-0.4,0.4-0.8,0.6-1,0.8c-0.2,0.2-0.4,0.2-0.4,0.2s0.1-0.1,0.3-0.3c0.2-0.2,0.5-0.5,0.8-1
		c0.3-0.4,0.6-1,0.9-1.6c0.3-0.7,0.5-1.4,0.7-2.3c0.2-0.8,0.2-1.8,0.2-2.8c-0.1-1-0.2-2-0.5-3c-0.1-0.5-0.3-1-0.5-1.6
		c-0.2-0.5-0.4-1-0.7-1.5c-0.2-0.5-0.5-1-0.8-1.5c-0.3-0.5-0.7-1-1-1.5c-0.7-0.8-1.4-1.8-2.3-2.5c-0.4-0.4-0.9-0.7-1.3-1.1
		c-0.5-0.3-0.9-0.6-1.4-0.9c-0.9-0.5-1.9-0.9-2.8-1.3c-0.9-0.3-1.9-0.5-2.7-0.5c-0.9-0.1-1.7,0-2.4,0.1c-0.7,0.1-1.3,0.3-1.8,0.5
		c-0.5,0.2-0.9,0.4-1.1,0.5C112.4,87.1,112.2,87.2,112.2,87.2z"/>
</g>
<g>
	<path d="M127.3,106.9c0,0-0.1,0.1-0.3,0.2c-0.2,0.1-0.4,0.4-0.8,0.6c-0.4,0.2-0.9,0.5-1.4,0.7c-0.6,0.2-1.3,0.4-2,0.4
		c-0.8,0.1-1.6,0-2.5-0.2c-0.9-0.2-1.8-0.4-2.6-0.9c-0.9-0.4-1.7-0.9-2.5-1.6c-0.8-0.6-1.5-1.4-2.1-2.2c-0.6-0.8-1.2-1.7-1.5-2.6
		c-0.4-0.9-0.7-1.9-0.9-2.8c-0.2-0.9-0.2-1.9-0.2-2.8c0.1-0.9,0.2-1.7,0.5-2.4c0.2-0.7,0.6-1.4,0.9-1.9c0.4-0.5,0.7-0.9,1-1.2
		c0.3-0.3,0.6-0.5,0.8-0.7c0.2-0.1,0.3-0.2,0.3-0.2s-0.1,0.1-0.3,0.3c-0.2,0.2-0.4,0.4-0.7,0.7c-0.5,0.7-1.2,1.7-1.5,3.1
		c-0.2,0.7-0.3,1.5-0.3,2.3c0,0.8,0.1,1.7,0.3,2.5c0.1,0.4,0.2,0.9,0.4,1.3c0.2,0.4,0.3,0.9,0.5,1.3c0.4,0.9,0.9,1.6,1.5,2.4
		c0.6,0.7,1.2,1.5,1.9,2c0.3,0.3,0.7,0.6,1.1,0.9c0.4,0.2,0.8,0.5,1.2,0.7c0.8,0.4,1.6,0.7,2.4,1c0.8,0.2,1.6,0.3,2.3,0.3
		c1.4,0,2.6-0.3,3.4-0.6c0.4-0.2,0.7-0.3,0.9-0.5C127.2,107,127.3,106.9,127.3,106.9z"/>
</g>
</svg>
