<?xml version="1.0" encoding="utf-8"?>
<!-- Generator: Adobe Illustrator 18.1.1, SVG Export Plug-In . SVG Version: 6.00 Build 0)  -->
<svg version="1.1" id="Layer_1" xmlns="http://www.w3.org/2000/svg" xmlns:xlink="http://www.w3.org/1999/xlink" x="0px" y="0px"
	 viewBox="0 0 198.9 252.7" style="enable-background:new 0 0 198.9 252.7;" xml:space="preserve">
<style type="text/css">
	.st0{fill:#80A24B;}
	.st1{fill:#827546;}
	.st2{fill:#884F97;}
</style>
<g>
	<path class="st0" d="M105.6,27.1c0,0,13.8-22.4,22.1-22.1c0,0-8,18.5-1.8,20.3c6.2,1.8,18.8-24.6,31.1-12.7
		c0,0-15.2,22.1-14.5,26.3s19.2-13.2,50.3,16.8c0,0-17,19.1-29.7,20.4c-12.7,1.3-66.9-2.5-66.9-2.5L105.6,27.1z"/>
	<path d="M105.6,27.1c1.4-2.3,2.8-4.5,4.3-6.7c1.5-2.2,3.1-4.4,4.8-6.4c1.7-2.1,3.5-4.1,5.6-5.9c0.5-0.4,1-0.9,1.6-1.3
		c0.5-0.4,1.1-0.8,1.7-1.1c0.3-0.2,0.6-0.3,0.9-0.5c0.3-0.2,0.6-0.3,1-0.4c0.7-0.2,1.4-0.3,2.2-0.4l0.8,0l-0.3,0.8
		c-0.9,2.3-1.7,4.6-2.4,6.9c-0.7,2.3-1.2,4.7-1.4,7.1c-0.1,1.2-0.1,2.4,0.2,3.4c0.3,1,0.9,1.7,1.8,1.8c0.1,0,0.2,0,0.2,0l0.1,0
		c0.1,0,0.1,0,0.3,0c0.2-0.1,0.5-0.1,0.7-0.3c0.2-0.1,0.5-0.2,0.7-0.4c0.2-0.1,0.5-0.3,0.7-0.5c0.9-0.7,1.8-1.5,2.7-2.4
		c1.7-1.7,3.4-3.5,5.3-5.2c1.8-1.7,3.7-3.4,5.9-4.8c1.1-0.7,2.3-1.3,3.5-1.8c1.3-0.5,2.6-0.7,4-0.7c1.4,0,2.8,0.4,4,1
		c1.3,0.6,2.3,1.5,3.3,2.3l0.8,0.7l-0.6,0.9c-3.9,6-7.9,12-11.2,18.2c-0.8,1.6-1.6,3.1-2.3,4.7c-0.3,0.8-0.6,1.6-0.6,2.2
		c0,0.1,0,0.1,0,0.1l0,0.1c0-0.1,0,0.1,0-0.1l0,0l0,0l0,0.1c0-0.2-0.3-0.5-0.4-0.5c-0.1,0,0.3,0,0.6-0.1c1.6-0.3,3.4-0.9,5.2-1.2
		c1.8-0.4,3.7-0.6,5.6-0.7c3.7-0.2,7.5,0.2,11.1,1.2c3.6,0.9,7.1,2.4,10.3,4.1c6.5,3.5,12.3,8.1,17.5,13.2l1,1l-1,1
		c-1.5,1.6-3,3.2-4.6,4.7c-1.6,1.5-3.2,3-4.8,4.4c-1.7,1.4-3.4,2.8-5.1,4.1c-0.9,0.7-1.8,1.3-2.7,1.9c-0.9,0.6-1.9,1.2-2.8,1.8
		c-1,0.5-2,1.1-3,1.6l-1.6,0.7l-0.8,0.3l-0.8,0.3l-1.6,0.5c-0.6,0.1-1.1,0.2-1.7,0.3l-0.9,0.2c-0.1,0-0.1,0-0.3,0l-0.2,0l-0.4,0
		l-1.6,0.1c-2.2,0.1-4.4,0.1-6.6,0.1c-2.2,0-4.3-0.1-6.5-0.1c-8.7-0.2-17.3-0.8-25.9-1.3c-8.6-0.6-17.2-1.2-25.9-1.9l-0.9-0.1
		l0.2-0.9c1.6-7.7,3.4-15.4,5.1-23.2l2.5-11.6L105.6,27.1z M105.6,27.1l-2.1,11.7l-2.2,11.7C99.9,58.2,98.5,66,97,73.8l-0.7-1
		c17.2,1,34.5,1.8,51.7,2.2c2.2,0,4.3,0.1,6.4,0.1c2.2,0,4.2,0,6.4-0.1l1.6-0.1l0.4,0l0.2,0c0,0,0.1,0,0.1,0l0.7-0.1
		c0.5-0.1,1-0.2,1.5-0.3l1.4-0.5l0.7-0.2l0.7-0.3l1.4-0.6c0.9-0.4,1.8-1,2.8-1.5c0.9-0.6,1.8-1.1,2.7-1.7c0.9-0.6,1.7-1.2,2.6-1.8
		c1.7-1.3,3.3-2.6,5-4c1.6-1.4,3.2-2.8,4.7-4.3c1.5-1.5,3-3,4.4-4.6l0.1,2c-5.1-4.9-10.7-9.4-16.9-12.7c-3.1-1.7-6.3-3-9.7-3.9
		c-3.3-0.9-6.8-1.3-10.2-1.1c-1.7,0.1-3.4,0.3-5.1,0.6c-1.7,0.3-3.3,0.8-5.3,1.2c-0.3,0-0.5,0.1-0.8,0.1c-0.3,0-0.7,0-1.2-0.1
		c-0.1-0.1-0.3-0.1-0.4-0.2c-0.1-0.1-0.3-0.2-0.4-0.3c-0.1-0.1-0.2-0.3-0.3-0.4c0-0.1-0.1-0.2-0.1-0.3c0-0.1-0.1-0.2-0.1-0.2l0-0.1
		l0,0l0,0c-0.1-0.3,0-0.1,0-0.2l0-0.3c0-0.2,0-0.4,0-0.5c0.1-1.2,0.5-2.1,0.8-3c0.7-1.8,1.6-3.4,2.4-5c1.8-3.2,3.7-6.3,5.6-9.3
		c2-3,3.9-6.1,6-9l0.2,1.6c-0.8-0.8-1.7-1.5-2.7-2c-1-0.5-2-0.8-3.1-0.8c-1.1,0-2.2,0.1-3.2,0.5c-1.1,0.4-2.1,0.9-3.1,1.5
		c-1,0.6-2,1.3-2.9,2.1c-0.9,0.8-1.8,1.6-2.7,2.4c-1.8,1.7-3.5,3.4-5.3,5.1c-0.9,0.9-1.9,1.7-2.9,2.5c-0.3,0.2-0.5,0.4-0.8,0.5
		c-0.3,0.2-0.6,0.3-0.9,0.5c-0.3,0.2-0.7,0.3-1,0.4c-0.2,0.1-0.4,0.1-0.7,0.1l-0.3,0c-0.1,0-0.2,0-0.2,0c-0.8-0.1-1.6-0.5-2.1-1.1
		c-0.5-0.6-0.9-1.3-1-2c-0.4-1.4-0.3-2.7-0.2-4c0.3-2.6,0.9-5,1.7-7.4c0.8-2.4,1.7-4.7,2.7-7l0.5,0.8c-0.6,0-1.2,0-1.8,0.2
		c-0.3,0.1-0.6,0.2-0.9,0.3c-0.3,0.1-0.6,0.3-0.9,0.4c-0.6,0.3-1.1,0.6-1.7,1c-0.5,0.4-1.1,0.8-1.6,1.2c-2,1.7-3.9,3.6-5.6,5.6
		c-1.8,2-3.4,4.1-5,6.2C108.6,22.7,107.1,24.9,105.6,27.1z"/>
</g>
<g>
	<path class="st0" d="M36.5,96.6c0,0-27.9,4.6-36.2-14c0,0,22.4,2.3,30.8-6.5c0,0-19.9-8.5-19.2-46.8c0,0,34.7-0.4,44.5,21.3
		c0,0,13-17,8.7-31.5c0,0,15.6,8.3,14.1,32.7c0,0,4.3,6.4,13.8-15.7s0,29.7,0,29.7S52.4,96.8,36.5,96.6z"/>
	<g>
		<path d="M36.5,96.6c-3.4,0.5-6.9,0.6-10.4,0.5c-0.9,0-1.7-0.1-2.6-0.2c-0.9-0.1-1.7-0.2-2.6-0.3c-0.9-0.1-1.7-0.3-2.6-0.5
			c-0.8-0.2-1.7-0.4-2.5-0.7c-0.8-0.2-1.7-0.5-2.5-0.8c-0.8-0.3-1.6-0.7-2.4-1c-0.8-0.4-1.6-0.8-2.3-1.3c-0.8-0.4-1.4-1-2.2-1.5
			c-0.7-0.6-1.3-1.1-2-1.7c-0.3-0.3-0.6-0.6-0.9-0.9c-0.3-0.3-0.6-0.6-0.8-1c-0.5-0.7-1-1.4-1.5-2.2c-0.5-0.7-0.8-1.5-1.2-2.3
			L0,82.4l0.3,0c2.7,0.2,5.4,0.3,8,0.2c2.7-0.1,5.4-0.3,8-0.7c2.6-0.4,5.3-1,7.7-2c0.6-0.2,1.2-0.5,1.8-0.8c0.6-0.3,1.2-0.6,1.7-1
			c0.6-0.3,1.1-0.7,1.6-1.1c0.5-0.4,1-0.9,1.4-1.3l0.2,0.8c-1.1-0.5-2-1.1-2.9-1.8c-0.9-0.7-1.8-1.4-2.6-2.1
			c-0.9-0.7-1.6-1.6-2.4-2.4c-0.8-0.8-1.4-1.7-2.1-2.6c-0.7-0.9-1.2-1.9-1.9-2.8c-0.6-1-1.1-2-1.6-2.9c-0.6-1-0.9-2-1.4-3.1
			c-0.2-0.5-0.5-1-0.7-1.5l-0.5-1.6c-0.3-1.1-0.8-2.1-1-3.2l-0.8-3.3c-0.3-1.1-0.5-2.2-0.7-3.3l-0.6-3.3c-0.1-1.1-0.2-2.2-0.3-3.3
			c-0.1-1.1-0.2-2.2-0.3-3.3l-0.2-6.7l0-1.1l1.1,0c1.1,0,2.2,0,3.3,0.1c1.1,0.1,2.2,0.1,3.3,0.2c2.2,0.2,4.4,0.5,6.5,0.8
			c2.2,0.4,4.3,0.9,6.5,1.4c1.1,0.3,2.1,0.6,3.2,0.9c1,0.4,2.1,0.7,3.1,1.1c1,0.4,2.1,0.8,3.1,1.3l1.5,0.7l1.5,0.8
			c0.5,0.3,1,0.6,1.4,0.8c0.5,0.3,1,0.6,1.4,0.9c0.9,0.6,1.8,1.3,2.7,2c0.9,0.7,1.7,1.5,2.5,2.3c0.8,0.8,1.5,1.7,2.3,2.5
			c0.7,0.9,1.4,1.8,1.9,2.8c0.6,1,1.1,2,1.6,3l-2.5-0.3c0.4-0.5,0.8-1.1,1.2-1.7c0.4-0.6,0.8-1.1,1.1-1.7c0.7-1.2,1.4-2.4,2-3.6
			c0.3-0.6,0.6-1.2,0.9-1.8c0.3-0.6,0.6-1.2,0.8-1.9c0.3-0.6,0.5-1.3,0.8-1.9l0.7-1.9c0.2-0.6,0.4-1.3,0.6-1.9
			c0.2-0.6,0.3-1.3,0.5-2c0.1-0.7,0.3-1.3,0.4-2l0.2-2l0.1-2c0.1-0.7,0-1.3-0.1-2c-0.1-0.7-0.1-1.3-0.3-1.9l-0.4-1.9l-0.7-3.3
			l2.8,1.6c0.8,0.5,1.5,0.9,2.1,1.4c0.7,0.5,1.3,1,1.9,1.6c0.6,0.6,1.2,1.1,1.7,1.8l0.8,0.9c0.3,0.3,0.5,0.6,0.8,1l0.7,1l0.7,1
			c0.5,0.7,0.9,1.4,1.3,2.1c0.4,0.7,0.8,1.4,1.1,2.2l1,2.2l0.8,2.3c0.3,0.8,0.4,1.6,0.6,2.3c0.2,0.8,0.4,1.6,0.5,2.4l0.4,2.4
			c0.1,0.8,0.2,1.6,0.2,2.4l0.1,2.4c0,0.8,0,1.6,0,2.4L80.3,52l-0.2-0.7c0,0,0.1,0.1,0.1,0.1c0.1,0.1,0.1,0.1,0.2,0.1
			c0.1,0,0.2,0,0.2,0.1c0.1,0,0.2,0,0.3,0c0.4,0,0.9-0.1,1.3-0.5c0.5-0.2,0.9-0.7,1.4-1.1c0.4-0.5,0.9-0.9,1.3-1.4
			c0.4-0.5,0.8-1,1.2-1.6l1.1-1.7c0.7-1.2,1.4-2.3,2-3.5c0.6-1.2,1.2-2.4,1.8-3.6l1.7-3.7c0.6-1.3,1.2-2.5,2.1-3.7
			c0.1-0.2,0.3-0.3,0.5-0.5c0.2-0.2,0.4-0.4,0.9-0.4c0.6-0.1,1,0.3,1.2,0.6c0.2,0.3,0.2,0.5,0.3,0.7c0.2,0.8,0.2,1.5,0.2,2.2
			c0,1.4-0.1,2.8-0.2,4.2c-0.1,1.4-0.3,2.7-0.4,4.1c-0.3,2.7-0.7,5.4-1.1,8.1c-0.8,5.4-1.8,10.8-2.8,16.1l0,0.2l-0.1,0.1
			c-4.4,3.2-8.8,6.3-13.3,9.3c-4.5,3-9,6-13.7,8.7c-4.7,2.8-9.4,5.4-14.3,7.7c-1.2,0.6-2.5,1.1-3.7,1.6c-1.3,0.5-2.5,1-3.8,1.4
			c-0.6,0.2-1.3,0.4-1.9,0.6c-0.6,0.2-1.3,0.4-2,0.5C39.2,96.4,37.8,96.6,36.5,96.6z M36.5,96.6c1.4,0,2.7-0.2,4-0.5
			c0.7-0.1,1.3-0.3,2-0.5c0.7-0.2,1.3-0.4,1.9-0.6c1.3-0.4,2.5-0.9,3.8-1.4c1.2-0.5,2.5-1.1,3.7-1.7c4.9-2.3,9.6-5,14.2-7.9
			c9.2-5.7,18.1-11.9,26.6-18.5l-0.2,0.2c0.9-5.4,1.7-10.8,2.4-16.2c0.4-2.7,0.7-5.4,0.9-8.1c0.1-1.4,0.2-2.7,0.3-4.1
			c0.1-1.3,0.1-2.7,0.1-4c0-0.6-0.1-1.3-0.2-1.8c0-0.1-0.1-0.2-0.1-0.2c0,0,0.1,0.2,0.3,0.1c0.1,0,0.1,0,0,0.1
			c-0.1,0.1-0.2,0.2-0.2,0.3c-0.7,0.9-1.3,2.2-1.8,3.4L92.7,39c-0.5,1.3-1.1,2.5-1.7,3.7c-0.6,1.3-1.3,2.4-1.9,3.7l-1.1,1.8
			c-0.4,0.6-0.8,1.2-1.2,1.7c-0.4,0.6-0.9,1.1-1.4,1.7c-0.6,0.5-1.1,1-1.8,1.4c-0.6,0.4-1.5,0.8-2.5,0.8c-0.3,0-0.5,0-0.8-0.1
			c-0.2-0.1-0.5-0.1-0.7-0.2c-0.2-0.1-0.5-0.2-0.7-0.4c-0.2-0.2-0.4-0.3-0.6-0.6L78,52.3l0-0.5l0-2.3c0-0.8,0-1.5,0-2.3L77.8,45
			c-0.1-0.8-0.1-1.5-0.3-2.3l-0.4-2.2c-0.1-0.7-0.4-1.5-0.5-2.2c-0.2-0.7-0.3-1.5-0.6-2.2L75.3,34l-0.9-2c-0.3-0.7-0.7-1.3-1.1-2
			c-0.3-0.7-0.8-1.3-1.2-1.9l-0.6-0.9l-0.7-0.9l-0.7-0.9l-0.8-0.8c-0.5-0.6-1-1.1-1.6-1.6c-0.6-0.5-1.1-1-1.7-1.4
			c-0.6-0.4-1.2-0.9-1.7-1.2l2.1-1.7L67,21c0.2,0.7,0.2,1.5,0.3,2.2c0.1,0.7,0.2,1.5,0.1,2.2l-0.1,2.2l-0.3,2.2
			c-0.1,0.7-0.3,1.4-0.4,2.2c-0.1,0.7-0.3,1.4-0.5,2.1c-0.2,0.7-0.4,1.4-0.6,2.1l-0.7,2.1c-0.3,0.7-0.5,1.3-0.8,2
			c-0.3,0.7-0.6,1.3-0.9,2c-0.3,0.7-0.6,1.3-1,1.9c-0.7,1.3-1.4,2.5-2.1,3.7c-0.4,0.6-0.8,1.2-1.2,1.8c-0.4,0.6-0.8,1.2-1.3,1.8
			l-1.4,1.9L55,51.3c-0.5-0.9-0.9-1.9-1.4-2.7c-0.5-0.9-1.1-1.7-1.7-2.5c-0.7-0.8-1.3-1.6-2-2.3c-0.7-0.8-1.5-1.4-2.3-2.1
			c-0.8-0.6-1.6-1.3-2.5-1.9c-0.4-0.3-0.9-0.6-1.3-0.9c-0.4-0.3-0.9-0.6-1.3-0.8l-1.4-0.8l-1.4-0.7c-1-0.4-1.9-0.9-2.9-1.3
			c-1-0.4-2-0.8-3-1.1c-1-0.3-2-0.7-3-0.9c-2-0.6-4.1-1.1-6.2-1.5c-2.1-0.4-4.2-0.7-6.3-1c-1.1-0.1-2.1-0.2-3.2-0.3
			c-1.1-0.1-2.1-0.1-3.2-0.1l1.1-1.1l0,6.6c0,1.1,0.1,2.2,0.2,3.3c0.1,1.1,0.1,2.2,0.3,3.3l0.5,3.2c0.2,1.1,0.3,2.2,0.6,3.2l0.7,3.2
			c0.2,1.1,0.6,2.1,0.9,3.1l0.5,1.6c0.2,0.5,0.4,1,0.6,1.5c0.4,1,0.8,2,1.3,3c0.5,1,1,1.9,1.5,2.9c0.6,0.9,1.1,1.9,1.7,2.8
			c0.7,0.9,1.3,1.8,2,2.6c0.7,0.8,1.4,1.6,2.2,2.4c0.8,0.8,1.6,1.5,2.5,2.1c0.9,0.6,1.8,1.3,2.7,1.7l0.7,0.3l-0.5,0.5
			c-0.5,0.5-1,1-1.6,1.4c-0.6,0.4-1.1,0.8-1.7,1.2c-0.6,0.4-1.2,0.7-1.8,1c-0.6,0.3-1.3,0.5-1.9,0.8c-2.6,0.9-5.2,1.5-7.9,1.8
			c-2.7,0.4-5.4,0.5-8.1,0.5c-2.7,0-5.4-0.1-8.1-0.3l0.2-0.2c0.4,0.8,0.7,1.6,1.2,2.3c0.4,0.8,0.9,1.5,1.4,2.1
			c0.2,0.4,0.6,0.7,0.8,1c0.3,0.3,0.6,0.7,0.9,0.9c0.6,0.6,1.3,1.2,1.9,1.7c0.7,0.5,1.4,1,2.1,1.5c0.7,0.5,1.5,0.9,2.3,1.3
			c0.8,0.4,1.6,0.7,2.4,1c0.8,0.3,1.6,0.6,2.5,0.8c0.8,0.3,1.7,0.5,2.5,0.7c0.8,0.2,1.7,0.4,2.6,0.5c0.9,0.1,1.7,0.3,2.6,0.3
			c0.9,0.1,1.7,0.2,2.6,0.2C29.6,97.2,33,97.1,36.5,96.6z"/>
	</g>
</g>
<g>
	<path class="st1" d="M91.9,59.5c0,0,4.6-50.8,6.8-56.2s10.9,2.9,10.9,2.9s-11.6,49.1-6.9,65.3C107.5,87.6,91.9,59.5,91.9,59.5z"/>
	<g>
		<path d="M91.9,59.5c0.2-5.8,0.7-11.6,1-17.4c0.2-2.9,0.4-5.8,0.7-8.7c0.2-2.9,0.5-5.8,0.8-8.7c0.3-2.9,0.6-5.8,0.9-8.7
			c0.2-1.5,0.3-2.9,0.5-4.4c0.2-1.4,0.4-2.9,0.6-4.4c0.3-1.5,0.5-2.8,1.1-4.6c0.1-0.2,0.1-0.3,0.3-0.5c0.2-0.2,0.3-0.5,0.5-0.7
			c0.3-0.4,0.8-0.8,1.4-1c1.1-0.4,2.1-0.4,3-0.2c1.8,0.4,3.1,1.2,4.4,2.1c1.3,0.9,2.4,1.8,3.6,2.9l0.6,0.6l-0.2,0.8
			c-0.8,3.7-1.6,7.4-2.4,11.2c-0.8,3.7-1.5,7.5-2.1,11.2c-0.7,3.8-1.3,7.5-1.8,11.3c-0.6,3.8-1,7.5-1.4,11.3
			c-0.2,1.9-0.3,3.8-0.5,5.7c-0.1,1.9-0.2,3.8-0.1,5.7c0,1.9,0.1,3.8,0.4,5.6c0.1,0.9,0.3,1.8,0.5,2.7c0.2,0.9,0.5,1.9,0.7,2.9
			c0.1,0.5,0.2,1,0.2,1.6c0,0.1,0,0.3,0,0.5c0,0.2-0.1,0.4-0.3,0.7c-0.1,0.2-0.3,0.3-0.5,0.4c-0.2,0.1-0.4,0-0.6,0
			c-0.3-0.1-0.4-0.2-0.6-0.3c-0.5-0.4-0.8-0.8-1.1-1.2c-0.3-0.4-0.6-0.8-0.9-1.2c-1.1-1.6-2.1-3.2-3.1-4.9
			C95.5,66.3,93.6,62.9,91.9,59.5z M91.9,59.5c2,3.2,4.1,6.5,6.2,9.7c1.1,1.6,2.2,3.1,3.3,4.6c0.3,0.4,0.6,0.7,0.9,1.1
			c0.3,0.3,0.6,0.7,0.9,0.8c0.1,0,0.1,0,0.1,0c0,0-0.3,0-0.4,0.2c-0.1,0.2,0-0.1,0-0.2c0-0.4-0.1-0.8-0.2-1.3
			c-0.2-0.9-0.5-1.8-0.8-2.7c-0.3-1-0.5-1.9-0.7-2.9c-0.3-1.9-0.5-3.9-0.6-5.8c-0.1-1.9-0.1-3.9-0.1-5.8c0-1.9,0.1-3.9,0.3-5.8
			c0.6-7.7,1.6-15.3,2.9-22.9c0.6-3.8,1.3-7.6,2.1-11.3c0.8-3.8,1.6-7.5,2.5-11.3l0.4,1.4c-1-0.9-2.1-1.8-3.2-2.6
			c-1.1-0.8-2.3-1.4-3.4-1.7c-0.5-0.1-1-0.1-1.3,0c-0.1,0.1-0.3,0.1-0.4,0.3c-0.1,0.1-0.1,0.1-0.1,0.2c-0.1,0.1-0.2,0.3-0.2,0.4
			l-0.2,0.8l-0.1,0.4l-0.1,0.5l-0.4,2.1c-0.2,1.4-0.5,2.8-0.7,4.3l-0.6,4.3c-0.4,2.9-0.8,5.7-1.2,8.6l-2.3,17.3
			C93.4,47.9,92.8,53.7,91.9,59.5z"/>
	</g>
</g>
<g>
	<circle class="st2" cx="149.4" cy="225.9" r="26.1"/>
	<g>
		<path d="M175.4,225.9c0,0,0,0.6-0.1,1.8c0,0.6-0.1,1.3-0.2,2.2c-0.1,0.4-0.1,0.9-0.2,1.4c-0.1,0.5-0.3,1-0.4,1.5
			c-0.6,2.1-1.5,4.7-3.2,7.4c-1.7,2.6-4.1,5.3-7.2,7.6c-3.2,2.2-7.2,3.9-11.6,4.6c-0.6,0.1-1.1,0.1-1.7,0.2c-0.6,0-1.1,0.1-1.8,0.1
			c-1.1,0-2.2,0-3.5-0.2c-2.4-0.2-4.8-0.9-7.1-1.8c-2.3-0.9-4.5-2.3-6.6-3.8c-2-1.6-3.8-3.6-5.3-5.7c-1.5-2.2-2.7-4.6-3.5-7.2
			c-0.8-2.6-1.2-5.3-1.2-8l0.1-2c0-0.6,0.1-1.3,0.2-2c0.2-1.4,0.5-2.7,0.9-4c0.8-2.6,2-5,3.5-7.2c1.5-2.2,3.3-4.1,5.3-5.8
			c2.1-1.6,4.2-2.9,6.6-3.8c4.6-1.9,9.6-2.4,14-1.8c4.5,0.7,8.5,2.4,11.7,4.6c3.2,2.3,5.6,5,7.2,7.6c1.7,2.6,2.6,5.2,3.2,7.4
			c0.1,0.5,0.3,1.1,0.4,1.5c0.1,0.5,0.1,1,0.2,1.4c0.1,0.9,0.2,1.6,0.2,2.2C175.4,225.3,175.4,225.9,175.4,225.9z M175.4,225.9
			c0,0,0-0.6-0.1-1.8c0-0.6-0.1-1.3-0.3-2.2c-0.1-0.4-0.1-0.9-0.2-1.4c-0.1-0.5-0.3-1-0.4-1.5c-0.6-2.1-1.6-4.7-3.4-7.3
			c-1.7-2.5-4.2-5.2-7.4-7.2c-3.2-2-7.2-3.4-11.4-3.8c-0.5-0.1-1.1,0-1.6-0.1l-0.8,0l-0.4,0l-0.4,0c-1.1,0.1-2.2,0.1-3.3,0.4
			c-2.2,0.3-4.4,1.1-6.5,2.1c-2.1,1-4,2.3-5.8,3.8c-1.8,1.6-3.3,3.4-4.6,5.4c-1.3,2-2.3,4.2-3,6.5c-0.3,1.2-0.6,2.3-0.7,3.5
			c-0.2,1.1-0.2,2.5-0.3,3.6c0,2.4,0.3,4.8,1,7.1c0.7,2.3,1.7,4.5,3,6.5c1.3,2,2.9,3.8,4.6,5.4c1.8,1.5,3.7,2.9,5.8,3.8
			c2.1,0.9,4.3,1.7,6.4,2c1.1,0.2,2.2,0.3,3.3,0.4c0.5,0.1,1.1,0,1.6,0c0.5,0,1.1,0,1.6-0.1c4.3-0.4,8.2-1.8,11.4-3.8
			c3.2-2,5.6-4.6,7.4-7.2c1.8-2.5,2.7-5.1,3.4-7.3c0.1-0.5,0.3-1.1,0.4-1.5c0.1-0.5,0.2-0.9,0.2-1.4c0.1-0.9,0.3-1.6,0.3-2.2
			C175.4,226.6,175.4,225.9,175.4,225.9z"/>
	</g>
</g>
<g>
	<circle class="st2" cx="155.1" cy="85.5" r="26.1"/>
	<g>
		<path d="M181.1,85.5c0,0,0,0.6-0.1,1.8c0,0.6-0.1,1.3-0.2,2.2c-0.1,0.4-0.1,0.9-0.2,1.4c-0.1,0.5-0.3,1-0.4,1.5
			c-0.6,2.1-1.5,4.7-3.2,7.4c-1.7,2.6-4.1,5.3-7.2,7.6c-3.2,2.2-7.2,3.9-11.6,4.6c-0.6,0.1-1.1,0.1-1.7,0.2c-0.6,0-1.1,0.1-1.8,0.1
			c-1.1,0-2.2,0-3.5-0.2c-2.4-0.2-4.8-0.9-7.1-1.8c-2.3-0.9-4.5-2.3-6.6-3.8c-2-1.6-3.8-3.6-5.3-5.7c-1.5-2.2-2.7-4.6-3.5-7.2
			c-0.3-1.3-0.7-2.6-0.9-3.9c-0.1-0.7-0.2-1.3-0.2-2l-0.1-2.1c0.1-2.4,0.4-5.4,1.2-7.9c0.8-2.6,2-5,3.5-7.2c1.5-2.2,3.3-4.1,5.3-5.8
			c2.1-1.6,4.2-2.9,6.6-3.8c4.6-1.9,9.6-2.4,14-1.8c4.5,0.7,8.5,2.4,11.7,4.6c3.2,2.3,5.6,5,7.2,7.6c1.7,2.6,2.6,5.2,3.2,7.4
			c0.1,0.5,0.3,1.1,0.4,1.5c0.1,0.5,0.1,1,0.2,1.4c0.1,0.9,0.2,1.6,0.2,2.2C181.1,84.9,181.1,85.5,181.1,85.5z M181.1,85.5
			c0,0,0-0.6-0.1-1.8c0-0.6-0.1-1.3-0.3-2.2c-0.1-0.4-0.1-0.9-0.2-1.4c-0.1-0.5-0.3-1-0.4-1.5c-0.6-2.1-1.6-4.7-3.4-7.3
			c-1.7-2.5-4.2-5.2-7.4-7.2c-3.2-2-7.2-3.4-11.4-3.8c-0.5-0.1-1.1,0-1.6-0.1l-0.8,0l-0.4,0l-0.4,0c-1.1,0.1-2.2,0.1-3.3,0.4
			c-2.2,0.3-4.4,1.1-6.5,2.1c-2.1,1-4,2.3-5.8,3.8c-1.8,1.6-3.3,3.4-4.6,5.4c-1.3,2-2.3,4.2-3,6.5c-0.7,2.4-1,4.5-1,7.2l0.1,1.7
			c0,0.6,0.1,1.2,0.2,1.8c0.1,1.2,0.5,2.4,0.7,3.5c0.7,2.3,1.7,4.5,3,6.5c1.3,2,2.9,3.8,4.6,5.4c1.8,1.5,3.7,2.9,5.8,3.8
			c2.1,0.9,4.3,1.7,6.4,2c1.1,0.2,2.2,0.3,3.3,0.4c0.5,0.1,1.1,0,1.6,0c0.5,0,1.1,0,1.6-0.1c4.3-0.4,8.2-1.8,11.4-3.8
			c3.2-2,5.6-4.6,7.4-7.2c1.8-2.5,2.7-5.1,3.4-7.3c0.1-0.5,0.3-1.1,0.4-1.5c0.1-0.5,0.2-0.9,0.2-1.4c0.1-0.9,0.3-1.6,0.3-2.2
			C181.1,86.2,181.1,85.5,181.1,85.5z"/>
	</g>
</g>
<g>
	<circle class="st2" cx="28.5" cy="132.2" r="26.1"/>
	<g>
		<path d="M54.6,132.2c0,0,0,0.6-0.1,1.8c0,0.6-0.1,1.3-0.2,2.2c-0.1,0.4-0.1,0.9-0.2,1.4c-0.1,0.5-0.3,1-0.4,1.5
			c-0.6,2.1-1.5,4.7-3.2,7.4c-1.7,2.6-4.1,5.3-7.2,7.6c-3.2,2.2-7.2,3.9-11.6,4.6c-0.6,0.1-1.1,0.1-1.7,0.2c-0.6,0-1.1,0.1-1.8,0.1
			c-1.1,0-2.2,0-3.5-0.2c-2.4-0.2-4.8-0.9-7.1-1.8c-2.3-0.9-4.5-2.3-6.6-3.8c-2-1.6-3.8-3.6-5.3-5.7c-1.5-2.2-2.7-4.6-3.5-7.2
			c-0.8-2.6-1.2-5.3-1.2-8l0.1-2c0-0.6,0.1-1.3,0.2-2c0.2-1.4,0.5-2.7,0.9-4c0.8-2.6,2-5,3.5-7.2c1.5-2.2,3.3-4.1,5.3-5.8
			c2.1-1.6,4.2-2.9,6.6-3.8c4.6-1.9,9.6-2.4,14-1.8c4.5,0.7,8.5,2.4,11.7,4.6c3.2,2.3,5.6,5,7.2,7.6c1.7,2.6,2.6,5.2,3.2,7.4
			c0.1,0.5,0.3,1.1,0.4,1.5c0.1,0.5,0.1,1,0.2,1.4c0.1,0.9,0.2,1.6,0.2,2.2C54.5,131.6,54.6,132.2,54.6,132.2z M54.6,132.2
			c0,0,0-0.6-0.1-1.8c0-0.6-0.1-1.3-0.3-2.2c-0.1-0.4-0.1-0.9-0.2-1.4c-0.1-0.5-0.3-1-0.4-1.5c-0.6-2.1-1.6-4.7-3.4-7.3
			c-1.7-2.5-4.2-5.2-7.4-7.2c-3.2-2-7.2-3.4-11.4-3.8c-0.5-0.1-1.1,0-1.6-0.1l-0.8,0l-0.4,0l-0.4,0c-1.1,0.1-2.2,0.1-3.3,0.4
			c-2.2,0.3-4.4,1.1-6.5,2.1c-2.1,1-4,2.3-5.8,3.8c-1.8,1.6-3.3,3.4-4.6,5.4c-1.3,2-2.3,4.2-3,6.5c-0.3,1.2-0.6,2.3-0.7,3.5
			C4,129.6,4,131.1,4,132.2c0,2.4,0.3,4.8,1,7.1c0.7,2.3,1.7,4.5,3,6.5c1.3,2,2.9,3.8,4.6,5.4c1.8,1.5,3.7,2.9,5.8,3.8
			c2.1,0.9,4.3,1.7,6.4,2c1.1,0.2,2.2,0.3,3.3,0.4c0.5,0.1,1.1,0,1.6,0c0.5,0,1.1,0,1.6-0.1c4.3-0.4,8.2-1.8,11.4-3.8
			c3.2-2,5.6-4.6,7.4-7.2c1.8-2.5,2.7-5.1,3.4-7.3c0.1-0.5,0.3-1.1,0.4-1.5c0.1-0.5,0.2-0.9,0.2-1.4c0.1-0.9,0.3-1.6,0.3-2.2
			C54.5,132.8,54.6,132.2,54.6,132.2z"/>
	</g>
</g>
<g>
	<circle class="st2" cx="45.9" cy="104" r="26.1"/>
	<g>
		<path d="M71.9,104c0,0,0,0.6-0.1,1.8c0,0.6-0.1,1.3-0.2,2.2c-0.1,0.4-0.1,0.9-0.2,1.4c-0.1,0.5-0.3,1-0.4,1.5
			c-0.6,2.1-1.5,4.7-3.2,7.4c-1.7,2.6-4.1,5.3-7.2,7.6c-3.2,2.2-7.2,3.9-11.6,4.6c-0.6,0.1-1.1,0.1-1.7,0.2c-0.6,0-1.1,0.1-1.8,0.1
			c-1.1,0-2.2,0-3.5-0.2c-2.4-0.2-4.8-0.9-7.1-1.8c-2.3-0.9-4.5-2.3-6.6-3.8c-2-1.6-3.8-3.6-5.3-5.7c-1.5-2.2-2.7-4.6-3.5-7.2
			c-0.8-2.6-1.2-5.3-1.2-8l0.1-2c0-0.6,0.1-1.3,0.2-2c0.2-1.4,0.5-2.7,0.9-4c0.8-2.6,2-5,3.5-7.2c1.5-2.2,3.3-4.1,5.3-5.8
			c2.1-1.6,4.2-2.9,6.6-3.8c4.6-1.9,9.6-2.4,14-1.8c4.5,0.7,8.5,2.4,11.7,4.6c3.2,2.3,5.6,5,7.2,7.6c1.7,2.6,2.6,5.2,3.2,7.4
			c0.1,0.5,0.3,1.1,0.4,1.5c0.1,0.5,0.1,1,0.2,1.4c0.1,0.9,0.2,1.6,0.2,2.2C71.9,103.3,71.9,104,71.9,104z M71.9,104
			c0,0,0-0.6-0.1-1.8c0-0.6-0.1-1.3-0.3-2.2c-0.1-0.4-0.1-0.9-0.2-1.4c-0.1-0.5-0.3-1-0.4-1.5c-0.6-2.1-1.6-4.7-3.4-7.3
			c-1.7-2.5-4.2-5.2-7.4-7.2c-3.2-2-7.2-3.4-11.4-3.8c-0.5-0.1-1.1,0-1.6-0.1l-0.8,0l-0.4,0l-0.4,0c-1.1,0.1-2.2,0.1-3.3,0.4
			c-2.2,0.3-4.4,1.1-6.5,2.1c-2.1,1-4,2.3-5.8,3.8c-1.8,1.6-3.3,3.4-4.6,5.4c-1.3,2-2.3,4.2-3,6.5c-0.3,1.2-0.6,2.3-0.7,3.5
			c-0.2,1.1-0.2,2.5-0.3,3.6c0,2.4,0.3,4.8,1,7.1c0.7,2.3,1.7,4.5,3,6.5c1.3,2,2.9,3.8,4.6,5.4c1.8,1.5,3.7,2.9,5.8,3.8
			c2.1,0.9,4.3,1.7,6.4,2c1.1,0.2,2.2,0.3,3.3,0.4c0.5,0.1,1.1,0,1.6,0c0.5,0,1.1,0,1.6-0.1c4.3-0.4,8.2-1.8,11.4-3.8
			c3.2-2,5.6-4.6,7.4-7.2c1.8-2.5,2.7-5.1,3.4-7.3c0.1-0.5,0.3-1.1,0.4-1.5c0.1-0.5,0.2-0.9,0.2-1.4c0.1-0.9,0.3-1.6,0.3-2.2
			C71.9,104.6,71.9,104,71.9,104z"/>
	</g>
</g>
<g>
	<circle class="st2" cx="112.5" cy="217.6" r="26.1"/>
	<g>
		<path d="M138.5,217.6c0,0,0,0.6-0.1,1.8c0,0.6-0.1,1.3-0.2,2.2c-0.1,0.4-0.1,0.9-0.2,1.4c-0.1,0.5-0.3,1-0.4,1.5
			c-0.6,2.1-1.5,4.7-3.2,7.4c-1.7,2.6-4.1,5.3-7.2,7.6c-3.2,2.2-7.2,3.9-11.6,4.6c-0.6,0.1-1.1,0.1-1.7,0.2c-0.6,0-1.1,0.1-1.8,0.1
			c-1.1,0-2.2,0-3.5-0.2c-2.4-0.2-4.8-0.9-7.1-1.8c-2.3-0.9-4.5-2.3-6.6-3.8c-2-1.6-3.8-3.6-5.3-5.7c-1.5-2.2-2.7-4.6-3.5-7.2
			c-0.8-2.6-1.2-5.3-1.2-8l0.1-2c0-0.6,0.1-1.3,0.2-2c0.2-1.4,0.5-2.7,0.9-4c0.8-2.6,2-5,3.5-7.2c1.5-2.2,3.3-4.1,5.3-5.8
			c2.1-1.6,4.2-2.9,6.6-3.8c4.6-1.9,9.6-2.4,14-1.8c4.5,0.7,8.5,2.4,11.7,4.6c3.2,2.3,5.6,5,7.2,7.6c1.7,2.6,2.6,5.2,3.2,7.4
			c0.1,0.5,0.3,1.1,0.4,1.5c0.1,0.5,0.1,1,0.2,1.4c0.1,0.9,0.2,1.6,0.2,2.2C138.5,217,138.5,217.6,138.5,217.6z M138.5,217.6
			c0,0,0-0.6-0.1-1.8c0-0.6-0.1-1.3-0.3-2.2c-0.1-0.4-0.1-0.9-0.2-1.4c-0.1-0.5-0.3-1-0.4-1.5c-0.6-2.1-1.6-4.7-3.4-7.3
			c-1.7-2.5-4.2-5.2-7.4-7.2c-3.2-2-7.2-3.4-11.4-3.8c-0.5-0.1-1.1,0-1.6-0.1l-0.8,0l-0.4,0l-0.4,0c-1.1,0.1-2.2,0.1-3.3,0.4
			c-2.2,0.3-4.4,1.1-6.5,2.1c-2.1,1-4,2.3-5.8,3.8c-1.8,1.6-3.3,3.4-4.6,5.4c-1.3,2-2.3,4.2-3,6.5c-0.3,1.2-0.6,2.3-0.7,3.5
			c-0.2,1.1-0.2,2.5-0.3,3.6c0,2.4,0.3,4.8,1,7.1c0.7,2.3,1.7,4.5,3,6.5c1.3,2,2.9,3.8,4.6,5.4c1.8,1.5,3.7,2.9,5.8,3.8
			c2.1,0.9,4.3,1.7,6.4,2c1.1,0.2,2.2,0.3,3.3,0.4c0.5,0.1,1.1,0,1.6,0c0.5,0,1.1,0,1.6-0.1c4.3-0.4,8.2-1.8,11.4-3.8
			c3.2-2,5.6-4.6,7.4-7.2c1.8-2.5,2.7-5.1,3.4-7.3c0.1-0.5,0.3-1.1,0.4-1.5c0.1-0.5,0.2-0.9,0.2-1.4c0.1-0.9,0.3-1.6,0.3-2.2
			C138.5,218.2,138.5,217.6,138.5,217.6z"/>
	</g>
</g>
<g>
	<circle class="st2" cx="82.1" cy="182.9" r="26.1"/>
	<g>
		<path d="M108.1,182.9c0,0,0,0.6-0.1,1.8c0,0.6-0.1,1.3-0.2,2.2c-0.1,0.4-0.1,0.9-0.2,1.4c-0.1,0.5-0.3,1-0.4,1.5
			c-0.6,2.1-1.5,4.7-3.2,7.4c-1.7,2.6-4.1,5.3-7.2,7.6c-3.2,2.2-7.2,3.9-11.6,4.6c-0.6,0.1-1.1,0.1-1.7,0.2c-0.6,0-1.1,0.1-1.8,0.1
			c-1.1,0-2.2,0-3.5-0.2c-2.4-0.2-4.8-0.9-7.1-1.8c-2.3-0.9-4.5-2.3-6.6-3.8c-2-1.6-3.8-3.6-5.3-5.7c-1.5-2.2-2.7-4.6-3.5-7.2
			c-0.8-2.6-1.2-5.3-1.2-8l0.1-2c0-0.6,0.1-1.3,0.2-2c0.2-1.4,0.5-2.7,0.9-4c0.8-2.6,2-5,3.5-7.2c1.5-2.2,3.3-4.1,5.3-5.8
			c2.1-1.6,4.2-2.9,6.6-3.8c4.6-1.9,9.6-2.4,14-1.8c4.5,0.7,8.5,2.4,11.7,4.6c3.2,2.3,5.6,5,7.2,7.6c1.7,2.6,2.6,5.2,3.2,7.4
			c0.1,0.5,0.3,1.1,0.4,1.5c0.1,0.5,0.1,1,0.2,1.4c0.1,0.9,0.2,1.6,0.2,2.2C108.1,182.2,108.1,182.9,108.1,182.9z M108.1,182.9
			c0,0,0-0.6-0.1-1.8c0-0.6-0.1-1.3-0.3-2.2c-0.1-0.4-0.1-0.9-0.2-1.4c-0.1-0.5-0.3-1-0.4-1.5c-0.6-2.1-1.6-4.7-3.4-7.3
			c-1.7-2.5-4.2-5.2-7.4-7.2c-3.2-2-7.2-3.4-11.4-3.8c-0.5-0.1-1.1,0-1.6-0.1l-0.8,0l-0.4,0l-0.4,0c-1.1,0.1-2.2,0.1-3.3,0.4
			c-2.2,0.3-4.4,1.1-6.5,2.1c-2.1,1-4,2.3-5.8,3.8c-1.8,1.6-3.3,3.4-4.6,5.4c-1.3,2-2.3,4.2-3,6.5c-0.3,1.2-0.6,2.3-0.7,3.5
			c-0.2,1.1-0.2,2.5-0.3,3.6c0,2.4,0.3,4.8,1,7.1c0.7,2.3,1.7,4.5,3,6.5c1.3,2,2.9,3.8,4.6,5.4c1.8,1.5,3.7,2.9,5.8,3.8
			c2.1,0.9,4.3,1.7,6.4,2c1.1,0.2,2.2,0.3,3.3,0.4c0.5,0.1,1.1,0,1.6,0c0.5,0,1.1,0,1.6-0.1c4.3-0.4,8.2-1.8,11.4-3.8
			c3.2-2,5.6-4.6,7.4-7.2c1.8-2.5,2.7-5.1,3.4-7.3c0.1-0.5,0.3-1.1,0.4-1.5c0.1-0.5,0.2-0.9,0.2-1.4c0.1-0.9,0.3-1.6,0.3-2.2
			C108.1,183.5,108.1,182.9,108.1,182.9z"/>
	</g>
</g>
<g>
	<circle class="st2" cx="162.8" cy="203.5" r="26.1"/>
	<g>
		<path d="M188.8,203.5c0,0,0,0.6-0.1,1.8c0,0.6-0.1,1.3-0.2,2.2c-0.1,0.4-0.1,0.9-0.2,1.4c-0.1,0.5-0.3,1-0.4,1.5
			c-0.6,2.1-1.5,4.7-3.2,7.4c-1.7,2.6-4.1,5.3-7.2,7.6c-3.2,2.2-7.2,3.9-11.6,4.6c-0.6,0.1-1.1,0.1-1.7,0.2c-0.6,0-1.1,0.1-1.8,0.1
			c-1.1,0-2.2,0-3.5-0.2c-2.4-0.2-4.8-0.9-7.1-1.8c-2.3-0.9-4.5-2.3-6.6-3.8c-2-1.6-3.8-3.6-5.3-5.7c-1.5-2.2-2.7-4.6-3.5-7.2
			c-0.8-2.6-1.2-5.3-1.2-8l0.1-2c0-0.6,0.1-1.3,0.2-2c0.2-1.4,0.5-2.7,0.9-4c0.8-2.6,2-5,3.5-7.2c1.5-2.2,3.3-4.1,5.3-5.8
			c2.1-1.6,4.2-2.9,6.6-3.8c4.6-1.9,9.6-2.4,14-1.8c4.5,0.7,8.5,2.4,11.7,4.6c3.2,2.3,5.6,5,7.2,7.6c1.7,2.6,2.6,5.2,3.2,7.4
			c0.1,0.5,0.3,1.1,0.4,1.5c0.1,0.5,0.1,1,0.2,1.4c0.1,0.9,0.2,1.6,0.2,2.2C188.8,202.9,188.8,203.5,188.8,203.5z M188.8,203.5
			c0,0,0-0.6-0.1-1.8c0-0.6-0.1-1.3-0.3-2.2c-0.1-0.4-0.1-0.9-0.2-1.4c-0.1-0.5-0.3-1-0.4-1.5c-0.6-2.1-1.6-4.7-3.4-7.3
			c-1.7-2.5-4.2-5.2-7.4-7.2c-3.2-2-7.2-3.4-11.4-3.8c-0.5-0.1-1.1,0-1.6-0.1l-0.8,0l-0.4,0l-0.4,0c-1.1,0.1-2.2,0.1-3.3,0.4
			c-2.2,0.3-4.4,1.1-6.5,2.1c-2.1,1-4,2.3-5.8,3.8c-1.8,1.6-3.3,3.4-4.6,5.4c-1.3,2-2.3,4.2-3,6.5c-0.3,1.2-0.6,2.3-0.7,3.5
			c-0.2,1.1-0.2,2.5-0.3,3.6c0,2.4,0.3,4.8,1,7.1c0.7,2.3,1.7,4.5,3,6.5c1.3,2,2.9,3.8,4.6,5.4c1.8,1.5,3.7,2.9,5.8,3.8
			c2.1,0.9,4.3,1.7,6.4,2c1.1,0.2,2.2,0.3,3.3,0.4c0.5,0.1,1.1,0,1.6,0c0.5,0,1.1,0,1.6-0.1c4.3-0.4,8.2-1.8,11.4-3.8
			c3.2-2,5.6-4.6,7.4-7.2c1.8-2.5,2.7-5.1,3.4-7.3c0.1-0.5,0.3-1.1,0.4-1.5c0.1-0.5,0.2-0.9,0.2-1.4c0.1-0.9,0.3-1.6,0.3-2.2
			C188.8,204.1,188.8,203.5,188.8,203.5z"/>
	</g>
</g>
<g>
	<circle class="st2" cx="157.7" cy="165.5" r="26.1"/>
	<g>
		<path d="M183.7,165.5c0,0,0,0.6-0.1,1.8c0,0.6-0.1,1.3-0.2,2.2c-0.1,0.4-0.1,0.9-0.2,1.4c-0.1,0.5-0.3,1-0.4,1.5
			c-0.6,2.1-1.5,4.7-3.2,7.4c-1.7,2.6-4.1,5.3-7.2,7.6c-3.2,2.2-7.2,3.9-11.6,4.6c-0.6,0.1-1.1,0.1-1.7,0.2c-0.6,0-1.1,0.1-1.8,0.1
			c-1.1,0-2.2,0-3.5-0.2c-2.4-0.2-4.8-0.9-7.1-1.8c-2.3-0.9-4.5-2.3-6.6-3.8c-2-1.6-3.8-3.6-5.3-5.7c-1.5-2.2-2.7-4.6-3.5-7.2
			c-0.8-2.6-1.2-5.3-1.2-8l0.1-2c0-0.6,0.1-1.3,0.2-2c0.2-1.4,0.5-2.7,0.9-4c0.8-2.6,2-5,3.5-7.2c1.5-2.2,3.3-4.1,5.3-5.8
			c2.1-1.6,4.2-2.9,6.6-3.8c4.6-1.9,9.6-2.4,14-1.8c4.5,0.7,8.5,2.4,11.7,4.6c3.2,2.3,5.6,5,7.2,7.6c1.7,2.6,2.6,5.2,3.2,7.4
			c0.1,0.5,0.3,1.1,0.4,1.5c0.1,0.5,0.1,1,0.2,1.4c0.1,0.9,0.2,1.6,0.2,2.2C183.7,164.9,183.7,165.5,183.7,165.5z M183.7,165.5
			c0,0,0-0.6-0.1-1.8c0-0.6-0.1-1.3-0.3-2.2c-0.1-0.4-0.1-0.9-0.2-1.4c-0.1-0.5-0.3-1-0.4-1.5c-0.6-2.1-1.6-4.7-3.4-7.3
			c-1.7-2.5-4.2-5.2-7.4-7.2c-3.2-2-7.2-3.4-11.4-3.8c-0.5-0.1-1.1,0-1.6-0.1l-0.8,0l-0.4,0l-0.4,0c-1.1,0.1-2.2,0.1-3.3,0.4
			c-2.2,0.3-4.4,1.1-6.5,2.1c-2.1,1-4,2.3-5.8,3.8c-1.8,1.6-3.3,3.4-4.6,5.4c-1.3,2-2.3,4.2-3,6.5c-0.3,1.2-0.6,2.3-0.7,3.5
			c-0.2,1.1-0.2,2.5-0.3,3.6c0,2.4,0.3,4.8,1,7.1c0.7,2.3,1.7,4.5,3,6.5c1.3,2,2.9,3.8,4.6,5.4c1.8,1.5,3.7,2.9,5.8,3.8
			c2.1,0.9,4.3,1.7,6.4,2c1.1,0.2,2.2,0.3,3.3,0.4c0.5,0.1,1.1,0,1.6,0c0.5,0,1.1,0,1.6-0.1c4.3-0.4,8.2-1.8,11.4-3.8
			c3.2-2,5.6-4.6,7.4-7.2c1.8-2.5,2.7-5.1,3.4-7.3c0.1-0.5,0.3-1.1,0.4-1.5c0.1-0.5,0.2-0.9,0.2-1.4c0.1-0.9,0.3-1.6,0.3-2.2
			C183.7,166.1,183.7,165.5,183.7,165.5z"/>
	</g>
</g>
<g>
	<circle class="st2" cx="172.8" cy="128.2" r="26.1"/>
	<g>
		<path d="M198.9,128.2c0,0,0,0.6-0.1,1.8c0,0.6-0.1,1.3-0.2,2.2c-0.1,0.4-0.1,0.9-0.2,1.4c-0.1,0.5-0.3,1-0.4,1.5
			c-0.6,2.1-1.5,4.7-3.2,7.4c-1.7,2.6-4.1,5.3-7.2,7.6c-3.2,2.2-7.2,3.9-11.6,4.6c-0.6,0.1-1.1,0.1-1.7,0.2c-0.6,0-1.1,0.1-1.8,0.1
			c-1.1,0-2.2,0-3.5-0.2c-2.4-0.2-4.8-0.9-7.1-1.8c-2.3-0.9-4.5-2.3-6.6-3.8c-2-1.6-3.8-3.6-5.3-5.7c-1.5-2.2-2.7-4.6-3.5-7.2
			c-0.8-2.6-1.2-5.3-1.2-8l0.1-2c0-0.6,0.1-1.3,0.2-2c0.2-1.4,0.5-2.7,0.9-4c0.8-2.6,2-5,3.5-7.2c1.5-2.2,3.3-4.1,5.3-5.8
			c2.1-1.6,4.2-2.9,6.6-3.8c4.6-1.9,9.6-2.4,14-1.8c4.5,0.7,8.5,2.4,11.7,4.6c3.2,2.3,5.6,5,7.2,7.6c1.7,2.6,2.6,5.2,3.2,7.4
			c0.1,0.5,0.3,1.1,0.4,1.5c0.1,0.5,0.1,1,0.2,1.4c0.1,0.9,0.2,1.6,0.2,2.2C198.8,127.6,198.9,128.2,198.9,128.2z M198.9,128.2
			c0,0,0-0.6-0.1-1.8c0-0.6-0.1-1.3-0.3-2.2c-0.1-0.4-0.1-0.9-0.2-1.4c-0.1-0.5-0.3-1-0.4-1.5c-0.6-2.1-1.6-4.7-3.4-7.3
			c-1.7-2.5-4.2-5.2-7.4-7.2c-3.2-2-7.2-3.4-11.4-3.8c-0.5-0.1-1.1,0-1.6-0.1l-0.8,0l-0.4,0l-0.4,0c-1.1,0.1-2.2,0.1-3.3,0.4
			c-2.2,0.3-4.4,1.1-6.5,2.1c-2.1,1-4,2.3-5.8,3.8c-1.8,1.6-3.3,3.4-4.6,5.4c-1.3,2-2.3,4.2-3,6.5c-0.3,1.2-0.6,2.3-0.7,3.5
			c-0.2,1.1-0.2,2.5-0.3,3.6c0,2.4,0.3,4.8,1,7.1c0.7,2.3,1.7,4.5,3,6.5c1.3,2,2.9,3.8,4.6,5.4c1.8,1.5,3.7,2.9,5.8,3.8
			c2.1,0.9,4.3,1.7,6.4,2c1.1,0.2,2.2,0.3,3.3,0.4c0.5,0.1,1.1,0,1.6,0c0.5,0,1.1,0,1.6-0.1c4.3-0.4,8.2-1.8,11.4-3.8
			c3.2-2,5.6-4.6,7.4-7.2c1.8-2.5,2.7-5.1,3.4-7.3c0.1-0.5,0.3-1.1,0.4-1.5c0.1-0.5,0.2-0.9,0.2-1.4c0.1-0.9,0.3-1.6,0.3-2.2
			C198.8,128.9,198.9,128.2,198.9,128.2z"/>
	</g>
</g>
<g>
	<circle class="st2" cx="134.2" cy="143.8" r="26.1"/>
	<g>
		<path d="M160.2,143.8c0,0,0,0.6-0.1,1.8c0,0.6-0.1,1.3-0.2,2.2c-0.1,0.4-0.1,0.9-0.2,1.4c-0.1,0.5-0.3,1-0.4,1.5
			c-0.6,2.1-1.5,4.7-3.2,7.4c-1.7,2.6-4.1,5.3-7.2,7.6c-3.2,2.2-7.2,3.9-11.6,4.6c-0.6,0.1-1.1,0.1-1.7,0.2c-0.6,0-1.1,0.1-1.8,0.1
			c-1.1,0-2.2,0-3.5-0.2c-2.4-0.2-4.8-0.9-7.1-1.8c-2.3-0.9-4.5-2.3-6.6-3.8c-2-1.6-3.8-3.6-5.3-5.7c-1.5-2.2-2.7-4.6-3.5-7.2
			c-0.8-2.6-1.2-5.3-1.2-8l0.1-2c0-0.6,0.1-1.3,0.2-2c0.2-1.4,0.5-2.7,0.9-4c0.8-2.6,2-5,3.5-7.2c1.5-2.2,3.3-4.1,5.3-5.8
			c2.1-1.6,4.2-2.9,6.6-3.8c4.6-1.9,9.6-2.4,14-1.8c4.5,0.7,8.5,2.4,11.7,4.6c3.2,2.3,5.6,5,7.2,7.6c1.7,2.6,2.6,5.2,3.2,7.4
			c0.1,0.5,0.3,1.1,0.4,1.5c0.1,0.5,0.1,1,0.2,1.4c0.1,0.9,0.2,1.6,0.2,2.2C160.2,143.2,160.2,143.8,160.2,143.8z M160.2,143.8
			c0,0,0-0.6-0.1-1.8c0-0.6-0.1-1.3-0.3-2.2c-0.1-0.4-0.1-0.9-0.2-1.4c-0.1-0.5-0.3-1-0.4-1.5c-0.6-2.1-1.6-4.7-3.4-7.3
			c-1.7-2.5-4.2-5.2-7.4-7.2c-3.2-2-7.2-3.4-11.4-3.8c-0.5-0.1-1.1,0-1.6-0.1l-0.8,0l-0.4,0l-0.4,0c-1.1,0.1-2.2,0.1-3.3,0.4
			c-2.2,0.3-4.4,1.1-6.5,2.1c-2.1,1-4,2.3-5.8,3.8c-1.8,1.6-3.3,3.4-4.6,5.4c-1.3,2-2.3,4.2-3,6.5c-0.3,1.2-0.6,2.3-0.7,3.5
			c-0.2,1.1-0.2,2.5-0.3,3.6c0,2.4,0.3,4.8,1,7.1c0.7,2.3,1.7,4.5,3,6.5c1.3,2,2.9,3.8,4.6,5.4c1.8,1.5,3.7,2.9,5.8,3.8
			c2.1,0.9,4.3,1.7,6.4,2c1.1,0.2,2.2,0.3,3.3,0.4c0.5,0.1,1.1,0,1.6,0c0.5,0,1.1,0,1.6-0.1c4.3-0.4,8.2-1.8,11.4-3.8
			c3.2-2,5.6-4.6,7.4-7.2c1.8-2.5,2.7-5.1,3.4-7.3c0.1-0.5,0.3-1.1,0.4-1.5c0.1-0.5,0.2-0.9,0.2-1.4c0.1-0.9,0.3-1.6,0.3-2.2
			C160.2,144.4,160.2,143.8,160.2,143.8z"/>
	</g>
</g>
<g>
	<circle class="st2" cx="152.9" cy="99.6" r="26.1"/>
	<g>
		<path d="M179,99.6c0,0,0,0.6-0.1,1.8c0,0.6-0.1,1.3-0.2,2.2c-0.1,0.4-0.1,0.9-0.2,1.4c-0.1,0.5-0.3,1-0.4,1.5
			c-0.6,2.1-1.5,4.7-3.2,7.4c-1.7,2.6-4.1,5.3-7.2,7.6c-3.2,2.2-7.2,3.9-11.6,4.6c-0.6,0.1-1.1,0.1-1.7,0.2c-0.6,0-1.1,0.1-1.8,0.1
			c-1.1,0-2.2,0-3.5-0.2c-2.4-0.2-4.8-0.9-7.1-1.8c-2.3-0.9-4.5-2.3-6.6-3.8c-2-1.6-3.8-3.6-5.3-5.7c-1.5-2.2-2.7-4.6-3.5-7.2
			c-0.3-1.3-0.7-2.6-0.9-3.9c-0.1-0.7-0.2-1.3-0.2-2l-0.1-2.1c0.1-2.4,0.4-5.4,1.2-7.9c0.8-2.6,2-5,3.5-7.2c1.5-2.2,3.3-4.1,5.3-5.8
			c2.1-1.6,4.2-2.9,6.6-3.8c4.6-1.9,9.6-2.4,14-1.8c4.5,0.7,8.5,2.4,11.7,4.6c3.2,2.3,5.6,5,7.2,7.6c1.7,2.6,2.6,5.2,3.2,7.4
			c0.1,0.5,0.3,1.1,0.4,1.5c0.1,0.5,0.1,1,0.2,1.4c0.1,0.9,0.2,1.6,0.2,2.2C178.9,99,179,99.6,179,99.6z M179,99.6
			c0,0,0-0.6-0.1-1.8c0-0.6-0.1-1.3-0.3-2.2c-0.1-0.4-0.1-0.9-0.2-1.4c-0.1-0.5-0.3-1-0.4-1.5c-0.6-2.1-1.6-4.7-3.4-7.3
			c-1.7-2.5-4.2-5.2-7.4-7.2c-3.2-2-7.2-3.4-11.4-3.8c-0.5-0.1-1.1,0-1.6-0.1l-0.8,0l-0.4,0l-0.4,0c-1.1,0.1-2.2,0.1-3.3,0.4
			c-2.2,0.3-4.4,1.1-6.5,2.1c-2.1,1-4,2.3-5.8,3.8c-1.8,1.6-3.3,3.4-4.6,5.4c-1.3,2-2.3,4.2-3,6.5c-0.7,2.4-1,4.5-1,7.2l0.1,1.7
			c0,0.6,0.1,1.2,0.2,1.8c0.1,1.2,0.5,2.4,0.7,3.5c0.7,2.3,1.7,4.5,3,6.5c1.3,2,2.9,3.8,4.6,5.4c1.8,1.5,3.7,2.9,5.8,3.8
			c2.1,0.9,4.3,1.7,6.4,2c1.1,0.2,2.2,0.3,3.3,0.4c0.5,0.1,1.1,0,1.6,0c0.5,0,1.1,0,1.6-0.1c4.3-0.4,8.2-1.8,11.4-3.8
			c3.2-2,5.6-4.6,7.4-7.2c1.8-2.5,2.7-5.1,3.4-7.3c0.1-0.5,0.3-1.1,0.4-1.5c0.1-0.5,0.2-0.9,0.2-1.4c0.1-0.9,0.3-1.6,0.3-2.2
			C178.9,100.3,179,99.6,179,99.6z"/>
	</g>
</g>
<g>
	<circle class="st2" cx="117.4" cy="87.3" r="26.1"/>
	<g>
		<path d="M143.5,87.3c0,0,0,0.6-0.1,1.8c0,0.6-0.1,1.3-0.2,2.2c-0.1,0.4-0.1,0.9-0.2,1.4c-0.1,0.5-0.3,1-0.4,1.5
			c-0.6,2.1-1.5,4.7-3.2,7.4c-1.7,2.6-4.1,5.3-7.2,7.6c-3.2,2.2-7.2,3.9-11.6,4.6c-0.6,0.1-1.1,0.1-1.7,0.2c-0.6,0-1.1,0.1-1.8,0.1
			c-1.1,0-2.2,0-3.5-0.2c-2.4-0.2-4.8-0.9-7.1-1.8c-2.3-0.9-4.5-2.3-6.6-3.8c-2-1.6-3.8-3.6-5.3-5.7c-1.5-2.2-2.7-4.6-3.5-7.2
			c-0.3-1.3-0.7-2.6-0.9-3.9c-0.1-0.7-0.2-1.3-0.2-2l-0.1-2.1c0.1-2.4,0.4-5.4,1.2-7.9c0.8-2.6,2-5,3.5-7.2c1.5-2.2,3.3-4.1,5.3-5.8
			c2.1-1.6,4.2-2.9,6.6-3.8c4.6-1.9,9.6-2.4,14-1.8c4.5,0.7,8.5,2.4,11.7,4.6c3.2,2.3,5.6,5,7.2,7.6c1.7,2.6,2.6,5.2,3.2,7.4
			c0.1,0.5,0.3,1.1,0.4,1.5c0.1,0.5,0.1,1,0.2,1.4c0.1,0.9,0.2,1.6,0.2,2.2C143.5,86.7,143.5,87.3,143.5,87.3z M143.5,87.3
			c0,0,0-0.6-0.1-1.8c0-0.6-0.1-1.3-0.3-2.2c-0.1-0.4-0.1-0.9-0.2-1.4c-0.1-0.5-0.3-1-0.4-1.5c-0.6-2.1-1.6-4.7-3.4-7.3
			c-1.7-2.5-4.2-5.2-7.4-7.2c-3.2-2-7.2-3.4-11.4-3.8c-0.5-0.1-1.1,0-1.6-0.1l-0.8,0l-0.4,0l-0.4,0c-1.1,0.1-2.2,0.1-3.3,0.4
			c-2.2,0.3-4.4,1.1-6.5,2.1c-2.1,1-4,2.3-5.8,3.8c-1.8,1.6-3.3,3.4-4.6,5.4c-1.3,2-2.3,4.2-3,6.5c-0.7,2.4-1,4.5-1,7.2l0.1,1.7
			c0,0.6,0.1,1.2,0.2,1.8c0.1,1.2,0.5,2.4,0.7,3.5c0.7,2.3,1.7,4.5,3,6.5c1.3,2,2.9,3.8,4.6,5.4c1.8,1.5,3.7,2.9,5.8,3.8
			c2.1,0.9,4.3,1.7,6.4,2c1.1,0.2,2.2,0.3,3.3,0.4c0.5,0.1,1.1,0,1.6,0c0.5,0,1.1,0,1.6-0.1c4.3-0.4,8.2-1.8,11.4-3.8
			c3.2-2,5.6-4.6,7.4-7.2c1.8-2.5,2.7-5.1,3.4-7.3c0.1-0.5,0.3-1.1,0.4-1.5c0.1-0.5,0.2-0.9,0.2-1.4c0.1-0.9,0.3-1.6,0.3-2.2
			C143.5,88,143.5,87.3,143.5,87.3z"/>
	</g>
</g>
<g>
	<circle class="st2" cx="98.9" cy="147.4" r="26.1"/>
	<g>
		<path d="M124.9,147.4c0,0,0,0.6-0.1,1.8c0,0.6-0.1,1.3-0.2,2.2c-0.1,0.4-0.1,0.9-0.2,1.4c-0.1,0.5-0.3,1-0.4,1.5
			c-0.6,2.1-1.5,4.7-3.2,7.4c-1.7,2.6-4.1,5.3-7.2,7.6c-3.2,2.2-7.2,3.9-11.6,4.6c-0.6,0.1-1.1,0.1-1.7,0.2c-0.6,0-1.1,0.1-1.8,0.1
			c-1.1,0-2.2,0-3.5-0.2c-2.4-0.2-4.8-0.9-7.1-1.8c-2.3-0.9-4.5-2.3-6.6-3.8c-2-1.6-3.8-3.6-5.3-5.7c-1.5-2.2-2.7-4.6-3.5-7.2
			c-0.3-1.3-0.7-2.6-0.9-3.9c-0.1-0.7-0.2-1.3-0.2-2l-0.1-2.1c0.1-2.4,0.4-5.4,1.2-7.9c0.8-2.6,2-5,3.5-7.2c1.5-2.2,3.3-4.1,5.3-5.8
			c2.1-1.6,4.2-2.9,6.6-3.8c4.6-1.9,9.6-2.4,14-1.8c4.5,0.7,8.5,2.4,11.7,4.6c3.2,2.3,5.6,5,7.2,7.6c1.7,2.6,2.6,5.2,3.2,7.4
			c0.1,0.5,0.3,1.1,0.4,1.5c0.1,0.5,0.1,1,0.2,1.4c0.1,0.9,0.2,1.6,0.2,2.2C124.9,146.8,124.9,147.4,124.9,147.4z M124.9,147.4
			c0,0,0-0.6-0.1-1.8c0-0.6-0.1-1.3-0.3-2.2c-0.1-0.4-0.1-0.9-0.2-1.4c-0.1-0.5-0.3-1-0.4-1.5c-0.6-2.1-1.6-4.7-3.4-7.3
			c-1.7-2.5-4.2-5.2-7.4-7.2c-3.2-2-7.2-3.4-11.4-3.8c-0.5-0.1-1.1,0-1.6-0.1l-0.8,0l-0.4,0l-0.4,0c-1.1,0.1-2.2,0.1-3.3,0.4
			c-2.2,0.3-4.4,1.1-6.5,2.1c-2.1,1-4,2.3-5.8,3.8c-1.8,1.6-3.3,3.4-4.6,5.4c-1.3,2-2.3,4.2-3,6.5c-0.7,2.4-1,4.5-1,7.2l0.1,1.7
			c0,0.6,0.1,1.2,0.2,1.8c0.1,1.2,0.5,2.4,0.7,3.5c0.7,2.3,1.7,4.5,3,6.5c1.3,2,2.9,3.8,4.6,5.4c1.8,1.5,3.7,2.9,5.8,3.8
			c2.1,0.9,4.3,1.7,6.4,2c1.1,0.2,2.2,0.3,3.3,0.4c0.5,0.1,1.1,0,1.6,0c0.5,0,1.1,0,1.6-0.1c4.3-0.4,8.2-1.8,11.4-3.8
			c3.2-2,5.6-4.6,7.4-7.2c1.8-2.5,2.7-5.1,3.4-7.3c0.1-0.5,0.3-1.1,0.4-1.5c0.1-0.5,0.2-0.9,0.2-1.4c0.1-0.9,0.3-1.6,0.3-2.2
			C124.9,148,124.9,147.4,124.9,147.4z"/>
	</g>
</g>
<g>
	<circle class="st2" cx="84.2" cy="80.1" r="26.1"/>
	<g>
		<path d="M110.3,80.1c0,0,0,0.6-0.1,1.8c0,0.6-0.1,1.3-0.2,2.2c-0.1,0.4-0.1,0.9-0.2,1.4c-0.1,0.5-0.3,1-0.4,1.5
			c-0.6,2.1-1.5,4.7-3.2,7.4c-1.7,2.6-4.1,5.3-7.2,7.6c-3.2,2.2-7.2,3.9-11.6,4.6c-0.6,0.1-1.1,0.1-1.7,0.2c-0.6,0-1.1,0.1-1.8,0.1
			c-1.1,0-2.2,0-3.5-0.2c-2.4-0.2-4.8-0.9-7.1-1.8c-2.3-0.9-4.5-2.3-6.6-3.8c-2-1.6-3.8-3.6-5.3-5.7c-1.5-2.2-2.7-4.6-3.5-7.2
			c-0.8-2.6-1.2-5.3-1.2-8l0.1-2c0-0.6,0.1-1.3,0.2-2c0.2-1.4,0.5-2.7,0.9-4c0.8-2.6,2-5,3.5-7.2c1.5-2.2,3.3-4.1,5.3-5.8
			c2.1-1.6,4.2-2.9,6.6-3.8c4.6-1.9,9.6-2.4,14-1.8c4.5,0.7,8.5,2.4,11.7,4.6c3.2,2.3,5.6,5,7.2,7.6c1.7,2.6,2.6,5.2,3.2,7.4
			c0.1,0.5,0.3,1.1,0.4,1.5c0.1,0.5,0.1,1,0.2,1.4c0.1,0.9,0.2,1.6,0.2,2.2C110.3,79.5,110.3,80.1,110.3,80.1z M110.3,80.1
			c0,0,0-0.6-0.1-1.8c0-0.6-0.1-1.3-0.3-2.2c-0.1-0.4-0.1-0.9-0.2-1.4c-0.1-0.5-0.3-1-0.4-1.5c-0.6-2.1-1.6-4.7-3.4-7.3
			c-1.7-2.5-4.2-5.2-7.4-7.2c-3.2-2-7.2-3.4-11.4-3.8c-0.5-0.1-1.1,0-1.6-0.1l-0.8,0l-0.4,0l-0.4,0c-1.1,0.1-2.2,0.1-3.3,0.4
			c-2.2,0.3-4.4,1.1-6.5,2.1c-2.1,1-4,2.3-5.8,3.8c-1.8,1.6-3.3,3.4-4.6,5.4c-1.3,2-2.3,4.2-3,6.5c-0.3,1.2-0.6,2.3-0.7,3.5
			c-0.2,1.1-0.2,2.5-0.3,3.6c0,2.4,0.3,4.8,1,7.1c0.7,2.3,1.7,4.5,3,6.5c1.3,2,2.9,3.8,4.6,5.4c1.8,1.5,3.7,2.9,5.8,3.8
			c2.1,0.9,4.3,1.7,6.4,2c1.1,0.2,2.2,0.3,3.3,0.4c0.5,0.1,1.1,0,1.6,0c0.5,0,1.1,0,1.6-0.1c4.3-0.4,8.2-1.8,11.4-3.8
			c3.2-2,5.6-4.6,7.4-7.2c1.8-2.5,2.7-5.1,3.4-7.3c0.1-0.5,0.3-1.1,0.4-1.5c0.1-0.5,0.2-0.9,0.2-1.4c0.1-0.9,0.3-1.6,0.3-2.2
			C110.3,80.7,110.3,80.1,110.3,80.1z"/>
	</g>
</g>
<g>
	<circle class="st2" cx="120.7" cy="113.4" r="26.1"/>
	<g>
		<path d="M146.8,113.4c0,0,0,0.6-0.1,1.8c0,0.6-0.1,1.3-0.2,2.2c-0.1,0.4-0.1,0.9-0.2,1.4c-0.1,0.5-0.3,1-0.4,1.5
			c-0.6,2.1-1.5,4.7-3.2,7.4c-1.7,2.6-4.1,5.3-7.2,7.6c-3.2,2.2-7.2,3.9-11.6,4.6c-0.6,0.1-1.1,0.1-1.7,0.2c-0.6,0-1.1,0.1-1.8,0.1
			c-1.1,0-2.2,0-3.5-0.2c-2.4-0.2-4.8-0.9-7.1-1.8c-2.3-0.9-4.5-2.3-6.6-3.8c-2-1.6-3.8-3.6-5.3-5.7c-1.5-2.2-2.7-4.6-3.5-7.2
			c-0.8-2.6-1.2-5.3-1.2-8l0.1-2c0-0.6,0.1-1.3,0.2-2c0.2-1.4,0.5-2.7,0.9-4c0.8-2.6,2-5,3.5-7.2c1.5-2.2,3.3-4.1,5.3-5.8
			c2.1-1.6,4.2-2.9,6.6-3.8c4.6-1.9,9.6-2.4,14-1.8c4.5,0.7,8.5,2.4,11.7,4.6c3.2,2.3,5.6,5,7.2,7.6c1.7,2.6,2.6,5.2,3.2,7.4
			c0.1,0.5,0.3,1.1,0.4,1.5c0.1,0.5,0.1,1,0.2,1.4c0.1,0.9,0.2,1.6,0.2,2.2C146.7,112.8,146.8,113.4,146.8,113.4z M146.8,113.4
			c0,0,0-0.6-0.1-1.8c0-0.6-0.1-1.3-0.3-2.2c-0.1-0.4-0.1-0.9-0.2-1.4c-0.1-0.5-0.3-1-0.4-1.5c-0.6-2.1-1.6-4.7-3.4-7.3
			c-1.7-2.5-4.2-5.2-7.4-7.2c-3.2-2-7.2-3.4-11.4-3.8c-0.5-0.1-1.1,0-1.6-0.1l-0.8,0l-0.4,0l-0.4,0c-1.1,0.1-2.2,0.1-3.3,0.4
			c-2.2,0.3-4.4,1.1-6.5,2.1c-2.1,1-4,2.3-5.8,3.8c-1.8,1.6-3.3,3.4-4.6,5.4c-1.3,2-2.3,4.2-3,6.5c-0.3,1.2-0.6,2.3-0.7,3.5
			c-0.2,1.1-0.2,2.5-0.3,3.6c0,2.4,0.3,4.8,1,7.1c0.7,2.3,1.7,4.5,3,6.5c1.3,2,2.9,3.8,4.6,5.4c1.8,1.5,3.7,2.9,5.8,3.8
			c2.1,0.9,4.3,1.7,6.4,2c1.1,0.2,2.2,0.3,3.3,0.4c0.5,0.1,1.1,0,1.6,0c0.5,0,1.1,0,1.6-0.1c4.3-0.4,8.2-1.8,11.4-3.8
			c3.2-2,5.6-4.6,7.4-7.2c1.8-2.5,2.7-5.1,3.4-7.3c0.1-0.5,0.3-1.1,0.4-1.5c0.1-0.5,0.2-0.9,0.2-1.4c0.1-0.9,0.3-1.6,0.3-2.2
			C146.7,114,146.8,113.4,146.8,113.4z"/>
	</g>
</g>
<g>
	<circle class="st2" cx="126.9" cy="185.8" r="26.1"/>
	<g>
		<path d="M152.9,185.8c0,0,0,0.6-0.1,1.8c0,0.6-0.1,1.3-0.2,2.2c-0.1,0.4-0.1,0.9-0.2,1.4c-0.1,0.5-0.3,1-0.4,1.5
			c-0.6,2.1-1.5,4.7-3.2,7.4c-1.7,2.6-4.1,5.3-7.2,7.6c-3.2,2.2-7.2,3.9-11.6,4.6c-0.6,0.1-1.1,0.1-1.7,0.2c-0.6,0-1.1,0.1-1.8,0.1
			c-1.1,0-2.2,0-3.5-0.2c-2.4-0.2-4.8-0.9-7.1-1.8c-2.3-0.9-4.5-2.3-6.6-3.8c-2-1.6-3.8-3.6-5.3-5.7c-1.5-2.2-2.7-4.6-3.5-7.2
			c-0.8-2.6-1.2-5.3-1.2-8l0.1-2c0-0.6,0.1-1.3,0.2-2c0.2-1.4,0.5-2.7,0.9-4c0.8-2.6,2-5,3.5-7.2c1.5-2.2,3.3-4.1,5.3-5.8
			c2.1-1.6,4.2-2.9,6.6-3.8c4.6-1.9,9.6-2.4,14-1.8c4.5,0.7,8.5,2.4,11.7,4.6c3.2,2.3,5.6,5,7.2,7.6c1.7,2.6,2.6,5.2,3.2,7.4
			c0.1,0.5,0.3,1.1,0.4,1.5c0.1,0.5,0.1,1,0.2,1.4c0.1,0.9,0.2,1.6,0.2,2.2C152.9,185.1,152.9,185.8,152.9,185.8z M152.9,185.8
			c0,0,0-0.6-0.1-1.8c0-0.6-0.1-1.3-0.3-2.2c-0.1-0.4-0.1-0.9-0.2-1.4c-0.1-0.5-0.3-1-0.4-1.5c-0.6-2.1-1.6-4.7-3.4-7.3
			c-1.7-2.5-4.2-5.2-7.4-7.2c-3.2-2-7.2-3.4-11.4-3.8c-0.5-0.1-1.1,0-1.6-0.1l-0.8,0l-0.4,0l-0.4,0c-1.1,0.1-2.2,0.1-3.3,0.4
			c-2.2,0.3-4.4,1.1-6.5,2.1c-2.1,1-4,2.3-5.8,3.8c-1.8,1.6-3.3,3.4-4.6,5.4c-1.3,2-2.3,4.2-3,6.5c-0.3,1.2-0.6,2.3-0.7,3.5
			c-0.2,1.1-0.2,2.5-0.3,3.6c0,2.4,0.3,4.8,1,7.1c0.7,2.3,1.7,4.5,3,6.5c1.3,2,2.9,3.8,4.6,5.4c1.8,1.5,3.7,2.9,5.8,3.8
			c2.1,0.9,4.3,1.7,6.4,2c1.1,0.2,2.2,0.3,3.3,0.4c0.5,0.1,1.1,0,1.6,0c0.5,0,1.1,0,1.6-0.1c4.3-0.4,8.2-1.8,11.4-3.8
			c3.2-2,5.6-4.6,7.4-7.2c1.8-2.5,2.7-5.1,3.4-7.3c0.1-0.5,0.3-1.1,0.4-1.5c0.1-0.5,0.2-0.9,0.2-1.4c0.1-0.9,0.3-1.6,0.3-2.2
			C152.9,186.4,152.9,185.8,152.9,185.8z"/>
	</g>
</g>
<g>
	<circle class="st2" cx="82.1" cy="108.7" r="26.1"/>
	<g>
		<path d="M108.1,108.7c0,0,0,0.6-0.1,1.8c0,0.6-0.1,1.3-0.2,2.2c-0.1,0.4-0.1,0.9-0.2,1.4c-0.1,0.5-0.3,1-0.4,1.5
			c-0.6,2.1-1.5,4.7-3.2,7.4c-1.7,2.6-4.1,5.3-7.2,7.6c-3.2,2.2-7.2,3.9-11.6,4.6c-0.6,0.1-1.1,0.1-1.7,0.2c-0.6,0-1.1,0.1-1.8,0.1
			c-1.1,0-2.2,0-3.5-0.2c-2.4-0.2-4.8-0.9-7.1-1.8c-2.3-0.9-4.5-2.3-6.6-3.8c-2-1.6-3.8-3.6-5.3-5.7c-1.5-2.2-2.7-4.6-3.5-7.2
			c-0.8-2.6-1.2-5.3-1.2-8l0.1-2c0-0.6,0.1-1.3,0.2-2c0.2-1.4,0.5-2.7,0.9-4c0.8-2.6,2-5,3.5-7.2c1.5-2.2,3.3-4.1,5.3-5.8
			c2.1-1.6,4.2-2.9,6.6-3.8c4.6-1.9,9.6-2.4,14-1.8c4.5,0.7,8.5,2.4,11.7,4.6c3.2,2.3,5.6,5,7.2,7.6c1.7,2.6,2.6,5.2,3.2,7.4
			c0.1,0.5,0.3,1.1,0.4,1.5c0.1,0.5,0.1,1,0.2,1.4c0.1,0.9,0.2,1.6,0.2,2.2C108.1,108.1,108.1,108.7,108.1,108.7z M108.1,108.7
			c0,0,0-0.6-0.1-1.8c0-0.6-0.1-1.3-0.3-2.2c-0.1-0.4-0.1-0.9-0.2-1.4c-0.1-0.5-0.3-1-0.4-1.5c-0.6-2.1-1.6-4.7-3.4-7.3
			c-1.7-2.5-4.2-5.2-7.4-7.2c-3.2-2-7.2-3.4-11.4-3.8c-0.5-0.1-1.1,0-1.6-0.1l-0.8,0l-0.4,0l-0.4,0c-1.1,0.1-2.2,0.1-3.3,0.4
			c-2.2,0.3-4.4,1.1-6.5,2.1c-2.1,1-4,2.3-5.8,3.8c-1.8,1.6-3.3,3.4-4.6,5.4c-1.3,2-2.3,4.2-3,6.5c-0.3,1.2-0.6,2.3-0.7,3.5
			c-0.2,1.1-0.2,2.5-0.3,3.6c0,2.4,0.3,4.8,1,7.1c0.7,2.3,1.7,4.5,3,6.5c1.3,2,2.9,3.8,4.6,5.4c1.8,1.5,3.7,2.9,5.8,3.8
			c2.1,0.9,4.3,1.7,6.4,2c1.1,0.2,2.2,0.3,3.3,0.4c0.5,0.1,1.1,0,1.6,0c0.5,0,1.1,0,1.6-0.1c4.3-0.4,8.2-1.8,11.4-3.8
			c3.2-2,5.6-4.6,7.4-7.2c1.8-2.5,2.7-5.1,3.4-7.3c0.1-0.5,0.3-1.1,0.4-1.5c0.1-0.5,0.2-0.9,0.2-1.4c0.1-0.9,0.3-1.6,0.3-2.2
			C108.1,109.3,108.1,108.7,108.1,108.7z"/>
	</g>
</g>
<g>
	<circle class="st2" cx="56" cy="163.7" r="26.1"/>
	<g>
		<path d="M82.1,163.7c0,0,0,0.6-0.1,1.8c0,0.6-0.1,1.3-0.2,2.2c-0.1,0.4-0.1,0.9-0.2,1.4c-0.1,0.5-0.3,1-0.4,1.5
			c-0.6,2.1-1.5,4.7-3.2,7.4c-1.7,2.6-4.1,5.3-7.2,7.6c-3.2,2.2-7.2,3.9-11.6,4.6c-0.6,0.1-1.1,0.1-1.7,0.2c-0.6,0-1.1,0.1-1.8,0.1
			c-1.1,0-2.2,0-3.5-0.2c-2.4-0.2-4.8-0.9-7.1-1.8c-2.3-0.9-4.5-2.3-6.6-3.8c-2-1.6-3.8-3.6-5.3-5.7c-1.5-2.2-2.7-4.6-3.5-7.2
			c-0.8-2.6-1.2-5.3-1.2-8l0.1-2c0-0.6,0.1-1.3,0.2-2c0.2-1.4,0.5-2.7,0.9-4c0.8-2.6,2-5,3.5-7.2c1.5-2.2,3.3-4.1,5.3-5.8
			c2.1-1.6,4.2-2.9,6.6-3.8c4.6-1.9,9.6-2.4,14-1.8c4.5,0.7,8.5,2.4,11.7,4.6c3.2,2.3,5.6,5,7.2,7.6c1.7,2.6,2.6,5.2,3.2,7.4
			c0.1,0.5,0.3,1.1,0.4,1.5c0.1,0.5,0.1,1,0.2,1.4c0.1,0.9,0.2,1.6,0.2,2.2C82,163.1,82.1,163.7,82.1,163.7z M82.1,163.7
			c0,0,0-0.6-0.1-1.8c0-0.6-0.1-1.3-0.3-2.2c-0.1-0.4-0.1-0.9-0.2-1.4c-0.1-0.5-0.3-1-0.4-1.5c-0.6-2.1-1.6-4.7-3.4-7.3
			c-1.7-2.5-4.2-5.2-7.4-7.2c-3.2-2-7.2-3.4-11.4-3.8c-0.5-0.1-1.1,0-1.6-0.1l-0.8,0l-0.4,0l-0.4,0c-1.1,0.1-2.2,0.1-3.3,0.4
			c-2.2,0.3-4.4,1.1-6.5,2.1c-2.1,1-4,2.3-5.8,3.8c-1.8,1.6-3.3,3.4-4.6,5.4c-1.3,2-2.3,4.2-3,6.5c-0.3,1.2-0.6,2.3-0.7,3.5
			c-0.2,1.1-0.2,2.5-0.3,3.6c0,2.4,0.3,4.8,1,7.1c0.7,2.3,1.7,4.5,3,6.5c1.3,2,2.9,3.8,4.6,5.4c1.8,1.5,3.7,2.9,5.8,3.8
			c2.1,0.9,4.3,1.7,6.4,2c1.1,0.2,2.2,0.3,3.3,0.4c0.5,0.1,1.1,0,1.6,0c0.5,0,1.1,0,1.6-0.1c4.3-0.4,8.2-1.8,11.4-3.8
			c3.2-2,5.6-4.6,7.4-7.2c1.8-2.5,2.7-5.1,3.4-7.3c0.1-0.5,0.3-1.1,0.4-1.5c0.1-0.5,0.2-0.9,0.2-1.4c0.1-0.9,0.3-1.6,0.3-2.2
			C82,164.3,82.1,163.7,82.1,163.7z"/>
	</g>
</g>
<g>
	<circle class="st2" cx="58.2" cy="125.7" r="26.1"/>
	<g>
		<path d="M84.2,125.7c0,0,0,0.6-0.1,1.8c0,0.6-0.1,1.3-0.2,2.2c-0.1,0.4-0.1,0.9-0.2,1.4c-0.1,0.5-0.3,1-0.4,1.5
			c-0.6,2.1-1.5,4.7-3.2,7.4c-1.7,2.6-4.1,5.3-7.2,7.6c-3.2,2.2-7.2,3.9-11.6,4.6c-0.6,0.1-1.1,0.1-1.7,0.2c-0.6,0-1.1,0.1-1.8,0.1
			c-1.1,0-2.2,0-3.5-0.2c-2.4-0.2-4.8-0.9-7.1-1.8c-2.3-0.9-4.5-2.3-6.6-3.8c-2-1.6-3.8-3.6-5.3-5.7c-1.5-2.2-2.7-4.6-3.5-7.2
			c-0.8-2.6-1.2-5.3-1.2-8l0.1-2c0-0.6,0.1-1.3,0.2-2c0.2-1.4,0.5-2.7,0.9-4c0.8-2.6,2-5,3.5-7.2c1.5-2.2,3.3-4.1,5.3-5.8
			c2.1-1.6,4.2-2.9,6.6-3.8c4.6-1.9,9.6-2.4,14-1.8c4.5,0.7,8.5,2.4,11.7,4.6c3.2,2.3,5.6,5,7.2,7.6c1.7,2.6,2.6,5.2,3.2,7.4
			c0.1,0.5,0.3,1.1,0.4,1.5c0.1,0.5,0.1,1,0.2,1.4c0.1,0.9,0.2,1.6,0.2,2.2C84.2,125.1,84.2,125.7,84.2,125.7z M84.2,125.7
			c0,0,0-0.6-0.1-1.8c0-0.6-0.1-1.3-0.3-2.2c-0.1-0.4-0.1-0.9-0.2-1.4c-0.1-0.5-0.3-1-0.4-1.5c-0.6-2.1-1.6-4.7-3.4-7.3
			c-1.7-2.5-4.2-5.2-7.4-7.2c-3.2-2-7.2-3.4-11.4-3.8c-0.5-0.1-1.1,0-1.6-0.1l-0.8,0l-0.4,0l-0.4,0c-1.1,0.1-2.2,0.1-3.3,0.4
			c-2.2,0.3-4.4,1.1-6.5,2.1c-2.1,1-4,2.3-5.8,3.8c-1.8,1.6-3.3,3.4-4.6,5.4c-1.3,2-2.3,4.2-3,6.5c-0.3,1.2-0.6,2.3-0.7,3.5
			c-0.2,1.1-0.2,2.5-0.3,3.6c0,2.4,0.3,4.8,1,7.1c0.7,2.3,1.7,4.5,3,6.5c1.3,2,2.9,3.8,4.6,5.4c1.8,1.5,3.7,2.9,5.8,3.8
			c2.1,0.9,4.3,1.7,6.4,2c1.1,0.2,2.2,0.3,3.3,0.4c0.5,0.1,1.1,0,1.6,0c0.5,0,1.1,0,1.6-0.1c4.3-0.4,8.2-1.8,11.4-3.8
			c3.2-2,5.6-4.6,7.4-7.2c1.8-2.5,2.7-5.1,3.4-7.3c0.1-0.5,0.3-1.1,0.4-1.5c0.1-0.5,0.2-0.9,0.2-1.4c0.1-0.9,0.3-1.6,0.3-2.2
			C84.2,126.3,84.2,125.7,84.2,125.7z"/>
	</g>
</g>
</svg>
