<?xml version="1.0" encoding="utf-8"?>
<!-- Generator: Adobe Illustrator 18.1.1, SVG Export Plug-In . SVG Version: 6.00 Build 0)  -->
<svg version="1.1" id="Layer_1" xmlns="http://www.w3.org/2000/svg" xmlns:xlink="http://www.w3.org/1999/xlink" x="0px" y="0px"
	 viewBox="0 0 549.6 287.7" style="enable-background:new 0 0 549.6 287.7;" xml:space="preserve">
<style type="text/css">
	.st0{fill:#5EA75C;}
	.st1{fill:#DF0B19;}
	.st2{fill:#000002;}
	.st3{fill:#672608;}
</style>
<g>
	<g>
		<path class="st0" d="M143.7,101.5c1.5-23.1-16.5-48.8-44.1-75.8c0,0-44.9,62.3,5.4,116.5C118.3,133.3,131.3,120.2,143.7,101.5z"/>
		<g>
			<path d="M143.7,101.5l-0.1-2.8l0-1.4c0-0.5-0.1-0.9-0.2-1.4l-0.4-2.8c-0.1-0.9-0.4-1.8-0.6-2.7c-0.3-1.8-0.9-3.6-1.5-5.4
				c-0.2-0.9-0.6-1.8-0.9-2.6l-1-2.6c-0.7-1.7-1.6-3.4-2.4-5c-0.9-1.6-1.8-3.3-2.7-4.9c-1-1.6-1.9-3.2-2.9-4.7
				c-1.1-1.5-2.1-3.1-3.2-4.6c-1.1-1.5-2.2-3-3.3-4.5l-3.5-4.4l-3.6-4.3c-1.2-1.4-2.5-2.8-3.7-4.2c-1.2-1.4-2.5-2.7-3.8-4.1l-1.9-2
				l-2-2c-1.3-1.3-2.6-2.7-3.9-4l-4-3.9l3.5-0.3c-1.4,2-2.7,4.3-3.9,6.5c-1.2,2.3-2.4,4.6-3.5,6.9c-1.1,2.3-2.1,4.7-3.1,7.1
				c-0.5,1.2-0.9,2.4-1.3,3.6c-0.5,1.2-0.8,2.4-1.2,3.7c-0.4,1.2-0.7,2.5-1.1,3.7c-0.4,1.2-0.7,2.5-1,3.7L86,64.2l-0.4,1.9
				c-0.3,1.3-0.5,2.5-0.7,3.8c-0.4,2.5-0.7,5.1-0.9,7.6l-0.2,3.8c0,1.3,0,2.6,0,3.8c0,1.3,0.1,2.6,0.1,3.8l0.1,1.9l0.2,1.9
				c0.2,1.3,0.2,2.5,0.5,3.8l0.7,3.8c0.6,2.5,1.1,5,1.9,7.4c0.7,2.5,1.7,4.8,2.6,7.2c0.5,1.2,1.1,2.3,1.6,3.5l0.8,1.7
				c0.3,0.6,0.6,1.1,0.9,1.7l1.9,3.4c0.6,1.1,1.4,2.2,2,3.3c1.3,2.2,2.9,4.2,4.4,6.3c0.7,1.1,1.6,2,2.4,3l2.5,3l-2.3-0.3l2.9-1.9
				c0.9-0.7,1.9-1.3,2.8-2c0.9-0.7,1.9-1.4,2.8-2.1c0.9-0.7,1.8-1.4,2.7-2.2c1.8-1.5,3.5-3,5.2-4.6c0.9-0.8,1.7-1.6,2.5-2.4
				c0.9-0.8,1.7-1.6,2.5-2.5c0.8-0.8,1.6-1.7,2.4-2.5c0.8-0.8,1.6-1.7,2.4-2.6c1.6-1.7,3.1-3.5,4.6-5.3c0.8-0.9,1.5-1.8,2.2-2.7
				c0.7-0.9,1.5-1.8,2.2-2.8C140.9,105.3,142.3,103.4,143.7,101.5z M143.7,101.5c-1.2,2-2.5,4-3.8,6c-0.6,1-1.3,2-2,2.9
				c-0.7,1-1.3,1.9-2,2.9c-0.7,1-1.4,1.9-2.1,2.9c-0.7,0.9-1.4,1.9-2.2,2.8c-0.7,0.9-1.5,1.9-2.2,2.8c-0.8,0.9-1.5,1.8-2.3,2.7
				c-0.8,0.9-1.6,1.8-2.4,2.7c-0.8,0.9-1.6,1.8-2.4,2.6c-1.7,1.7-3.4,3.4-5.1,5c-0.9,0.8-1.8,1.6-2.7,2.4c-0.9,0.8-1.8,1.5-2.7,2.3
				c-0.9,0.8-1.9,1.5-2.8,2.2c-0.9,0.7-1.9,1.4-2.9,2.1l-1.3,0.9l-1.1-1.2l-2.7-3c-0.9-1-1.8-2-2.6-3c-1.6-2.1-3.4-4.2-4.9-6.4
				c-0.8-1.1-1.5-2.2-2.3-3.3l-2-3.5c-0.3-0.6-0.7-1.2-1-1.8l-0.9-1.8c-0.6-1.2-1.2-2.4-1.8-3.7c-1-2.5-2.1-5-2.9-7.6
				c-0.9-2.6-1.5-5.2-2.2-7.8l-0.7-4c-0.3-1.3-0.4-2.7-0.5-4l-0.2-2l-0.1-2c-0.1-1.4-0.2-2.7-0.2-4.1c0-1.4,0-2.7,0-4.1l0.2-4.1
				c0.2-2.7,0.5-5.4,0.9-8.1c0.2-1.3,0.5-2.7,0.7-4l0.4-2l0.5-2c0.3-1.3,0.6-2.6,1-3.9c0.4-1.3,0.7-2.6,1.2-3.9
				c0.4-1.3,0.8-2.6,1.3-3.8c0.5-1.3,0.9-2.5,1.4-3.8c1-2.5,2.1-5,3.2-7.4c1.2-2.4,2.4-4.8,3.8-7.1c1.4-2.3,2.7-4.6,4.4-6.9l1.6-2.2
				l1.9,1.9l4,4c1.3,1.3,2.6,2.7,3.9,4.1c1.3,1.4,2.6,2.8,3.8,4.2c1.2,1.4,2.5,2.8,3.7,4.3c1.2,1.5,2.5,2.9,3.6,4.4l3.5,4.5l3.4,4.6
				c1.1,1.6,2.1,3.2,3.2,4.7c1,1.6,2,3.2,3,4.9c1,1.6,1.8,3.3,2.8,5c0.9,1.7,1.6,3.4,2.5,5.2c0.7,1.8,1.4,3.5,2.1,5.3l0.9,2.7
				c0.3,0.9,0.6,1.8,0.8,2.7c0.4,1.9,0.9,3.7,1.1,5.6c0.1,0.9,0.3,1.9,0.4,2.8l0.1,2.8c0,0.5,0.1,0.9,0,1.4l-0.1,1.4L143.7,101.5z"
				/>
		</g>
	</g>
	<g>
		<path d="M107.3,46.4c0,0,0.8,1.1,2.1,3c1.3,2,3.1,4.8,5,8.3c1,1.8,2,3.7,3,5.7c1,2.1,2.1,4.2,3,6.6c1,2.3,2,4.7,2.8,7.2
			c0.9,2.5,1.7,5,2.4,7.6c0.7,2.6,1.3,5.2,1.8,7.8c0.3,1.3,0.4,2.6,0.6,3.9c0.1,1.3,0.3,2.6,0.4,3.8c0.1,1.3,0.2,2.5,0.2,3.7
			c0,1.2,0,2.4,0,3.6c-0.1,1.2-0.1,2.3-0.2,3.4c-0.1,1.1-0.2,2.1-0.4,3.1c-0.2,1-0.4,1.9-0.5,2.8c-0.2,0.9-0.5,1.7-0.7,2.5
			c-0.1,0.4-0.2,0.8-0.3,1.1c-0.1,0.4-0.3,0.7-0.4,1c-0.2,0.7-0.5,1.3-0.7,1.8c-0.4,1.1-0.9,1.9-1.1,2.5c-0.3,0.6-0.4,0.9-0.4,0.9
			s0.5-1.3,1.2-3.5c0.2-0.6,0.3-1.2,0.5-1.9c0.1-0.3,0.2-0.7,0.3-1c0.1-0.4,0.2-0.8,0.2-1.1c0.1-0.8,0.3-1.6,0.5-2.5
			c0.1-0.9,0.3-1.8,0.4-2.8c0.1-1,0.2-2,0.2-3.1c0.1-1.1,0-2.2,0.1-3.3c0-1.1-0.1-2.3-0.1-3.5c-0.1-1.2-0.2-2.4-0.3-3.6
			c-0.2-1.2-0.3-2.5-0.5-3.7c-0.2-1.3-0.4-2.5-0.7-3.8c-0.5-2.5-1.1-5.1-1.8-7.7c-0.7-2.6-1.5-5.1-2.3-7.5c-0.9-2.5-1.7-4.9-2.7-7.2
			c-0.9-2.3-1.9-4.5-2.8-6.6c-0.9-2.1-1.8-4-2.7-5.8c-0.9-1.8-1.7-3.4-2.5-4.9c-0.7-1.4-1.4-2.7-2-3.7
			C108,47.6,107.3,46.4,107.3,46.4z"/>
	</g>
</g>
<g>
	<g>
		<path class="st0" d="M410.3,126.7c26.7-24,75.4-26.7,134.7-18.9c0,0-32.9,114.5-147.3,105C395.8,188.2,399.5,159.8,410.3,126.7z"
			/>
		<g>
			<path d="M410.3,126.7c2.1-2,4.3-4,6.7-5.7c2.3-1.8,4.8-3.4,7.4-4.9c2.6-1.4,5.2-2.8,7.9-4c2.7-1.2,5.5-2.3,8.2-3.2
				c1.4-0.5,2.8-0.9,4.2-1.3l4.3-1.2c2.9-0.7,5.7-1.4,8.6-2c5.8-1.1,11.7-1.9,17.5-2.4c2.9-0.3,5.9-0.5,8.8-0.6l4.4-0.2l4.4-0.1
				c2.9,0,5.9,0,8.8,0c2.9,0,5.9,0.1,8.8,0.2c2.9,0.1,5.9,0.3,8.8,0.4c2.9,0.2,5.9,0.4,8.8,0.6c2.9,0.3,5.8,0.5,8.8,0.9
				c2.9,0.3,5.8,0.6,8.7,1l4.2,0.5l-1.2,4.1c-0.6,2.2-1.3,4.1-2,6.1c-0.7,2-1.5,3.9-2.2,5.9c-1.5,3.9-3.3,7.7-5.1,11.4
				c-0.9,1.9-1.9,3.7-2.9,5.6l-1.5,2.8l-1.6,2.7c-1,1.8-2.1,3.6-3.2,5.4c-1.1,1.8-2.2,3.5-3.4,5.3c-1.1,1.8-2.4,3.4-3.6,5.1
				c-0.6,0.8-1.2,1.7-1.9,2.5l-1.9,2.5l-1.9,2.5l-2,2.4c-1.4,1.6-2.7,3.2-4.2,4.7c-2.8,3.1-5.9,6-8.9,8.9l-4.8,4.1
				c-1.6,1.3-3.3,2.6-5,3.9l-1.2,1l-1.3,0.9l-2.6,1.8l-2.6,1.8l-2.7,1.6l-2.7,1.6l-1.3,0.8l-1.4,0.7l-5.6,2.9
				c-1.9,0.9-3.9,1.7-5.8,2.6c-1.9,0.9-3.9,1.6-5.9,2.3l-3,1.1l-1.5,0.5l-1.5,0.4l-6.1,1.7c-2,0.6-4.1,0.9-6.1,1.4l-3.1,0.7
				c-1,0.2-2.1,0.3-3.1,0.5l-6.2,0.9c-2.1,0.2-4.2,0.3-6.3,0.4c-4.2,0.4-8.3,0.2-12.5,0.2c-2.1,0.1-4.2-0.2-6.2-0.3l-6.2-0.4
				l-2.5-0.2l-0.1-2.4c-0.1-1.9-0.2-3.7-0.2-5.6c0-1.9-0.1-3.7,0-5.6c0-1.9,0.1-3.7,0.2-5.5l0.1-2.8l0.2-2.8
				c0.1-1.8,0.3-3.7,0.5-5.5c0.2-1.8,0.4-3.7,0.7-5.5c0.2-1.8,0.5-3.6,0.8-5.5c0.3-1.8,0.6-3.6,1-5.4c0.3-1.8,0.7-3.6,1.1-5.4
				c0.4-1.8,0.8-3.6,1.2-5.4c0.4-1.8,0.9-3.6,1.4-5.3c0.5-1.8,1-3.5,1.5-5.3c0.5-1.8,1-3.5,1.6-5.3c0.5-1.7,1.1-3.5,1.7-5.2
				c0.6-1.7,1.2-3.5,1.8-5.2L410.3,126.7z M410.3,126.7l-1.4,5.3c-0.5,1.8-0.9,3.5-1.3,5.3c-0.4,1.8-0.8,3.5-1.3,5.3
				c-0.4,1.8-0.8,3.6-1.2,5.3c-0.4,1.8-0.7,3.6-1.1,5.3c-0.3,1.8-0.7,3.6-1,5.4c-0.3,1.8-0.6,3.6-0.9,5.4c-0.3,1.8-0.5,3.6-0.8,5.4
				c-0.2,1.8-0.5,3.6-0.6,5.4c-0.2,1.8-0.4,3.6-0.5,5.4c-0.1,1.8-0.3,3.6-0.4,5.4c-0.1,1.8-0.2,3.6-0.2,5.4l-0.1,2.7l0,2.7
				c0,1.8,0,3.6,0.1,5.4c0,1.8,0.2,3.6,0.3,5.4c0.1,1.8,0.3,3.6,0.4,5.4l-2.6-2.6l6,0.2c2,0,4,0.2,6,0.1c4-0.2,8-0.1,12-0.7
				c2-0.2,4-0.4,6-0.6l5.9-1c1-0.2,2-0.3,2.9-0.5l2.9-0.7c1.9-0.5,3.9-0.9,5.8-1.4l5.7-1.8l1.4-0.4l1.4-0.5l2.8-1.1
				c1.9-0.7,3.7-1.4,5.5-2.3c1.8-0.8,3.6-1.6,5.4-2.5l5.2-2.8l1.3-0.7l1.3-0.8l2.5-1.6l2.5-1.6l2.4-1.7l2.4-1.7l1.2-0.9l1.2-0.9
				c1.5-1.2,3.1-2.4,4.7-3.7l4.5-3.9c2.9-2.7,5.7-5.5,8.4-8.4c0.7-0.7,1.4-1.4,2-2.2l2-2.3l2-2.3l1.9-2.3l1.9-2.3
				c0.6-0.8,1.2-1.6,1.8-2.4c1.2-1.6,2.4-3.2,3.5-4.9c1.1-1.7,2.3-3.3,3.3-5c1.1-1.7,2.1-3.4,3.1-5.1l1.5-2.6l1.4-2.6
				c1-1.7,1.9-3.5,2.8-5.3c1.8-3.6,3.5-7.2,5.1-10.9c0.8-1.8,1.5-3.7,2.2-5.5c0.7-1.8,1.4-3.8,2-5.5l3,4.6c-2.9-0.4-5.7-0.8-8.6-1.2
				c-2.9-0.4-5.7-0.7-8.6-1l-4.3-0.5l-4.3-0.4c-2.9-0.3-5.8-0.5-8.6-0.7c-2.9-0.2-5.8-0.4-8.7-0.5c-2.9-0.1-5.8-0.2-8.7-0.3
				l-4.3-0.1l-4.3,0c-2.9,0-5.8,0.1-8.6,0.2c-2.9,0.1-5.8,0.3-8.6,0.5c-2.9,0.2-5.7,0.6-8.6,0.9c-2.9,0.4-5.7,0.8-8.5,1.4l-4.2,0.9
				c-1.4,0.4-2.8,0.7-4.2,1.1c-1.4,0.4-2.8,0.8-4.1,1.2c-1.4,0.4-2.8,0.9-4.1,1.4c-2.7,0.9-5.4,2.1-8,3.3c-2.6,1.3-5.2,2.6-7.6,4.2
				C414.9,123.2,412.6,124.9,410.3,126.7z"/>
		</g>
	</g>
	<g>
		<path d="M512.5,118.4c0,0-8.2,1.1-20.3,3.6c-3,0.6-6.3,1.4-9.7,2.3c-3.4,0.9-7,1.8-10.7,2.9c-1.9,0.5-3.7,1.1-5.6,1.7
			c-1.9,0.6-3.8,1.3-5.7,1.9c-3.8,1.4-7.7,2.8-11.4,4.4c-0.9,0.4-1.9,0.8-2.8,1.2l-2.8,1.3c-1.9,0.8-3.7,1.8-5.5,2.7
			c-0.9,0.4-1.8,0.9-2.7,1.4c-0.9,0.5-1.8,0.9-2.6,1.4c-1.7,1-3.4,2-5,3c-1.6,1.1-3.2,2.1-4.7,3.1c-1.5,1.1-3,2.1-4.3,3.2
			c-1.3,1.1-2.7,2.2-3.9,3.3c-1.2,1.1-2.4,2.2-3.5,3.2c-1.1,1.1-2.1,2.2-3.1,3.2c-1,1-1.8,2.1-2.6,3c-0.4,0.5-0.8,0.9-1.2,1.4
			c-0.3,0.5-0.7,0.9-1,1.4c-0.6,0.9-1.2,1.7-1.8,2.4c-1,1.5-1.7,2.7-2.3,3.5c-0.5,0.8-0.8,1.3-0.8,1.3s0.2-0.5,0.7-1.3
			c0.5-0.9,1-2.2,1.9-3.7c0.5-0.8,1-1.6,1.6-2.6c0.3-0.5,0.6-0.9,0.9-1.4c0.3-0.5,0.7-1,1.1-1.5c0.8-1,1.5-2.1,2.4-3.2
			c0.9-1.1,1.9-2.2,2.9-3.4c1.1-1.1,2.2-2.3,3.4-3.5c1.2-1.2,2.6-2.3,3.9-3.5c1.4-1.2,2.8-2.3,4.3-3.4c1.5-1.1,3.1-2.2,4.7-3.3
			c1.6-1.1,3.3-2.1,5-3.2c1.8-1,3.5-2,5.3-3c1.8-0.9,3.7-1.9,5.5-2.8l2.8-1.3c0.9-0.4,1.9-0.8,2.9-1.2c3.8-1.6,7.7-3,11.6-4.4
			c3.9-1.3,7.7-2.4,11.5-3.4c3.8-1,7.4-1.9,10.9-2.6c1.7-0.4,3.4-0.7,5.1-1c1.7-0.3,3.2-0.6,4.8-0.8c6.1-1,11.3-1.5,14.9-1.8
			C510.4,118.4,512.5,118.4,512.5,118.4z"/>
	</g>
</g>
<g>
	<g>
		<circle class="st1" cx="54" cy="108.4" r="52.5"/>
		<path class="st2" d="M106.5,108.4c0,0-0.1,1.3-0.2,3.7c0,0.6,0,1.3-0.1,2c-0.1,0.7-0.2,1.5-0.4,2.4c-0.1,0.9-0.2,1.8-0.5,2.8
			c-0.2,1-0.5,2-0.8,3.1c-1.2,4.3-3.1,9.5-6.6,14.8c-3.4,5.3-8.3,10.7-14.7,15.1c-6.4,4.4-14.4,7.7-23.3,8.9
			c-1.1,0.2-2.2,0.2-3.4,0.3c-0.6,0-1.1,0.1-1.7,0.1l-0.9,0.1c-0.4,0-0.6,0-0.9,0c-2.3-0.1-4.6-0.1-6.9-0.5c-4.8-0.5-9.4-1.9-14-3.8
			c-1.1-0.5-2.2-1-3.4-1.6c-1.1-0.5-2.2-1.2-3.3-1.9l-1.6-1c-0.5-0.4-1-0.7-1.5-1.1c-1-0.8-2.1-1.5-3-2.3
			c-3.9-3.2-7.4-7.1-10.4-11.4c-2.9-4.3-5.1-9.1-6.8-14.1l-1-3.8l-0.2-1l-0.2-1l-0.3-2l-0.3-2c-0.1-0.7-0.1-1.3-0.1-2l-0.2-4
			c0.1-5,0.8-10.6,2.4-15.6c1.6-5,3.8-9.8,6.8-14.1c3-4.3,6.4-8.1,10.4-11.4c1-0.8,2-1.5,3-2.3c0.5-0.4,1-0.7,1.5-1.1l1.6-1
			c1.1-0.6,2.1-1.3,3.3-1.9c1.1-0.5,2.2-1,3.4-1.6c4.6-1.9,9.2-3.3,13.9-3.8c2.3-0.4,4.7-0.4,7-0.5c0.3,0,0.5,0,0.9,0l0.8,0.1
			c0.6,0,1.1,0.1,1.7,0.1c1.1,0.1,2.2,0.1,3.3,0.3c9,1.2,16.9,4.5,23.4,8.9c6.4,4.4,11.2,9.8,14.7,15.1c3.5,5.3,5.4,10.5,6.6,14.8
			c0.3,1.1,0.5,2.1,0.8,3.1c0.2,1,0.3,1.9,0.4,2.8c0.1,0.9,0.2,1.7,0.4,2.4c0.1,0.7,0.1,1.4,0.1,2
			C106.4,107.1,106.5,108.4,106.5,108.4z M106.5,108.4c0,0-0.1-1.3-0.2-3.7c0-0.6,0-1.3-0.1-2c-0.1-0.7-0.2-1.5-0.4-2.4
			c-0.1-0.9-0.2-1.8-0.5-2.8c-0.3-1-0.5-2-0.8-3.1c-1.2-4.3-3.2-9.5-6.7-14.7C94.3,74.5,89.4,69.2,83,65c-6.4-4.2-14.4-7.2-23.1-8.1
			c-1.1-0.2-2.2-0.1-3.3-0.2c-0.6,0-1.1,0-1.7-0.1l-0.8,0l-0.8,0c-2.2,0.2-4.5,0.2-6.8,0.7c-4.5,0.6-9,2.1-13.3,4
			C32.1,61.9,31,62.4,30,63c-1.1,0.5-2,1.2-3.1,1.9l-1.5,1c-0.5,0.4-1,0.7-1.4,1.1c-0.9,0.8-1.9,1.4-2.9,2.2
			c-3.7,3.2-6.9,6.9-9.7,11c-0.6,1.1-1.3,2.1-1.9,3.2c-0.2,0.3-0.3,0.5-0.5,0.8L8.6,85l-0.8,1.7L7,88.3c-0.3,0.6-0.4,1.2-0.7,1.7
			c-0.4,1.2-0.9,2.3-1.2,3.5c-1.4,4.8-2,9.6-2.2,14.9l0.2,3.7c0,0.6,0,1.3,0.1,1.9l0.3,1.9l0.3,1.9l0.1,0.9l0.2,0.9l0.9,3.6
			c0.4,1.2,0.8,2.3,1.2,3.5c0.2,0.6,0.4,1.2,0.7,1.7l0.8,1.7l0.8,1.7l0.4,0.8c0.1,0.3,0.3,0.5,0.5,0.8c0.6,1.1,1.3,2.1,1.9,3.2
			c2.8,4.1,6,7.8,9.7,11c0.9,0.8,1.9,1.5,2.9,2.2c0.5,0.4,1,0.7,1.4,1.1l1.5,1c1,0.6,2,1.3,3.1,1.9c1.1,0.5,2.1,1.1,3.2,1.6
			c4.3,1.9,8.8,3.4,13.3,4c2.2,0.5,4.5,0.5,6.8,0.7c0.3,0,0.6,0,0.8,0l0.8,0c0.6,0,1.1,0,1.7-0.1c1.1-0.1,2.2,0,3.3-0.2
			c8.7-0.9,16.7-3.9,23.1-8.1c6.5-4.2,11.3-9.5,14.8-14.7c3.6-5.2,5.5-10.4,6.7-14.7c0.3-1.1,0.6-2.1,0.8-3.1c0.2-1,0.3-1.9,0.5-2.8
			c0.1-0.9,0.3-1.7,0.4-2.4c0.1-0.7,0.1-1.4,0.1-2C106.4,109.7,106.5,108.4,106.5,108.4z"/>
	</g>
</g>
<g>
	<g>
		<circle class="st1" cx="306.5" cy="53.2" r="52.5"/>
		<path class="st2" d="M359,53.2c0,0-0.1,1.3-0.2,3.7c0,0.6,0,1.3-0.1,2c-0.1,0.7-0.2,1.5-0.4,2.4c-0.1,0.9-0.2,1.8-0.5,2.8
			c-0.2,1-0.5,2-0.8,3.1c-1.2,4.3-3.1,9.5-6.6,14.8c-3.4,5.3-8.3,10.7-14.7,15.1c-6.4,4.4-14.4,7.7-23.3,8.9
			c-1.1,0.2-2.2,0.2-3.4,0.3c-0.6,0-1.1,0.1-1.7,0.1l-0.9,0.1c-0.4,0-0.6,0-0.9,0c-2.3-0.1-4.6-0.1-6.9-0.5c-4.8-0.5-9.4-1.9-14-3.8
			c-1.1-0.5-2.2-1-3.4-1.6c-1.1-0.5-2.2-1.2-3.3-1.9l-1.6-1c-0.5-0.4-1-0.7-1.5-1.1c-1-0.8-2.1-1.5-3-2.3
			c-3.9-3.2-7.4-7.1-10.4-11.4c-2.9-4.3-5.1-9.1-6.8-14.1l-1-3.8l-0.2-1l-0.2-1l-0.3-2l-0.3-2c-0.1-0.7-0.1-1.3-0.1-2l-0.2-4
			c0.1-5,0.8-10.6,2.4-15.6c1.6-5,3.8-9.8,6.8-14.1c3-4.3,6.4-8.1,10.4-11.4c1-0.8,2-1.5,3-2.3c0.5-0.4,1-0.7,1.5-1.1l1.6-1
			c1.1-0.6,2.1-1.3,3.3-1.9c1.1-0.5,2.2-1,3.4-1.6c4.6-1.9,9.2-3.3,13.9-3.8c2.3-0.4,4.7-0.4,7-0.5c0.3,0,0.5,0,0.9,0l0.8,0.1
			c0.6,0,1.1,0.1,1.7,0.1c1.1,0.1,2.2,0.1,3.3,0.3c9,1.2,16.9,4.5,23.4,8.9c6.4,4.4,11.2,9.8,14.7,15.1c3.5,5.3,5.4,10.5,6.6,14.8
			c0.3,1.1,0.5,2.1,0.8,3.1c0.2,1,0.3,1.9,0.4,2.8c0.1,0.9,0.2,1.7,0.4,2.4c0.1,0.7,0.1,1.4,0.1,2C358.9,52,359,53.2,359,53.2z
			 M359,53.2c0,0-0.1-1.3-0.2-3.7c0-0.6,0-1.3-0.1-2c-0.1-0.7-0.2-1.5-0.4-2.4c-0.1-0.9-0.2-1.8-0.5-2.8c-0.3-1-0.5-2-0.8-3.1
			c-1.2-4.3-3.2-9.5-6.7-14.7c-3.5-5.2-8.4-10.5-14.8-14.7C329,5.7,321,2.7,312.4,1.8c-1.1-0.2-2.2-0.1-3.3-0.2
			c-0.6,0-1.1,0-1.7-0.1l-0.8,0l-0.8,0c-2.2,0.2-4.5,0.2-6.8,0.7c-4.5,0.6-9,2.1-13.3,4c-1.1,0.5-2.1,1.1-3.2,1.6
			c-1.1,0.5-2,1.2-3.1,1.9l-1.5,1c-0.5,0.4-1,0.7-1.4,1.1c-0.9,0.8-1.9,1.4-2.9,2.2c-3.7,3.2-6.9,6.9-9.7,11
			c-0.6,1.1-1.3,2.1-1.9,3.2c-0.2,0.3-0.3,0.5-0.5,0.8l-0.4,0.8l-0.8,1.7l-0.8,1.7c-0.3,0.6-0.4,1.2-0.7,1.7
			c-0.4,1.2-0.9,2.3-1.2,3.5c-1.4,4.8-2,9.6-2.2,14.9l0.2,3.7c0,0.6,0,1.3,0.1,1.9l0.3,1.9l0.3,1.9l0.1,0.9l0.2,0.9l0.9,3.6
			c0.4,1.2,0.8,2.3,1.2,3.5c0.2,0.6,0.4,1.2,0.7,1.7l0.8,1.7l0.8,1.7l0.4,0.8c0.1,0.3,0.3,0.5,0.5,0.8c0.6,1.1,1.3,2.1,1.9,3.2
			c2.8,4.1,6,7.8,9.7,11c0.9,0.8,1.9,1.5,2.9,2.2c0.5,0.4,1,0.7,1.4,1.1l1.5,1c1,0.6,2,1.3,3.1,1.9c1.1,0.5,2.1,1.1,3.2,1.6
			c4.3,1.9,8.8,3.4,13.3,4c2.2,0.5,4.5,0.5,6.8,0.7c0.3,0,0.6,0,0.8,0l0.8,0c0.6,0,1.1,0,1.7-0.1c1.1-0.1,2.2,0,3.3-0.2
			c8.7-0.9,16.7-3.9,23.1-8.1c6.5-4.2,11.3-9.5,14.8-14.7c3.6-5.2,5.5-10.4,6.7-14.7c0.3-1.1,0.6-2.1,0.8-3.1c0.2-1,0.3-1.9,0.5-2.8
			c0.1-0.9,0.3-1.7,0.4-2.4c0.1-0.7,0.1-1.4,0.1-2C358.9,54.5,359,53.2,359,53.2z"/>
	</g>
	<g>
		<ellipse transform="matrix(0.9716 -0.2364 0.2364 0.9716 -3.8536 74.1013)" class="st3" cx="307" cy="53.1" rx="14.3" ry="16.8"/>
		<path class="st2" d="M321,49.7c0,0,0.1,0.4,0.2,1.1c0.1,0.3,0.2,0.8,0.2,1.3c0.1,0.5,0.1,1.1,0.1,1.8c0.1,1.3,0,3-0.4,4.8
			c-0.4,1.8-1.1,3.9-2.4,5.9c-1.3,2-3.2,3.9-5.7,5.1c-0.3,0.2-0.6,0.3-1,0.4c-0.4,0.1-0.6,0.3-1.1,0.4c-0.7,0.2-1.3,0.3-2.1,0.4
			c-0.8,0.1-1.5,0.1-2.3,0.1c-0.8-0.1-1.6-0.1-2.3-0.3c-0.8-0.1-1.5-0.4-2.3-0.7c-0.7-0.3-1.5-0.6-2.2-1.1c-1.4-0.8-2.7-1.9-3.8-3.1
			c-0.6-0.6-1.1-1.3-1.6-1.9c-0.5-0.7-0.9-1.4-1.3-2.1l-0.6-1.1l-0.5-1.2c-0.2-0.4-0.3-0.8-0.4-1.2l-0.4-1.3l-0.2-1.1l-0.1-0.6
			l-0.1-0.7l-0.1-1.3l0-1.3c0-1.7,0.2-3.4,0.7-4.9c0.9-3.2,2.7-6.1,5.1-8.1c0.6-0.5,1.3-0.9,1.9-1.4c0.7-0.3,1.4-0.7,2.1-1
			c1.4-0.6,2.9-0.8,4.2-0.9c2.9-0.1,5.4,0.7,7.5,1.9c2,1.2,3.6,2.6,4.8,4.1c1.2,1.5,2,2.9,2.6,4.1c0.3,0.6,0.5,1.2,0.7,1.6
			c0.2,0.5,0.3,0.9,0.4,1.3C320.9,49.4,321,49.7,321,49.7z M321,49.7c0,0-0.1-0.4-0.3-1.1c-0.1-0.3-0.2-0.8-0.4-1.2
			c-0.2-0.5-0.4-1-0.7-1.6c-0.6-1.2-1.5-2.6-2.7-3.9c-1.3-1.3-2.9-2.7-5-3.5c-1-0.5-2.1-0.8-3.3-1c-1.2-0.1-2.4-0.2-3.6,0
			c-1.3,0.2-2.4,0.6-3.5,1.2c-0.6,0.3-1.1,0.7-1.6,1c-0.5,0.4-1,0.8-1.4,1.3c-0.5,0.4-0.8,1-1.2,1.5c-0.3,0.6-0.7,1.1-1,1.7
			c-0.3,0.6-0.5,1.2-0.8,1.8c-0.2,0.6-0.4,1.3-0.5,1.9c-0.3,1.3-0.4,2.7-0.4,4l0,1l0.1,1l0.1,0.5l0.1,0.6l0.2,1.1c0-0.2,0,0,0-0.1
			l0,0l0,0.1l0,0.1l0.1,0.2l0.1,0.5c0.1,0.3,0.2,0.7,0.3,1l0.4,1l0.4,0.9c0.6,1.2,1.3,2.4,2.2,3.4c0.4,0.5,0.9,1,1.4,1.5
			c0.5,0.4,1,0.9,1.5,1.3c0.5,0.4,1.1,0.7,1.7,1.1c0.6,0.3,1.2,0.6,1.8,0.8c0.6,0.2,1.2,0.3,1.8,0.5c0.6,0.1,1.3,0.2,1.9,0.2
			c0.3,0,0.6,0,0.9,0c0.3,0,0.7-0.1,1-0.1c0.2,0,0.6-0.1,0.9-0.2c0.3-0.1,0.6-0.1,0.9-0.2c1.2-0.4,2.2-0.9,3.2-1.6
			c0.9-0.7,1.8-1.5,2.5-2.4c1.4-1.7,2.3-3.7,2.8-5.4c0.5-1.8,0.7-3.4,0.6-4.7c0-0.7,0-1.3-0.1-1.8c0-0.5-0.1-1-0.2-1.3
			C321,50.1,321,49.7,321,49.7z"/>
	</g>
</g>
<g>
	<g>
		<circle class="st1" cx="169.8" cy="100.8" r="52.5"/>
		<path class="st2" d="M222.3,100.8c0,0-0.1,1.3-0.2,3.7c0,0.6,0,1.3-0.1,2c-0.1,0.7-0.2,1.5-0.4,2.4c-0.1,0.9-0.2,1.8-0.5,2.8
			c-0.2,1-0.5,2-0.8,3.1c-1.2,4.3-3.1,9.5-6.6,14.8c-3.4,5.3-8.3,10.7-14.7,15.1c-6.4,4.4-14.4,7.7-23.3,8.9
			c-1.1,0.2-2.2,0.2-3.4,0.3c-0.6,0-1.1,0.1-1.7,0.1l-0.9,0.1c-0.4,0-0.6,0-0.9,0c-2.3-0.1-4.6-0.1-6.9-0.5c-4.8-0.5-9.4-1.9-14-3.8
			c-1.1-0.5-2.2-1-3.4-1.6c-1.1-0.5-2.2-1.2-3.3-1.9l-1.6-1c-0.5-0.4-1-0.7-1.5-1.1c-1-0.8-2.1-1.5-3-2.3
			c-3.9-3.2-7.4-7.1-10.4-11.4c-2.9-4.3-5.1-9.1-6.8-14.1l-1-3.8l-0.2-1l-0.2-1l-0.3-2l-0.3-2c-0.1-0.7-0.1-1.3-0.1-2l-0.2-4
			c0.1-5,0.8-10.6,2.4-15.6c1.6-5,3.8-9.8,6.8-14.1c3-4.3,6.4-8.1,10.4-11.4c1-0.8,2-1.5,3-2.3c0.5-0.4,1-0.7,1.5-1.1l1.6-1
			c1.1-0.6,2.1-1.3,3.3-1.9c1.1-0.5,2.2-1,3.4-1.6c4.6-1.9,9.2-3.3,13.9-3.8c2.3-0.4,4.7-0.4,7-0.5c0.3,0,0.5,0,0.9,0l0.8,0.1
			c0.6,0,1.1,0.1,1.7,0.1c1.1,0.1,2.2,0.1,3.3,0.3c9,1.2,16.9,4.5,23.4,8.9c6.4,4.4,11.2,9.8,14.7,15.1c3.5,5.3,5.4,10.5,6.6,14.8
			c0.3,1.1,0.5,2.1,0.8,3.1c0.2,1,0.3,1.9,0.4,2.8c0.1,0.9,0.2,1.7,0.4,2.4c0.1,0.7,0.1,1.4,0.1,2
			C222.3,99.5,222.3,100.8,222.3,100.8z M222.3,100.8c0,0-0.1-1.3-0.2-3.7c0-0.6,0-1.3-0.1-2c-0.1-0.7-0.2-1.5-0.4-2.4
			c-0.1-0.9-0.2-1.8-0.5-2.8c-0.3-1-0.5-2-0.8-3.1c-1.2-4.3-3.2-9.5-6.7-14.7c-3.5-5.2-8.4-10.5-14.8-14.7
			c-6.4-4.2-14.4-7.2-23.1-8.1c-1.1-0.2-2.2-0.1-3.3-0.2c-0.6,0-1.1,0-1.7-0.1l-0.8,0l-0.8,0c-2.2,0.2-4.5,0.2-6.8,0.7
			c-4.5,0.6-9,2.1-13.3,4c-1.1,0.5-2.1,1.1-3.2,1.6c-1.1,0.5-2,1.2-3.1,1.9l-1.5,1c-0.5,0.4-1,0.7-1.4,1.1c-0.9,0.8-1.9,1.4-2.9,2.2
			c-3.7,3.2-6.9,6.9-9.7,11c-0.6,1.1-1.3,2.1-1.9,3.2c-0.2,0.3-0.3,0.5-0.5,0.8l-0.4,0.8l-0.8,1.7l-0.8,1.7
			c-0.3,0.6-0.4,1.2-0.7,1.7c-0.4,1.2-0.9,2.3-1.2,3.5c-1.4,4.8-2,9.6-2.2,14.9l0.2,3.7c0,0.6,0,1.3,0.1,1.9l0.3,1.9l0.3,1.9
			l0.1,0.9l0.2,0.9l0.9,3.6c0.4,1.2,0.8,2.3,1.2,3.5c0.2,0.6,0.4,1.2,0.7,1.7l0.8,1.7l0.8,1.7l0.4,0.8c0.1,0.3,0.3,0.5,0.5,0.8
			c0.6,1.1,1.3,2.1,1.9,3.2c2.8,4.1,6,7.8,9.7,11c0.9,0.8,1.9,1.5,2.9,2.2c0.5,0.4,1,0.7,1.4,1.1l1.5,1c1,0.6,2,1.3,3.1,1.9
			c1.1,0.5,2.1,1.1,3.2,1.6c4.3,1.9,8.8,3.4,13.3,4c2.2,0.5,4.5,0.5,6.8,0.7c0.3,0,0.6,0,0.8,0l0.8,0c0.6,0,1.1,0,1.7-0.1
			c1.1-0.1,2.2,0,3.3-0.2c8.7-0.9,16.7-3.9,23.1-8.1c6.5-4.2,11.3-9.5,14.8-14.7c3.6-5.2,5.5-10.4,6.7-14.7c0.3-1.1,0.6-2.1,0.8-3.1
			c0.2-1,0.3-1.9,0.5-2.8c0.1-0.9,0.3-1.7,0.4-2.4c0.1-0.7,0.1-1.4,0.1-2C222.3,102.1,222.3,100.8,222.3,100.8z"/>
	</g>
</g>
<g>
	<g>
		<circle class="st1" cx="106.5" cy="165.3" r="52.5"/>
		<path class="st2" d="M159,165.3c0,0-0.1,1.3-0.2,3.7c0,0.6,0,1.3-0.1,2c-0.1,0.7-0.2,1.5-0.4,2.4c-0.1,0.9-0.2,1.8-0.5,2.8
			c-0.2,1-0.5,2-0.8,3.1c-1.2,4.3-3.1,9.5-6.6,14.8c-3.4,5.3-8.3,10.7-14.7,15.1c-6.4,4.4-14.4,7.7-23.3,8.9
			c-1.1,0.2-2.2,0.2-3.4,0.3c-0.6,0-1.1,0.1-1.7,0.1l-0.9,0.1c-0.4,0-0.6,0-0.9,0c-2.3-0.1-4.6-0.1-6.9-0.5c-4.8-0.5-9.4-1.9-14-3.8
			c-1.1-0.5-2.2-1-3.4-1.6c-1.1-0.5-2.2-1.2-3.3-1.9l-1.6-1c-0.5-0.4-1-0.7-1.5-1.1c-1-0.8-2.1-1.5-3-2.3
			c-3.9-3.2-7.4-7.1-10.4-11.4c-2.9-4.3-5.1-9.1-6.8-14.1l-1-3.8l-0.2-1l-0.2-1l-0.3-2l-0.3-2c-0.1-0.7-0.1-1.3-0.1-2l-0.2-4
			c0.1-5,0.8-10.6,2.4-15.6c1.6-5,3.8-9.8,6.8-14.1c3-4.3,6.4-8.1,10.4-11.4c1-0.8,2-1.5,3-2.3c0.5-0.4,1-0.7,1.5-1.1l1.6-1
			c1.1-0.6,2.1-1.3,3.3-1.9c1.1-0.5,2.2-1,3.4-1.6c4.6-1.9,9.2-3.3,13.9-3.8c2.3-0.4,4.7-0.4,7-0.5c0.3,0,0.5,0,0.9,0l0.8,0.1
			c0.6,0,1.1,0.1,1.7,0.1c1.1,0.1,2.2,0.1,3.3,0.3c9,1.2,16.9,4.5,23.4,8.9c6.4,4.4,11.2,9.8,14.7,15.1c3.5,5.3,5.4,10.5,6.6,14.8
			c0.3,1.1,0.5,2.1,0.8,3.1c0.2,1,0.3,1.9,0.4,2.8c0.1,0.9,0.2,1.7,0.4,2.4c0.1,0.7,0.1,1.4,0.1,2C158.9,164,159,165.3,159,165.3z
			 M159,165.3c0,0-0.1-1.3-0.2-3.7c0-0.6,0-1.3-0.1-2c-0.1-0.7-0.2-1.5-0.4-2.4c-0.1-0.9-0.2-1.8-0.5-2.8c-0.3-1-0.5-2-0.8-3.1
			c-1.2-4.3-3.2-9.5-6.7-14.7c-3.5-5.2-8.4-10.5-14.8-14.7c-6.4-4.2-14.4-7.2-23.1-8.1c-1.1-0.2-2.2-0.1-3.3-0.2
			c-0.6,0-1.1,0-1.7-0.1l-0.8,0l-0.8,0c-2.2,0.2-4.5,0.2-6.8,0.7c-4.5,0.6-9,2.1-13.3,4c-1.1,0.5-2.1,1.1-3.2,1.6
			c-1.1,0.5-2,1.2-3.1,1.9l-1.5,1c-0.5,0.4-1,0.7-1.4,1.1c-0.9,0.8-1.9,1.4-2.9,2.2c-3.7,3.2-6.9,6.9-9.7,11
			c-0.6,1.1-1.3,2.1-1.9,3.2c-0.2,0.3-0.3,0.5-0.5,0.8l-0.4,0.8l-0.8,1.7l-0.8,1.7c-0.3,0.6-0.4,1.2-0.7,1.7
			c-0.4,1.2-0.9,2.3-1.2,3.5c-1.4,4.8-2,9.6-2.2,14.9l0.2,3.7c0,0.6,0,1.3,0.1,1.9l0.3,1.9l0.3,1.9l0.1,0.9l0.2,0.9l0.9,3.6
			c0.4,1.2,0.8,2.3,1.2,3.5c0.2,0.6,0.4,1.2,0.7,1.7l0.8,1.7l0.8,1.7l0.4,0.8c0.1,0.3,0.3,0.5,0.5,0.8c0.6,1.1,1.3,2.1,1.9,3.2
			c2.8,4.1,6,7.8,9.7,11c0.9,0.8,1.9,1.5,2.9,2.2c0.5,0.4,1,0.7,1.4,1.1l1.5,1c1,0.6,2,1.3,3.1,1.9c1.1,0.5,2.1,1.1,3.2,1.6
			c4.3,1.9,8.8,3.4,13.3,4c2.2,0.5,4.5,0.5,6.8,0.7c0.3,0,0.6,0,0.8,0l0.8,0c0.6,0,1.1,0,1.7-0.1c1.1-0.1,2.2,0,3.3-0.2
			c8.7-0.9,16.7-3.9,23.1-8.1c6.5-4.2,11.3-9.5,14.8-14.7c3.6-5.2,5.5-10.4,6.7-14.7c0.3-1.1,0.6-2.1,0.8-3.1c0.2-1,0.3-1.9,0.5-2.8
			c0.1-0.9,0.3-1.7,0.4-2.4c0.1-0.7,0.1-1.4,0.1-2C158.9,166.6,159,165.3,159,165.3z"/>
	</g>
	<g>
		
			<ellipse transform="matrix(0.9716 -0.2364 0.2364 0.9716 -39.997 21.0448)" class="st3" cx="67.7" cy="177.3" rx="8.2" ry="16.8"/>
		<path class="st2" d="M75.8,175.3c0,0,0.1,0.3,0.2,0.9c0.1,0.6,0.3,1.4,0.5,2.5c0.3,2.2,0.7,5.4,0,9.2c-0.2,1-0.5,1.9-0.9,2.9
			c-0.5,1-1.1,1.9-2.1,2.7c-0.5,0.4-1,0.6-1.8,0.8c-0.3,0-0.5,0.1-0.9,0.1c-0.3,0-0.7,0-1.1,0c-1.3-0.2-2.6-0.8-3.6-1.6
			c-2.1-1.6-3.7-3.7-5-5.9c-1.3-2.3-2.2-4.8-2.9-7.3c-0.1-0.7-0.3-1.2-0.4-1.9c-0.1-0.7-0.2-1.3-0.3-2c-0.1-1.3-0.2-2.6-0.2-3.9
			c0.1-2.6,0.5-5.2,1.7-7.6c0.6-1.2,1.4-2.3,2.5-3c0.5-0.4,1.2-0.7,1.8-0.8l0.1,0l0.1,0l0,0c0,0,0.2,0,0.1,0l0.2,0l0.4,0
			c0.2,0,0.7,0,1,0.1c2.5,0.5,4.1,2.1,5.3,3.6c2.4,3.1,3.5,6.1,4.2,8.1c0.3,1.1,0.6,1.9,0.7,2.5C75.7,175,75.8,175.3,75.8,175.3z
			 M75.8,175.3c0,0-0.1-0.3-0.2-0.9c-0.1-0.6-0.4-1.4-0.8-2.4c-0.4-1-0.9-2.3-1.7-3.6c-0.8-1.3-1.7-2.8-3-4.1
			c-0.6-0.7-1.4-1.3-2.2-1.8c-0.8-0.5-1.8-0.9-2.7-0.9c-2-0.1-3.4,1.5-4.1,3.5c-0.4,1-0.6,2.1-0.7,3.2c-0.1,1.1-0.2,2.3-0.1,3.5
			c0,0.6,0.1,1.2,0.1,1.8c0,0.6,0.1,1.2,0.2,1.8c0.1,0.6,0.2,1.2,0.3,1.7c0.1,0.6,0.3,1.3,0.4,1.8c0.6,2.4,1.4,4.6,2.4,6.8
			c0.5,1.1,1.1,2.1,1.7,3c0.6,1,1.4,1.8,2.1,2.5c0.8,0.7,1.7,1.3,2.6,1.5c0.2,0.1,0.4,0.1,0.6,0.1c0.1,0,0.2,0,0.4,0l0.4,0
			c0.4,0,0.9-0.2,1.3-0.4c0.8-0.5,1.5-1.2,2-2c0.5-0.8,0.9-1.7,1.1-2.6c0.6-1.8,0.7-3.5,0.8-5c0.1-1.5-0.1-2.9-0.2-4
			c-0.1-1.1-0.3-1.9-0.4-2.5C75.8,175.6,75.8,175.3,75.8,175.3z"/>
	</g>
</g>
<g>
	<g>
		<circle class="st1" cx="222.3" cy="68.9" r="52.5"/>
		<path class="st2" d="M269.4,92.1c0,0-0.6,1.1-1.8,3.2c-0.3,0.5-0.6,1.1-1,1.8c-0.4,0.6-0.9,1.3-1.4,2c-0.5,0.7-1,1.5-1.6,2.3
			c-0.7,0.8-1.3,1.6-2.1,2.4c-3,3.3-7,7.2-12.5,10.4c-5.4,3.2-12.1,5.9-19.8,7.1c-7.7,1.1-16.3,0.5-24.9-2.3
			c-1.1-0.3-2.1-0.8-3.1-1.2c-0.5-0.2-1.1-0.4-1.6-0.7l-0.8-0.3c-0.3-0.2-0.5-0.3-0.8-0.4c-2-1.1-4.1-2.1-6-3.5
			c-4-2.6-7.6-5.9-10.8-9.6c-0.8-1-1.5-1.9-2.3-2.9c-0.8-1-1.4-2.1-2.1-3.1l-1-1.6c-0.3-0.5-0.6-1.1-0.9-1.7
			c-0.6-1.1-1.2-2.2-1.7-3.4c-2.1-4.6-3.5-9.7-4.3-14.8c-0.7-5.2-0.6-10.5,0.2-15.7l0.8-3.9l0.2-1l0.3-0.9l0.6-1.9l0.6-1.9
			c0.2-0.6,0.5-1.2,0.7-1.8l1.6-3.7c2.3-4.5,5.4-9.1,9-12.9c3.7-3.8,7.8-7.1,12.3-9.7c4.6-2.5,9.4-4.5,14.3-5.7
			c1.2-0.3,2.5-0.5,3.7-0.7c0.6-0.1,1.2-0.2,1.9-0.3l1.9-0.1c1.3-0.1,2.5-0.2,3.7-0.2c1.2,0,2.5,0.1,3.7,0.1
			c4.9,0.3,9.7,1.1,14.2,2.7c2.3,0.6,4.4,1.7,6.5,2.6c0.3,0.1,0.5,0.2,0.8,0.4l0.7,0.4l1.5,0.8c1,0.6,2,1.1,2.9,1.7
			c7.5,5,13.2,11.5,17,18.3c3.8,6.8,5.7,13.8,6.5,20c0.8,6.3,0.2,11.8-0.6,16.2c-0.2,1.1-0.5,2.1-0.7,3.1c-0.2,1-0.6,1.9-0.8,2.7
			c-0.3,0.8-0.5,1.6-0.7,2.3c-0.2,0.7-0.5,1.3-0.8,1.9C269.9,90.9,269.4,92.1,269.4,92.1z M269.4,92.1c0,0,0.5-1.2,1.5-3.4
			c0.2-0.6,0.5-1.2,0.8-1.9c0.2-0.7,0.5-1.5,0.7-2.3c0.2-0.8,0.6-1.7,0.8-2.7c0.2-1,0.4-2,0.6-3.1c0.8-4.4,1.4-9.9,0.5-16.2
			c-0.8-6.2-2.9-13.1-6.8-19.7c-3.9-6.6-9.8-12.8-17.1-17.4c-0.9-0.6-1.9-1.1-2.9-1.6l-1.5-0.8l-0.7-0.4l-0.7-0.3
			c-2.1-0.8-4.1-1.8-6.4-2.4c-4.3-1.5-9-2.1-13.7-2.3c-1.2,0-2.4,0-3.6,0c-1.2,0-2.4,0.2-3.6,0.3l-1.8,0.2c-0.6,0.1-1.2,0.2-1.8,0.4
			c-1.2,0.3-2.4,0.4-3.5,0.8c-4.7,1.2-9.2,3.2-13.5,5.6c-1,0.7-2.1,1.3-3.1,2c-0.3,0.2-0.5,0.3-0.8,0.5l-0.7,0.6l-1.5,1.2l-1.5,1.2
			c-0.5,0.4-0.9,0.9-1.4,1.3c-0.9,0.9-1.8,1.7-2.7,2.6c-3.4,3.7-6.1,7.7-8.5,12.4l-1.5,3.4c-0.2,0.6-0.5,1.1-0.7,1.7l-0.6,1.8
			l-0.6,1.8l-0.3,0.9l-0.2,0.9l-0.8,3.7c-0.2,1.2-0.3,2.5-0.4,3.7c-0.1,0.6-0.2,1.2-0.2,1.9l0,1.9l0,1.9l0,0.9c0,0.3,0,0.6,0.1,0.9
			c0.1,1.2,0.2,2.5,0.3,3.7c0.7,4.9,1.9,9.7,3.8,14.1c0.5,1.1,1.1,2.2,1.6,3.3c0.3,0.5,0.5,1.1,0.8,1.6l0.9,1.5c0.7,1,1.2,2.1,1.9,3
			c0.7,0.9,1.4,1.9,2.2,2.8c3,3.6,6.4,7,10.2,9.5c1.8,1.4,3.9,2.4,5.8,3.6c0.2,0.1,0.5,0.3,0.7,0.4l0.8,0.3l1.5,0.7c1,0.4,2,1,3,1.3
			c8.2,3,16.7,3.8,24.3,2.9c7.6-0.9,14.4-3.5,19.8-6.6c5.5-3.1,9.5-6.9,12.5-10.2c0.7-0.9,1.4-1.7,2.1-2.4c0.6-0.8,1.1-1.6,1.6-2.3
			c0.5-0.7,1-1.4,1.4-2c0.4-0.6,0.7-1.2,1-1.7C268.7,93.2,269.4,92.1,269.4,92.1z"/>
	</g>
	<g>
		
			<ellipse transform="matrix(0.9763 0.2163 -0.2163 0.9763 17.4586 -41.0671)" class="st3" cx="196.3" cy="59.2" rx="10.7" ry="16.8"/>
		<path class="st2" d="M206.8,61.5c0,0-0.1,0.3-0.2,1c-0.1,0.6-0.4,1.5-0.8,2.6c-0.4,1.1-1,2.5-1.8,3.9c-0.8,1.5-1.9,3-3.5,4.5
			c-0.8,0.7-1.6,1.4-2.7,1.9c-0.5,0.3-1.1,0.5-1.7,0.7c-0.6,0.1-1.2,0.3-1.9,0.3c-0.3,0-0.7,0-1,0c-0.3,0-0.6,0-1-0.1
			c-0.3-0.1-0.6-0.1-0.9-0.2c-0.3-0.1-0.7-0.3-1-0.4c-1.3-0.6-2.4-1.6-3.3-2.7c-0.9-1.1-1.6-2.4-2.1-3.7c-0.5-1.3-0.8-2.7-1.1-4.2
			c-0.2-1.4-0.3-2.9-0.2-4.3c0-1.5,0.3-2.8,0.6-4.4c0.2-0.7,0.3-1.3,0.5-2c0.2-0.7,0.5-1.4,0.8-2.1c0.5-1.4,1.2-2.6,2-3.8
			c0.8-1.2,1.7-2.3,2.7-3.3c1.1-1,2.2-1.8,3.5-2.5c1.3-0.6,2.7-1,4.1-1c1.4-0.1,2.8,0.4,3.9,1c0.6,0.3,1.1,0.7,1.6,1.1
			c0.4,0.4,0.9,0.8,1.2,1.3c0.7,0.9,1.2,1.9,1.6,2.9c0.8,2,1.1,3.8,1.2,5.5c0.1,1.7,0.1,3.1,0,4.3c-0.1,1.2-0.2,2.1-0.4,2.7
			C206.8,61.2,206.8,61.5,206.8,61.5z M206.8,61.5c0,0,0.1-0.3,0.2-1c0.1-0.6,0.3-1.6,0.3-2.7c0.1-1.2,0.1-2.6-0.2-4.3
			c-0.3-1.6-0.7-3.5-1.6-5.2c-0.5-0.9-1-1.7-1.8-2.5c-0.3-0.4-0.8-0.7-1.2-1c-0.5-0.3-0.9-0.6-1.4-0.7c-1-0.4-2.1-0.6-3.1-0.4
			c-1.1,0.2-2.1,0.6-3,1.2c-1.9,1.2-3.5,3.2-4.7,5.3c-0.6,1.1-1.2,2.2-1.6,3.4c-0.2,0.6-0.4,1.2-0.6,1.8c-0.2,0.6-0.3,1.3-0.5,1.9
			c-0.1,0.5-0.3,1.2-0.3,1.8c-0.1,0.6-0.2,1.3-0.2,1.9c-0.1,1.3-0.1,2.5,0,3.8c0.2,2.5,0.8,4.9,2.1,6.8c0.6,0.9,1.4,1.8,2.3,2.4
			l0.6,0.4c0.3,0.1,0.6,0.2,0.8,0.3c0.2,0.1,0.5,0.1,0.7,0.2c0.3,0.1,0.5,0.1,0.8,0.1c0.5,0.1,1,0,1.6-0.1c0.5-0.1,1-0.2,1.5-0.4
			c1-0.4,1.9-0.9,2.7-1.5c1.6-1.2,2.8-2.7,3.7-4c0.9-1.4,1.5-2.7,2-3.8c0.4-1.1,0.7-2,0.9-2.6C206.7,61.9,206.8,61.5,206.8,61.5z"/>
	</g>
</g>
<g>
	<g>
		<circle class="st1" cx="196.3" cy="169.9" r="52.5"/>
		<path class="st2" d="M248.8,169.9c0,0-0.1,1.3-0.2,3.7c0,0.6,0,1.3-0.1,2c-0.1,0.7-0.2,1.5-0.4,2.4c-0.1,0.9-0.2,1.8-0.5,2.8
			c-0.2,1-0.5,2-0.8,3.1c-1.2,4.3-3.1,9.5-6.6,14.8c-3.4,5.3-8.3,10.7-14.7,15.1c-6.4,4.4-14.4,7.7-23.3,8.9
			c-1.1,0.2-2.2,0.2-3.4,0.3c-0.6,0-1.1,0.1-1.7,0.1l-0.9,0.1c-0.4,0-0.6,0-0.9,0c-2.3-0.1-4.6-0.1-6.9-0.5c-4.8-0.5-9.4-1.9-14-3.8
			c-1.1-0.5-2.2-1-3.4-1.6c-1.1-0.5-2.2-1.2-3.3-1.9l-1.6-1c-0.5-0.4-1-0.7-1.5-1.1c-1-0.8-2.1-1.5-3-2.3
			c-3.9-3.2-7.4-7.1-10.4-11.4c-2.9-4.3-5.1-9.1-6.8-14.1l-1-3.8l-0.2-1l-0.2-1l-0.3-2l-0.3-2c-0.1-0.7-0.1-1.3-0.1-2l-0.2-4
			c0.1-5,0.8-10.6,2.4-15.6c1.6-5,3.8-9.8,6.8-14.1c3-4.3,6.4-8.1,10.4-11.4c1-0.8,2-1.5,3-2.3c0.5-0.4,1-0.7,1.5-1.1l1.6-1
			c1.1-0.6,2.1-1.3,3.3-1.9c1.1-0.5,2.2-1,3.4-1.6c4.6-1.9,9.2-3.3,13.9-3.8c2.3-0.4,4.7-0.4,7-0.5c0.3,0,0.5,0,0.9,0l0.8,0.1
			c0.6,0,1.1,0.1,1.7,0.1c1.1,0.1,2.2,0.1,3.3,0.3c9,1.2,16.9,4.5,23.4,8.9c6.4,4.4,11.2,9.8,14.7,15.1c3.5,5.3,5.4,10.5,6.6,14.8
			c0.3,1.1,0.5,2.1,0.8,3.1c0.2,1,0.3,1.9,0.4,2.8c0.1,0.9,0.2,1.7,0.4,2.4c0.1,0.7,0.1,1.4,0.1,2
			C248.8,168.6,248.8,169.9,248.8,169.9z M248.8,169.9c0,0-0.1-1.3-0.2-3.7c0-0.6,0-1.3-0.1-2c-0.1-0.7-0.2-1.5-0.4-2.4
			c-0.1-0.9-0.2-1.8-0.5-2.8c-0.3-1-0.5-2-0.8-3.1c-1.2-4.3-3.2-9.5-6.7-14.7c-3.5-5.2-8.4-10.5-14.8-14.7
			c-6.4-4.2-14.4-7.2-23.1-8.1c-1.1-0.2-2.2-0.1-3.3-0.2c-0.6,0-1.1,0-1.7-0.1l-0.8,0l-0.8,0c-2.2,0.2-4.5,0.2-6.8,0.7
			c-4.5,0.6-9,2.1-13.3,4c-1.1,0.5-2.1,1.1-3.2,1.6c-1.1,0.5-2,1.2-3.1,1.9l-1.5,1c-0.5,0.4-1,0.7-1.4,1.1c-0.9,0.8-1.9,1.4-2.9,2.2
			c-3.7,3.2-6.9,6.9-9.7,11c-0.6,1.1-1.3,2.1-1.9,3.2c-0.2,0.3-0.3,0.5-0.5,0.8l-0.4,0.8l-0.8,1.7l-0.8,1.7
			c-0.3,0.6-0.4,1.2-0.7,1.7c-0.4,1.2-0.9,2.3-1.2,3.5c-1.4,4.8-2,9.6-2.2,14.9l0.2,3.7c0,0.6,0,1.3,0.1,1.9l0.3,1.9l0.3,1.9
			l0.1,0.9l0.2,0.9l0.9,3.6c0.4,1.2,0.8,2.3,1.2,3.5c0.2,0.6,0.4,1.2,0.7,1.7l0.8,1.7l0.8,1.7l0.4,0.8c0.1,0.3,0.3,0.5,0.5,0.8
			c0.6,1.1,1.3,2.1,1.9,3.2c2.8,4.1,6,7.8,9.7,11c0.9,0.8,1.9,1.5,2.9,2.2c0.5,0.4,1,0.7,1.4,1.1l1.5,1c1,0.6,2,1.3,3.1,1.9
			c1.1,0.5,2.1,1.1,3.2,1.6c4.3,1.9,8.8,3.4,13.3,4c2.2,0.5,4.5,0.5,6.8,0.7c0.3,0,0.6,0,0.8,0l0.8,0c0.6,0,1.1,0,1.7-0.1
			c1.1-0.1,2.2,0,3.3-0.2c8.7-0.9,16.7-3.9,23.1-8.1c6.5-4.2,11.3-9.5,14.8-14.7c3.6-5.2,5.5-10.4,6.7-14.7c0.3-1.1,0.6-2.1,0.8-3.1
			c0.2-1,0.3-1.9,0.5-2.8c0.1-0.9,0.3-1.7,0.4-2.4c0.1-0.7,0.1-1.4,0.1-2C248.8,171.2,248.8,169.9,248.8,169.9z"/>
	</g>
</g>
<g>
	<g>
		<circle class="st1" cx="292.3" cy="148.9" r="52.5"/>
		<path class="st2" d="M344.8,148.9c0,0-0.1,1.3-0.2,3.7c0,0.6,0,1.3-0.1,2c-0.1,0.7-0.2,1.5-0.4,2.4c-0.1,0.9-0.2,1.8-0.5,2.8
			c-0.2,1-0.5,2-0.8,3.1c-1.2,4.3-3.1,9.5-6.6,14.8c-3.4,5.3-8.3,10.7-14.7,15.1c-6.4,4.4-14.4,7.7-23.3,8.9
			c-1.1,0.2-2.2,0.2-3.4,0.3c-0.6,0-1.1,0.1-1.7,0.1l-0.9,0.1c-0.4,0-0.6,0-0.9,0c-2.3-0.1-4.6-0.1-6.9-0.5c-4.8-0.5-9.4-1.9-14-3.8
			c-1.1-0.5-2.2-1-3.4-1.6c-1.1-0.5-2.2-1.2-3.3-1.9l-1.6-1c-0.5-0.4-1-0.7-1.5-1.1c-1-0.8-2.1-1.5-3-2.3
			c-3.9-3.2-7.4-7.1-10.4-11.4c-2.9-4.3-5.1-9.1-6.8-14.1l-1-3.8l-0.2-1l-0.2-1l-0.3-2l-0.3-2c-0.1-0.7-0.1-1.3-0.1-2l-0.2-4
			c0.1-5,0.8-10.6,2.4-15.6c1.6-5,3.8-9.8,6.8-14.1c3-4.3,6.4-8.1,10.4-11.4c1-0.8,2-1.5,3-2.3c0.5-0.4,1-0.7,1.5-1.1l1.6-1
			c1.1-0.6,2.1-1.3,3.3-1.9c1.1-0.5,2.2-1,3.4-1.6c4.6-1.9,9.2-3.3,13.9-3.8c2.3-0.4,4.7-0.4,7-0.5c0.3,0,0.5,0,0.9,0l0.8,0.1
			c0.6,0,1.1,0.1,1.7,0.1c1.1,0.1,2.2,0.1,3.3,0.3c9,1.2,16.9,4.5,23.4,8.9c6.4,4.4,11.2,9.8,14.7,15.1c3.5,5.3,5.4,10.5,6.6,14.8
			c0.3,1.1,0.5,2.1,0.8,3.1c0.2,1,0.3,1.9,0.4,2.8c0.1,0.9,0.2,1.7,0.4,2.4c0.1,0.7,0.1,1.4,0.1,2
			C344.8,147.6,344.8,148.9,344.8,148.9z M344.8,148.9c0,0-0.1-1.3-0.2-3.7c0-0.6,0-1.3-0.1-2c-0.1-0.7-0.2-1.5-0.4-2.4
			c-0.1-0.9-0.2-1.8-0.5-2.8c-0.3-1-0.5-2-0.8-3.1c-1.2-4.3-3.2-9.5-6.7-14.7c-3.5-5.2-8.4-10.5-14.8-14.7
			c-6.4-4.2-14.4-7.2-23.1-8.1c-1.1-0.2-2.2-0.1-3.3-0.2c-0.6,0-1.1,0-1.7-0.1l-0.8,0l-0.8,0c-2.2,0.2-4.5,0.2-6.8,0.7
			c-4.5,0.6-9,2.1-13.3,4c-1.1,0.5-2.1,1.1-3.2,1.6c-1.1,0.5-2,1.2-3.1,1.9l-1.5,1c-0.5,0.4-1,0.7-1.4,1.1c-0.9,0.8-1.9,1.4-2.9,2.2
			c-3.7,3.2-6.9,6.9-9.7,11c-0.6,1.1-1.3,2.1-1.9,3.2c-0.2,0.3-0.3,0.5-0.5,0.8l-0.4,0.8l-0.8,1.7l-0.8,1.7
			c-0.3,0.6-0.4,1.2-0.7,1.7c-0.4,1.2-0.9,2.3-1.2,3.5c-1.4,4.8-2,9.6-2.2,14.9l0.2,3.7c0,0.6,0,1.3,0.1,1.9l0.3,1.9l0.3,1.9
			l0.1,0.9l0.2,0.9l0.9,3.6c0.4,1.2,0.8,2.3,1.2,3.5c0.2,0.6,0.4,1.2,0.7,1.7l0.8,1.7l0.8,1.7l0.4,0.8c0.1,0.3,0.3,0.5,0.5,0.8
			c0.6,1.1,1.3,2.1,1.9,3.2c2.8,4.1,6,7.8,9.7,11c0.9,0.8,1.9,1.5,2.9,2.2c0.5,0.4,1,0.7,1.4,1.1l1.5,1c1,0.6,2,1.3,3.1,1.9
			c1.1,0.5,2.1,1.1,3.2,1.6c4.3,1.9,8.8,3.4,13.3,4c2.2,0.5,4.5,0.5,6.8,0.7c0.3,0,0.6,0,0.8,0l0.8,0c0.6,0,1.1,0,1.7-0.1
			c1.1-0.1,2.2,0,3.3-0.2c8.7-0.9,16.7-3.9,23.1-8.1c6.5-4.2,11.3-9.5,14.8-14.7c3.6-5.2,5.5-10.4,6.7-14.7c0.3-1.1,0.6-2.1,0.8-3.1
			c0.2-1,0.3-1.9,0.5-2.8c0.1-0.9,0.3-1.7,0.4-2.4c0.1-0.7,0.1-1.4,0.1-2C344.8,150.2,344.8,148.9,344.8,148.9z"/>
	</g>
</g>
<g>
	<g>
		<circle class="st1" cx="395.9" cy="106.1" r="52.5"/>
		<path class="st2" d="M350.8,132.9c0,0-0.6-1.1-1.7-3.3c-0.3-0.5-0.6-1.1-0.9-1.8c-0.3-0.7-0.6-1.4-0.9-2.3c-0.3-0.8-0.7-1.7-1-2.6
			c-0.3-1-0.6-2-0.9-3.1c-1.2-4.3-2.2-9.8-1.9-16.1c0.2-6.3,1.7-13.4,4.9-20.5c3.3-7,8.5-14,15.5-19.5c0.9-0.7,1.8-1.3,2.8-2l1.4-1
			l0.7-0.5c0.3-0.2,0.5-0.3,0.8-0.4c2-1.1,3.9-2.3,6.2-3.1c4.4-2,9.1-3.1,13.9-3.8c1.2-0.1,2.5-0.2,3.7-0.4c1.2-0.1,2.5,0,3.7-0.1
			l1.9,0c0.6,0,1.3,0.1,1.9,0.2c1.3,0.1,2.5,0.2,3.8,0.4c5,0.8,10,2.4,14.7,4.5c4.7,2.2,9.1,5.2,13,8.7l2.8,2.8l0.7,0.7l0.6,0.8
			l1.3,1.5l1.3,1.5c0.4,0.5,0.8,1.1,1.1,1.6l2.2,3.4c2.5,4.4,4.7,9.5,5.9,14.6c1.2,5.1,1.7,10.4,1.4,15.6
			c-0.4,5.2-1.4,10.3-3.1,15.1c-0.4,1.2-1,2.3-1.5,3.5c-0.3,0.6-0.5,1.2-0.8,1.7l-0.9,1.7c-0.6,1.1-1.2,2.2-1.9,3.3
			c-0.7,1-1.4,2-2.1,3.1c-3,3.9-6.3,7.5-10.1,10.4c-1.8,1.6-3.8,2.7-5.8,4c-0.3,0.2-0.4,0.3-0.8,0.5l-0.8,0.4l-1.5,0.8
			c-1,0.5-2,1.1-3,1.5c-8.3,3.5-16.9,4.8-24.6,4.3c-7.8-0.6-14.7-2.7-20.3-5.5c-5.7-2.8-10-6.3-13.2-9.4c-0.8-0.8-1.5-1.6-2.3-2.3
			c-0.7-0.7-1.2-1.5-1.8-2.2c-0.6-0.7-1.1-1.3-1.5-1.9c-0.5-0.6-0.8-1.2-1.1-1.7C351.5,133.9,350.8,132.9,350.8,132.9z M350.8,132.9
			c0,0,0.7,1.1,2.1,3.1c0.3,0.5,0.7,1.1,1.1,1.7c0.5,0.6,1,1.2,1.5,1.9c0.6,0.7,1.1,1.4,1.8,2.2c0.7,0.7,1.5,1.5,2.3,2.3
			c3.3,3.1,7.6,6.6,13.3,9.2c5.6,2.7,12.5,4.8,20.2,5.1c7.7,0.3,16.1-1.2,24-4.8c1-0.4,2-1,3-1.5l1.5-0.8l0.7-0.4l0.7-0.4
			c1.8-1.3,3.8-2.5,5.5-4c3.6-2.8,6.7-6.4,9.4-10.2c0.6-1,1.3-2,1.9-3c0.6-1,1.1-2.1,1.7-3.2l0.8-1.6c0.2-0.6,0.5-1.1,0.7-1.7
			c0.4-1.1,0.9-2.2,1.3-3.4c1.5-4.6,2.4-9.5,2.7-14.4c0-1.2,0-2.5,0-3.7c0-0.3,0-0.6,0-0.9l-0.1-0.9l-0.2-1.9l-0.2-1.9
			c-0.1-0.6-0.2-1.2-0.3-1.8c-0.2-1.2-0.4-2.5-0.7-3.7c-1.2-4.9-3.1-9.3-5.7-13.9l-2-3.1c-0.4-0.5-0.7-1.1-1.1-1.5l-1.2-1.5
			l-1.2-1.5l-0.6-0.7l-0.7-0.7l-2.6-2.7c-0.9-0.8-1.9-1.6-2.9-2.4c-0.5-0.4-0.9-0.8-1.5-1.2l-1.5-1l-1.5-1l-0.8-0.5
			c-0.3-0.2-0.5-0.3-0.8-0.5c-1.1-0.6-2.2-1.2-3.3-1.8c-4.5-2.1-9.1-3.7-13.9-4.5c-1.2-0.2-2.4-0.3-3.6-0.5
			c-0.6-0.1-1.2-0.2-1.8-0.2l-1.8,0c-1.2,0-2.4-0.1-3.6,0c-1.2,0.1-2.4,0.2-3.6,0.3c-4.7,0.6-9.3,1.6-13.5,3.3
			c-2.1,0.7-4.2,1.9-6.2,2.9c-0.2,0.1-0.5,0.3-0.7,0.4l-0.7,0.5l-1.4,0.9c-0.9,0.6-1.9,1.1-2.7,1.8c-7,5.2-12.3,11.9-15.8,18.7
			c-3.4,6.9-4.9,14-5.3,20.2c-0.4,6.3,0.6,11.7,1.7,16.1c0.3,1.1,0.6,2.1,0.9,3.1c0.3,1,0.7,1.8,1,2.6c0.3,0.8,0.6,1.6,0.9,2.3
			c0.3,0.7,0.6,1.3,0.9,1.8C350.2,131.7,350.8,132.9,350.8,132.9z"/>
	</g>
	<g>
		
			<ellipse transform="matrix(-0.7156 0.6985 -0.6985 -0.7156 779.1044 -165.1084)" class="st3" cx="423.2" cy="76.1" rx="8.2" ry="16.8"/>
		<path class="st2" d="M417.3,81.8c0,0-0.2-0.2-0.6-0.7c-0.4-0.4-1-1.1-1.7-1.9c-1.4-1.7-3.3-4.3-4.7-7.9c-0.3-0.9-0.6-1.9-0.7-3
			c-0.1-1.1,0-2.2,0.4-3.4c0.3-0.6,0.6-1.1,1.1-1.6c0.2-0.2,0.4-0.4,0.7-0.6c0.3-0.2,0.6-0.4,0.9-0.5c1.2-0.5,2.6-0.6,3.9-0.5
			c2.6,0.3,5.1,1.3,7.3,2.6c2.3,1.3,4.3,3,6.2,4.9c0.4,0.5,0.9,0.9,1.3,1.4c0.4,0.5,0.9,1,1.3,1.6c0.8,1.1,1.5,2.1,2.1,3.3
			c1.3,2.3,2.2,4.8,2.4,7.4c0.1,1.3,0,2.6-0.6,3.9c-0.3,0.6-0.7,1.2-1.1,1.6l-0.1,0.1l0,0l0,0c0,0-0.1,0.1-0.1,0.1l-0.2,0.1
			l-0.3,0.2c-0.2,0.2-0.6,0.3-0.9,0.4c-2.4,0.9-4.6,0.2-6.4-0.4c-3.6-1.4-6.1-3.5-7.8-4.9c-0.8-0.7-1.5-1.3-1.9-1.7
			C417.5,82,417.3,81.8,417.3,81.8z M417.3,81.8c0,0,0.2,0.2,0.7,0.6c0.4,0.4,1.1,1,1.9,1.7c0.9,0.7,1.9,1.5,3.3,2.3
			c1.3,0.8,2.9,1.6,4.7,2c0.9,0.3,1.8,0.4,2.8,0.4c1,0,2-0.2,2.8-0.6c1.7-0.9,2.2-3,1.8-5.1c-0.2-1-0.5-2.1-1-3.2
			c-0.5-1-1-2.1-1.6-3.1c-0.3-0.5-0.6-1-1-1.5c-0.3-0.5-0.7-1-1.1-1.4c-0.4-0.5-0.8-0.9-1.1-1.4c-0.4-0.5-0.9-0.9-1.3-1.4
			c-1.6-1.7-3.5-3.3-5.5-4.6c-1-0.7-2-1.2-3-1.7c-1-0.5-2.1-0.9-3.1-1.1c-1-0.2-2.1-0.3-3,0c-0.2,0-0.4,0.2-0.6,0.2
			c-0.1,0-0.2,0.1-0.3,0.2l-0.3,0.2c-0.3,0.2-0.6,0.6-0.9,1c-0.5,0.8-0.6,1.8-0.7,2.8c0,1,0.1,1.9,0.4,2.8c0.4,1.8,1.2,3.4,1.9,4.7
			c0.7,1.4,1.5,2.4,2.2,3.3c0.7,0.9,1.2,1.5,1.7,2C417,81.6,417.3,81.8,417.3,81.8z"/>
	</g>
</g>
<g>
	<g>
		<circle class="st1" cx="389.3" cy="165.3" r="52.5"/>
		<path class="st2" d="M441.8,165.3c0,0-0.1,1.3-0.2,3.7c0,0.6,0,1.3-0.1,2c-0.1,0.7-0.2,1.5-0.4,2.4c-0.1,0.9-0.2,1.8-0.5,2.8
			c-0.2,1-0.5,2-0.8,3.1c-1.2,4.3-3.1,9.5-6.6,14.8c-3.4,5.3-8.3,10.7-14.7,15.1c-6.4,4.4-14.4,7.7-23.3,8.9
			c-1.1,0.2-2.2,0.2-3.4,0.3c-0.6,0-1.1,0.1-1.7,0.1l-0.9,0.1c-0.4,0-0.6,0-0.9,0c-2.3-0.1-4.6-0.1-6.9-0.5c-4.8-0.5-9.4-1.9-14-3.8
			c-1.1-0.5-2.2-1-3.4-1.6c-1.1-0.5-2.2-1.2-3.3-1.9l-1.6-1c-0.5-0.4-1-0.7-1.5-1.1c-1-0.8-2.1-1.5-3-2.3
			c-3.9-3.2-7.4-7.1-10.4-11.4c-2.9-4.3-5.1-9.1-6.8-14.1l-1-3.8l-0.2-1l-0.2-1l-0.3-2l-0.3-2c-0.1-0.7-0.1-1.3-0.1-2l-0.2-4
			c0.1-5,0.8-10.6,2.4-15.6c1.6-5,3.8-9.8,6.8-14.1c3-4.3,6.4-8.1,10.4-11.4c1-0.8,2-1.5,3-2.3c0.5-0.4,1-0.7,1.5-1.1l1.6-1
			c1.1-0.6,2.1-1.3,3.3-1.9c1.1-0.5,2.2-1,3.4-1.6c4.6-1.9,9.2-3.3,13.9-3.8c2.3-0.4,4.7-0.4,7-0.5c0.3,0,0.5,0,0.9,0l0.8,0.1
			c0.6,0,1.1,0.1,1.7,0.1c1.1,0.1,2.2,0.1,3.3,0.3c9,1.2,16.9,4.5,23.4,8.9c6.4,4.4,11.2,9.8,14.7,15.1c3.5,5.3,5.4,10.5,6.6,14.8
			c0.3,1.1,0.5,2.1,0.8,3.1c0.2,1,0.3,1.9,0.4,2.8c0.1,0.9,0.2,1.7,0.4,2.4c0.1,0.7,0.1,1.4,0.1,2
			C441.8,164,441.8,165.3,441.8,165.3z M441.8,165.3c0,0-0.1-1.3-0.2-3.7c0-0.6,0-1.3-0.1-2c-0.1-0.7-0.2-1.5-0.4-2.4
			c-0.1-0.9-0.2-1.8-0.5-2.8c-0.3-1-0.5-2-0.8-3.1c-1.2-4.3-3.2-9.5-6.7-14.7c-3.5-5.2-8.4-10.5-14.8-14.7
			c-6.4-4.2-14.4-7.2-23.1-8.1c-1.1-0.2-2.2-0.1-3.3-0.2c-0.6,0-1.1,0-1.7-0.1l-0.8,0l-0.8,0c-2.2,0.2-4.5,0.2-6.8,0.7
			c-4.5,0.6-9,2.1-13.3,4c-1.1,0.5-2.1,1.1-3.2,1.6c-1.1,0.5-2,1.2-3.1,1.9l-1.5,1c-0.5,0.4-1,0.7-1.4,1.1c-0.9,0.8-1.9,1.4-2.9,2.2
			c-3.7,3.2-6.9,6.9-9.7,11c-0.6,1.1-1.3,2.1-1.9,3.2c-0.2,0.3-0.3,0.5-0.5,0.8l-0.4,0.8l-0.8,1.7l-0.8,1.7
			c-0.3,0.6-0.4,1.2-0.7,1.7c-0.4,1.2-0.9,2.3-1.2,3.5c-1.4,4.8-2,9.6-2.2,14.9l0.2,3.7c0,0.6,0,1.3,0.1,1.9l0.3,1.9l0.3,1.9
			l0.1,0.9l0.2,0.9l0.9,3.6c0.4,1.2,0.8,2.3,1.2,3.5c0.2,0.6,0.4,1.2,0.7,1.7l0.8,1.7l0.8,1.7l0.4,0.8c0.1,0.3,0.3,0.5,0.5,0.8
			c0.6,1.1,1.3,2.1,1.9,3.2c2.8,4.1,6,7.8,9.7,11c0.9,0.8,1.9,1.5,2.9,2.2c0.5,0.4,1,0.7,1.4,1.1l1.5,1c1,0.6,2,1.3,3.1,1.9
			c1.1,0.5,2.1,1.1,3.2,1.6c4.3,1.9,8.8,3.4,13.3,4c2.2,0.5,4.5,0.5,6.8,0.7c0.3,0,0.6,0,0.8,0l0.8,0c0.6,0,1.1,0,1.7-0.1
			c1.1-0.1,2.2,0,3.3-0.2c8.7-0.9,16.7-3.9,23.1-8.1c6.5-4.2,11.3-9.5,14.8-14.7c3.6-5.2,5.5-10.4,6.7-14.7c0.3-1.1,0.6-2.1,0.8-3.1
			c0.2-1,0.3-1.9,0.5-2.8c0.1-0.9,0.3-1.7,0.4-2.4c0.1-0.7,0.1-1.4,0.1-2C441.8,166.6,441.8,165.3,441.8,165.3z"/>
	</g>
	<g>
		
			<ellipse transform="matrix(0.9716 -0.2364 0.2364 0.9716 -28.3695 93.7964)" class="st3" cx="376.9" cy="165.2" rx="13.1" ry="16.8"/>
		<path class="st2" d="M389.6,162.1c0,0,0.1,0.4,0.2,1c0.1,0.3,0.2,0.8,0.2,1.3c0.1,0.5,0.2,1.1,0.2,1.7c0.1,1.3,0,2.9-0.2,4.6
			c-0.3,1.8-0.9,3.8-2,5.8c-1.1,2-2.8,3.9-5.3,5.2c-0.3,0.2-0.6,0.3-0.9,0.4c-0.3,0.1-0.6,0.3-1,0.4c-0.3,0.1-0.6,0.2-1,0.2
			c-0.3,0.1-0.7,0.1-1.1,0.1c-1.5,0.1-3,0-4.5-0.5c-2.9-0.9-5.6-2.7-7.7-5.2c-0.5-0.6-1-1.3-1.4-1.9c-0.4-0.7-0.8-1.4-1.2-2.1
			c-0.8-1.4-1.2-3-1.7-4.5c-0.2-0.9-0.3-1.4-0.4-2.3l-0.1-1.2c0-0.4,0-0.8,0-1.2c0-0.8,0-1.6,0.1-2.4c0.1-0.8,0.2-1.6,0.4-2.3
			c0.7-3.1,2.2-6,4.4-8.1c2.2-2.1,5.2-3.3,7.9-3.3c2.8,0,5.2,0.9,7.1,2.2c1.9,1.3,3.3,2.8,4.4,4.2c1,1.5,1.8,2.8,2.3,4
			c0.3,0.6,0.5,1.1,0.6,1.6c0.2,0.5,0.3,0.9,0.4,1.2C389.5,161.7,389.6,162.1,389.6,162.1z M389.6,162.1c0,0-0.1-0.4-0.3-1
			c-0.1-0.3-0.2-0.7-0.4-1.2c-0.2-0.5-0.4-1-0.7-1.6c-0.5-1.2-1.4-2.5-2.5-3.9c-1.1-1.3-2.6-2.7-4.6-3.7c-0.9-0.5-2-0.9-3.1-1.1
			c-1.1-0.2-2.3-0.3-3.4-0.1c-2.4,0.3-4.5,1.6-6.1,3.5c-0.8,1-1.5,2-1.9,3.2c-0.5,1.2-0.9,2.4-1.1,3.7c-0.2,1.3-0.3,2.6-0.2,4l0.1,1
			l0.1,0.9c0,0.6,0.3,1.5,0.4,2c0.7,2.6,1.7,5.1,3.3,7.2c0.8,1.1,1.7,2,2.6,2.8c1,0.9,2.1,1.5,3.2,2c1.1,0.5,2.4,0.8,3.5,0.8
			c0.3,0,0.5,0,0.9,0c0.3,0,0.7-0.1,1-0.1c0.2,0,0.6-0.1,0.8-0.2c0.3-0.1,0.6-0.1,0.8-0.2c1.1-0.3,2.1-1,3-1.7
			c0.8-0.7,1.6-1.5,2.2-2.4c1.3-1.7,1.9-3.7,2.3-5.4c0.4-1.7,0.5-3.3,0.4-4.6c0-0.6-0.1-1.2-0.1-1.7c0-0.5-0.1-0.9-0.2-1.3
			C389.7,162.4,389.6,162.1,389.6,162.1z"/>
	</g>
</g>
<g>
	<g>
		<circle class="st1" cx="292.3" cy="222.4" r="52.5"/>
		<path class="st2" d="M344.8,222.4c0,0-0.1,1.3-0.2,3.7c0,0.6,0,1.3-0.1,2c-0.1,0.7-0.2,1.5-0.4,2.4c-0.1,0.9-0.2,1.8-0.5,2.8
			c-0.2,1-0.5,2-0.8,3.1c-1.2,4.3-3.1,9.5-6.6,14.8c-3.4,5.3-8.3,10.7-14.7,15.1c-6.4,4.4-14.4,7.7-23.3,8.9
			c-1.1,0.2-2.2,0.2-3.4,0.3c-0.6,0-1.1,0.1-1.7,0.1l-0.9,0.1c-0.4,0-0.6,0-0.9,0c-2.3-0.1-4.6-0.1-6.9-0.5c-4.8-0.5-9.4-1.9-14-3.8
			c-1.1-0.5-2.2-1-3.4-1.6c-1.1-0.5-2.2-1.2-3.3-1.9l-1.6-1c-0.5-0.4-1-0.7-1.5-1.1c-1-0.8-2.1-1.5-3-2.3
			c-3.9-3.2-7.4-7.1-10.4-11.4c-2.9-4.3-5.1-9.1-6.8-14.1l-1-3.8l-0.2-1l-0.2-1l-0.3-2l-0.3-2c-0.1-0.7-0.1-1.3-0.1-2l-0.2-4
			c0.1-5,0.8-10.6,2.4-15.6c1.6-5,3.8-9.8,6.8-14.1c3-4.3,6.4-8.1,10.4-11.4c1-0.8,2-1.5,3-2.3c0.5-0.4,1-0.7,1.5-1.1l1.6-1
			c1.1-0.6,2.1-1.3,3.3-1.9c1.1-0.5,2.2-1,3.4-1.6c4.6-1.9,9.2-3.3,13.9-3.8c2.3-0.4,4.7-0.4,7-0.5c0.3,0,0.5,0,0.9,0l0.8,0.1
			c0.6,0,1.1,0.1,1.7,0.1c1.1,0.1,2.2,0.1,3.3,0.3c9,1.2,16.9,4.5,23.4,8.9c6.4,4.4,11.2,9.8,14.7,15.1c3.5,5.3,5.4,10.5,6.6,14.8
			c0.3,1.1,0.5,2.1,0.8,3.1c0.2,1,0.3,1.9,0.4,2.8c0.1,0.9,0.2,1.7,0.4,2.4c0.1,0.7,0.1,1.4,0.1,2
			C344.8,221.1,344.8,222.4,344.8,222.4z M344.8,222.4c0,0-0.1-1.3-0.2-3.7c0-0.6,0-1.3-0.1-2c-0.1-0.7-0.2-1.5-0.4-2.4
			c-0.1-0.9-0.2-1.8-0.5-2.8c-0.3-1-0.5-2-0.8-3.1c-1.2-4.3-3.2-9.5-6.7-14.7c-3.5-5.2-8.4-10.5-14.8-14.7
			c-6.4-4.2-14.4-7.2-23.1-8.1c-1.1-0.2-2.2-0.1-3.3-0.2c-0.6,0-1.1,0-1.7-0.1l-0.8,0l-0.8,0c-2.2,0.2-4.5,0.2-6.8,0.7
			c-4.5,0.6-9,2.1-13.3,4c-1.1,0.5-2.1,1.1-3.2,1.6c-1.1,0.5-2,1.2-3.1,1.9l-1.5,1c-0.5,0.4-1,0.7-1.4,1.1c-0.9,0.8-1.9,1.4-2.9,2.2
			c-3.7,3.2-6.9,6.9-9.7,11c-0.6,1.1-1.3,2.1-1.9,3.2c-0.2,0.3-0.3,0.5-0.5,0.8L247,199l-0.8,1.7l-0.8,1.7c-0.3,0.6-0.4,1.2-0.7,1.7
			c-0.4,1.2-0.9,2.3-1.2,3.5c-1.4,4.8-2,9.6-2.2,14.9l0.2,3.7c0,0.6,0,1.3,0.1,1.9l0.3,1.9l0.3,1.9l0.1,0.9l0.2,0.9l0.9,3.6
			c0.4,1.2,0.8,2.3,1.2,3.5c0.2,0.6,0.4,1.2,0.7,1.7l0.8,1.7l0.8,1.7l0.4,0.8c0.1,0.3,0.3,0.5,0.5,0.8c0.6,1.1,1.3,2.1,1.9,3.2
			c2.8,4.1,6,7.8,9.7,11c0.9,0.8,1.9,1.5,2.9,2.2c0.5,0.4,1,0.7,1.4,1.1l1.5,1c1,0.6,2,1.3,3.1,1.9c1.1,0.5,2.1,1.1,3.2,1.6
			c4.3,1.9,8.8,3.4,13.3,4c2.2,0.5,4.5,0.5,6.8,0.7c0.3,0,0.6,0,0.8,0l0.8,0c0.6,0,1.1,0,1.7-0.1c1.1-0.1,2.2,0,3.3-0.2
			c8.7-0.9,16.7-3.9,23.1-8.1c6.5-4.2,11.3-9.5,14.8-14.7c3.6-5.2,5.5-10.4,6.7-14.7c0.3-1.1,0.6-2.1,0.8-3.1c0.2-1,0.3-1.9,0.5-2.8
			c0.1-0.9,0.3-1.7,0.4-2.4c0.1-0.7,0.1-1.4,0.1-2C344.8,223.7,344.8,222.4,344.8,222.4z"/>
	</g>
	<g>
		
			<ellipse transform="matrix(0.9716 -0.2364 0.2364 0.9716 -48.2353 66.6031)" class="st3" cx="253.6" cy="234.4" rx="8.2" ry="16.8"/>
		<path class="st2" d="M261.6,232.5c0,0,0.1,0.3,0.2,0.9c0.1,0.6,0.3,1.4,0.5,2.5c0.3,2.2,0.7,5.4,0,9.2c-0.2,1-0.5,1.9-0.9,2.9
			c-0.5,1-1.1,1.9-2.1,2.7c-0.5,0.4-1,0.6-1.8,0.8c-0.3,0-0.5,0.1-0.9,0.1c-0.3,0-0.7,0-1.1,0c-1.3-0.2-2.6-0.8-3.6-1.6
			c-2.1-1.6-3.7-3.7-5-5.9c-1.3-2.3-2.2-4.8-2.9-7.3c-0.1-0.7-0.3-1.2-0.4-1.9c-0.1-0.7-0.2-1.3-0.3-2c-0.1-1.3-0.2-2.6-0.2-3.9
			c0.1-2.6,0.5-5.2,1.7-7.6c0.6-1.2,1.4-2.3,2.5-3c0.5-0.4,1.2-0.7,1.8-0.8l0.1,0l0.1,0l0,0c0,0,0.2,0,0.1,0l0.2,0l0.4,0
			c0.2,0,0.7,0,1,0.1c2.5,0.5,4.1,2.1,5.3,3.6c2.4,3.1,3.5,6.1,4.2,8.1c0.3,1.1,0.6,1.9,0.7,2.5
			C261.5,232.2,261.6,232.5,261.6,232.5z M261.6,232.5c0,0-0.1-0.3-0.2-0.9c-0.1-0.6-0.4-1.4-0.8-2.4c-0.4-1-0.9-2.3-1.7-3.6
			c-0.8-1.3-1.7-2.8-3-4.1c-0.6-0.7-1.4-1.3-2.2-1.8c-0.8-0.5-1.8-0.9-2.7-0.9c-2-0.1-3.4,1.5-4.1,3.5c-0.4,1-0.6,2.1-0.7,3.2
			c-0.1,1.1-0.2,2.3-0.1,3.5c0,0.6,0.1,1.2,0.1,1.8c0,0.6,0.1,1.2,0.2,1.8c0.1,0.6,0.2,1.2,0.3,1.7c0.1,0.6,0.3,1.3,0.4,1.8
			c0.6,2.4,1.4,4.6,2.4,6.8c0.5,1.1,1.1,2.1,1.7,3c0.6,1,1.4,1.8,2.1,2.5c0.8,0.7,1.7,1.3,2.6,1.5c0.2,0.1,0.4,0.1,0.6,0.1
			c0.1,0,0.2,0,0.4,0l0.4,0c0.4,0,0.9-0.2,1.3-0.4c0.8-0.5,1.5-1.2,2-2c0.5-0.8,0.9-1.7,1.1-2.6c0.6-1.8,0.7-3.5,0.8-5
			c0.1-1.5-0.1-2.9-0.2-4c-0.1-1.1-0.3-1.9-0.4-2.5C261.7,232.8,261.6,232.5,261.6,232.5z"/>
	</g>
</g>
<g>
	<g>
		<circle class="st1" cx="191.1" cy="234.8" r="52.5"/>
		<path class="st2" d="M146.3,262.1c0,0-0.6-1.1-1.8-3.3c-0.3-0.5-0.6-1.1-0.9-1.8c-0.3-0.7-0.6-1.4-0.9-2.2
			c-0.3-0.8-0.7-1.7-1.1-2.6c-0.3-1-0.6-2-0.9-3.1c-1.2-4.3-2.3-9.8-2.1-16.1c0.2-6.3,1.5-13.4,4.7-20.5c3.2-7.1,8.3-14.1,15.3-19.7
			c0.8-0.7,1.8-1.3,2.7-2l1.4-1l0.7-0.5c0.3-0.2,0.5-0.3,0.8-0.4c2-1.1,3.9-2.3,6.2-3.2c4.3-2,9-3.2,13.9-4c1.2-0.1,2.5-0.3,3.7-0.4
			c1.2-0.1,2.5-0.1,3.7-0.1l1.9,0c0.6,0,1.3,0.1,1.9,0.1c1.3,0.1,2.5,0.2,3.8,0.4c5,0.7,10,2.3,14.8,4.3c4.7,2.2,9.1,5.1,13.1,8.6
			l2.8,2.8l0.7,0.7l0.6,0.8l1.3,1.5l1.3,1.5c0.4,0.5,0.8,1.1,1.2,1.6l2.3,3.3c2.5,4.4,4.8,9.5,6.1,14.5c1.2,5.1,1.8,10.4,1.6,15.6
			c-0.3,5.2-1.3,10.3-2.9,15.1c-0.4,1.2-1,2.4-1.4,3.5c-0.2,0.6-0.5,1.2-0.7,1.7L239,259c-0.6,1.1-1.1,2.2-1.8,3.3
			c-0.7,1-1.4,2.1-2.1,3.1c-2.9,3.9-6.2,7.6-9.9,10.5c-1.8,1.6-3.8,2.8-5.7,4c-0.3,0.2-0.4,0.3-0.8,0.5l-0.8,0.4l-1.5,0.8
			c-1,0.5-1.9,1.1-3,1.5c-8.3,3.6-16.8,4.9-24.6,4.5c-7.8-0.5-14.7-2.6-20.4-5.3c-5.7-2.7-10-6.2-13.3-9.2c-0.8-0.8-1.6-1.5-2.3-2.2
			c-0.7-0.7-1.3-1.5-1.8-2.1c-0.6-0.7-1.1-1.3-1.6-1.9c-0.5-0.6-0.8-1.2-1.2-1.7C147,263.1,146.3,262.1,146.3,262.1z M146.3,262.1
			c0,0,0.7,1.1,2.1,3.1c0.4,0.5,0.7,1.1,1.2,1.6c0.5,0.6,1,1.2,1.6,1.9c0.6,0.7,1.1,1.4,1.8,2.1c0.7,0.7,1.5,1.4,2.3,2.2
			c3.3,3,7.6,6.5,13.4,9.1c5.7,2.6,12.6,4.6,20.3,4.9c7.7,0.2,16.1-1.4,23.9-5.1c1-0.4,1.9-1.1,2.9-1.6l1.5-0.8l0.7-0.4l0.7-0.5
			c1.8-1.3,3.8-2.5,5.4-4.1c3.6-2.9,6.6-6.5,9.3-10.4c0.6-1,1.3-2,1.9-3c0.6-1,1.1-2.1,1.7-3.2l0.8-1.6c0.2-0.6,0.4-1.1,0.7-1.7
			c0.4-1.1,0.9-2.2,1.3-3.4c1.5-4.6,2.3-9.5,2.6-14.4c0-1.2,0-2.5,0-3.7c0-0.3,0-0.6,0-0.9l-0.1-0.9l-0.2-1.9l-0.2-1.9
			c-0.1-0.6-0.2-1.2-0.3-1.8c-0.3-1.2-0.5-2.5-0.8-3.7c-1.3-4.9-3.3-9.3-5.9-13.8l-2.1-3c-0.4-0.5-0.7-1.1-1.1-1.5l-1.2-1.4
			l-1.2-1.4l-0.6-0.7l-0.7-0.7l-2.7-2.6c-0.9-0.8-1.9-1.6-2.9-2.4c-0.5-0.4-1-0.8-1.5-1.2l-1.6-1l-1.6-1l-0.8-0.5
			c-0.3-0.2-0.5-0.3-0.8-0.4c-1.1-0.6-2.2-1.2-3.3-1.7c-4.5-2.1-9.2-3.6-14-4.4c-1.2-0.2-2.4-0.3-3.6-0.4c-0.6-0.1-1.2-0.1-1.8-0.2
			l-1.8,0c-1.2,0-2.4-0.1-3.6,0c-1.2,0.1-2.4,0.2-3.6,0.3c-4.7,0.6-9.3,1.7-13.5,3.5c-2.1,0.7-4.1,1.9-6.2,3
			c-0.2,0.1-0.5,0.3-0.7,0.4l-0.7,0.5l-1.4,0.9c-0.9,0.6-1.9,1.2-2.7,1.9c-7,5.3-12.2,12-15.5,18.9c-3.4,6.9-4.7,14-5,20.2
			c-0.4,6.3,0.7,11.7,1.9,16.1c0.3,1.1,0.6,2.1,0.9,3.1c0.3,0.9,0.7,1.8,1,2.6c0.3,0.8,0.6,1.6,0.9,2.2c0.3,0.7,0.7,1.3,0.9,1.8
			C145.7,260.9,146.3,262.1,146.3,262.1z"/>
	</g>
	<g>
		
			<ellipse transform="matrix(-0.7076 0.7066 -0.7066 -0.7076 516.7316 195.0047)" class="st3" cx="218" cy="204.4" rx="8.2" ry="16.8"/>
		<path class="st2" d="M212.2,210.2c0,0-0.2-0.2-0.6-0.7c-0.4-0.4-1-1.1-1.7-1.9c-1.4-1.7-3.4-4.2-4.7-7.9c-0.3-0.9-0.6-1.9-0.7-3
			c-0.1-1.1-0.1-2.2,0.4-3.4c0.2-0.6,0.6-1.1,1.1-1.6c0.2-0.2,0.4-0.4,0.7-0.6c0.3-0.2,0.6-0.4,0.9-0.5c1.2-0.5,2.6-0.7,3.9-0.5
			c2.6,0.2,5.1,1.2,7.3,2.5c2.3,1.3,4.4,2.9,6.2,4.8c0.5,0.5,0.9,0.9,1.3,1.4c0.4,0.5,0.9,1,1.3,1.5c0.8,1,1.6,2.1,2.2,3.3
			c1.3,2.3,2.3,4.7,2.5,7.3c0.1,1.3,0,2.6-0.5,3.9c-0.3,0.6-0.6,1.2-1.1,1.6l-0.1,0.1l0,0l0,0c0,0-0.1,0.1-0.1,0.1l-0.2,0.1
			l-0.3,0.2c-0.2,0.2-0.6,0.3-0.8,0.5c-2.4,0.9-4.6,0.3-6.4-0.3c-3.6-1.4-6.1-3.4-7.8-4.8c-0.8-0.7-1.5-1.3-1.9-1.7
			C212.4,210.5,212.2,210.2,212.2,210.2z M212.2,210.2c0,0,0.2,0.2,0.7,0.6c0.4,0.4,1.1,1,1.9,1.7c0.9,0.7,1.9,1.5,3.3,2.2
			c1.3,0.7,2.9,1.5,4.7,2c0.9,0.2,1.9,0.4,2.8,0.4c1,0,2-0.2,2.8-0.6c1.7-0.9,2.2-3,1.7-5.1c-0.2-1-0.6-2.1-1.1-3.1
			c-0.5-1-1-2.1-1.7-3c-0.3-0.5-0.7-1-1-1.5c-0.3-0.5-0.7-0.9-1.1-1.4c-0.4-0.5-0.8-0.9-1.2-1.3c-0.4-0.4-0.9-0.9-1.3-1.3
			c-1.7-1.7-3.6-3.2-5.5-4.6c-1-0.7-2-1.2-3-1.7c-1-0.5-2.1-0.8-3.1-1.1c-1-0.2-2.1-0.2-3,0c-0.2,0-0.4,0.2-0.6,0.2
			c-0.1,0-0.2,0.1-0.3,0.2l-0.3,0.2c-0.3,0.2-0.6,0.6-0.9,1c-0.5,0.8-0.6,1.8-0.7,2.8c0,1,0.2,1.9,0.4,2.8c0.4,1.8,1.2,3.4,2,4.7
			c0.7,1.3,1.5,2.4,2.2,3.3c0.7,0.9,1.3,1.5,1.7,1.9C212,210,212.2,210.2,212.2,210.2z"/>
	</g>
</g>
</svg>
